<svg width="150" height="165" viewBox="0 0 150 165" fill="none" xmlns="http://www.w3.org/2000/svg">
<mask id="mask0_112_1130" style="mask-type:alpha" maskUnits="userSpaceOnUse" x="0" y="0" width="150" height="165">
<rect width="150" height="165" fill="#D9D9D9"/>
</mask>
<g mask="url(#mask0_112_1130)">
</g>
<g clip-path="url(#clip0_112_1130)">
<path d="M74.9433 92.2385C53.156 92.2385 47.766 88.4128 46.4894 86.1315C45.8511 84.9838 45.9149 83.7652 46.6809 82.5183C49.5532 77.8707 61.0709 74.3638 73.4752 74.3638C74.4823 74.3638 75.4965 74.385 76.4965 74.4275C88.461 74.9518 93.6454 76.9214 94.7234 78.8342L91.766 77.6298C89.9575 76.893 85.5603 75.5965 76.461 75.1998C75.4539 75.1573 74.4397 75.136 73.4397 75.136C62.9716 75.136 50.3475 78.0478 47.3333 82.9292C46.7234 83.9211 46.6596 84.8704 47.156 85.756C48.1206 87.4776 52.7518 91.4734 74.9362 91.4734C87.7802 91.4734 97.9787 89.433 104.418 85.5789C104.482 85.5435 104.546 85.5222 104.617 85.5222C104.667 85.5222 104.844 85.5364 104.95 85.7064C105.057 85.8906 105 86.1244 104.816 86.2378C96.5319 91.2042 83.9929 92.2456 74.9362 92.2456L74.9433 92.2385ZM69.227 84.8208C69.0142 84.8208 68.844 84.6508 68.844 84.4383C68.844 84.2257 69.0142 84.0557 69.227 84.0557C83.3333 84.0557 89.3901 82.5112 91.7447 81.5902L94.6596 80.4495C93.6241 81.9799 89.0426 84.8208 69.2341 84.8208H69.227Z" fill="black"/>
<path d="M73.1064 157C48.0496 157 21 150.128 21 139.019C21 133.224 28.3404 129.235 34.4965 126.918L36.6809 126.096L35.6525 123.999C30.0426 112.558 29.2695 97.6796 29.2695 83.3117C29.2695 73.7473 48.3617 66.2588 72.7234 66.2588C97.0851 66.2588 116.177 73.7473 116.177 83.3117C116.177 85.6143 116.149 87.8672 116.099 90.0139L116.057 91.8701L117.887 92.1676C124.319 93.202 128.986 98.6714 128.986 105.168C128.986 112.437 123.064 118.353 115.787 118.353C115.199 118.353 114.582 118.31 113.957 118.218L112.255 117.977L111.667 119.593C111.149 121.024 110.553 122.427 109.901 123.773L108.879 125.884L111.085 126.692C120.184 130.028 125.199 134.407 125.199 139.026C125.199 150.135 98.1489 157.007 73.0922 157.007L73.1064 157ZM35.5177 127.35C26.6525 130.574 21.773 134.719 21.773 139.019C21.773 148.505 44.8014 156.228 73.1064 156.228C101.411 156.228 124.44 148.505 124.44 139.019C124.44 133.061 115.433 129.008 110.057 127.124L108.475 126.571L107.567 127.974C107.525 128.038 107.482 128.094 107.44 128.158C107.376 128.25 107.312 128.342 107.248 128.434C106.979 128.838 106.709 129.235 106.426 129.625C106.248 129.865 106.064 130.106 105.879 130.34C105.539 130.779 105.241 131.162 104.922 131.53C104.787 131.693 104.645 131.849 104.504 132.005L104.248 132.288C103.943 132.629 103.638 132.969 103.319 133.287C103.191 133.415 103.064 133.535 102.936 133.656L102.496 134.074C102.206 134.357 101.915 134.634 101.61 134.903C101.504 134.995 101.397 135.08 101.291 135.165C101.191 135.243 101.099 135.321 101 135.399C100.319 135.958 99.6028 136.504 98.8582 137.021L98.5319 137.248C98.3262 137.389 98.1277 137.538 97.9149 137.673C97.7092 137.807 97.4965 137.928 97.2766 138.048L96.7021 138.388C96.4113 138.566 96.1135 138.736 95.8085 138.906C95.5816 139.026 95.3404 139.146 95.1064 139.26L94.8085 139.409C94.3688 139.628 93.9787 139.82 93.5745 140.004C93.2979 140.124 93.0142 140.245 92.7305 140.358L92.5461 140.436C92.1064 140.62 91.6596 140.797 91.2057 140.96C90.8582 141.088 90.4965 141.208 90.1418 141.329C89.6667 141.492 89.1844 141.64 88.695 141.782C88.3333 141.888 87.9645 141.987 87.5957 142.087C87.0851 142.221 86.5603 142.349 86.0355 142.469C85.6596 142.554 85.2837 142.639 84.9078 142.717C84.3546 142.831 83.7872 142.93 83.2199 143.022L82.9504 143.064C82.6596 143.114 82.3759 143.164 82.078 143.206C81.4681 143.291 80.844 143.362 80.2199 143.433L79.8298 143.475C79.5887 143.504 79.3546 143.532 79.1064 143.553C78.3972 143.617 77.6738 143.659 76.9433 143.702L76.5248 143.73C76.3475 143.744 76.1773 143.752 76 143.766C74.8723 143.815 73.8014 143.837 72.7376 143.837C71.6738 143.837 70.617 143.815 69.4823 143.766C69.305 143.759 69.1348 143.744 68.9645 143.73L68.539 143.702C67.8085 143.659 67.0851 143.617 66.3759 143.553C66.1348 143.532 65.8936 143.504 65.6525 143.475L65.2837 143.433C64.6525 143.362 64.0213 143.291 63.4043 143.199C63.1135 143.156 62.8227 143.107 62.539 143.064L62.2908 143.022C61.7163 142.93 61.1418 142.823 60.5745 142.71C60.2057 142.639 59.844 142.554 59.4823 142.476C58.9433 142.356 58.4043 142.221 57.8794 142.087C57.5248 141.995 57.1773 141.895 56.8298 141.796C56.3191 141.647 55.8156 141.484 55.3262 141.322L55.2199 141.286C54.922 141.187 54.617 141.088 54.3262 140.981C53.844 140.804 53.3759 140.613 52.9078 140.422L52.6241 140.308C52.4043 140.216 52.1773 140.124 51.9574 140.032C51.5035 139.827 51.0567 139.607 50.617 139.387L50.2553 139.21C50.078 139.125 49.9007 139.04 49.7234 138.948C49.2553 138.7 48.8085 138.431 48.3617 138.162L48.0142 137.956C47.8582 137.864 47.7021 137.779 47.5532 137.68C46.922 137.276 46.305 136.851 45.7376 136.426C45.5177 136.263 45.3121 136.093 45.0993 135.923L44.5248 135.455C44.3191 135.292 44.1064 135.122 43.9078 134.952C43.6454 134.726 43.3972 134.485 43.1418 134.251L42.7731 133.904C42.5745 133.72 42.383 133.535 42.1915 133.344C41.8794 133.032 41.5816 132.699 41.2766 132.366C41.0284 132.09 40.8014 131.849 40.5887 131.594C40.2979 131.247 40.0142 130.893 39.7305 130.539C39.5106 130.262 39.2979 129.979 39.0851 129.695C38.8156 129.334 38.5532 128.959 38.2979 128.583C38.2411 128.498 38.1844 128.413 38.1206 128.335C38.0851 128.286 38.0496 128.236 38.0142 128.186L37.0922 126.777L35.5035 127.35H35.5177ZM30.1844 92.529C30.7376 108.271 33.1631 118.827 38.0496 126.755C38.1844 126.975 38.3191 127.187 38.461 127.407C43.2057 134.733 50.3121 139.543 59.5745 141.697L60.1206 141.817C60.766 141.959 61.4326 142.087 62.1064 142.207C62.4823 142.271 62.8511 142.335 63.234 142.391L63.3262 142.405C63.6383 142.455 63.9504 142.498 64.2695 142.54C64.9433 142.632 65.6312 142.703 66.3262 142.774C66.5887 142.802 66.8582 142.823 67.1277 142.845C67.9007 142.908 68.6809 142.958 69.4823 142.994L70.0355 143.015C71.0142 143.05 71.8794 143.071 72.6879 143.071H72.8085C73.6028 143.071 74.4752 143.05 75.461 143.015L76.0142 142.994C76.8156 142.958 77.6028 142.901 78.3759 142.838C78.6383 142.816 78.9007 142.795 79.1631 142.767C79.8653 142.696 80.5603 142.618 81.2411 142.533C81.539 142.49 81.8227 142.448 82.1064 142.405L82.234 142.384C82.6454 142.32 83.0567 142.25 83.461 142.179C84.0851 142.065 84.6879 141.952 85.2837 141.817C85.5106 141.768 85.7376 141.718 85.9574 141.669C86.8723 141.456 87.7021 141.236 88.4894 141.003C95.7731 138.821 101.596 134.832 105.801 129.136L105.915 128.98C106.27 128.491 106.631 127.974 107 127.4C107.241 127.025 107.475 126.656 107.702 126.274C109.248 123.681 110.567 120.712 111.624 117.453L111.645 117.375L111.667 117.276L111.709 117.177L111.73 117.113C113.787 110.602 114.915 102.788 115.277 92.5219L115.44 87.853L111.809 90.8003C104.546 96.6948 89.5745 100.351 72.7305 100.351C55.8865 100.351 40.9149 96.6877 33.6525 90.8003L30.0213 87.853L30.1844 92.5219V92.529ZM115.929 95.0157C115.539 102.837 114.631 109.334 113.149 114.881L112.475 117.403L115.085 117.552C115.319 117.566 115.56 117.581 115.794 117.581C122.645 117.581 128.227 112.012 128.227 105.168C128.227 99.4153 124.142 94.3214 118.518 93.0603L116.05 92.5077L115.922 95.0299L115.929 95.0157ZM72.7305 67.031C49.1915 67.031 30.0426 74.3354 30.0426 83.3117C30.0426 92.2881 49.1915 99.5924 72.7305 99.5924C96.2695 99.5924 115.418 92.2881 115.418 83.3117C115.418 74.3354 96.2695 67.031 72.7305 67.031Z" fill="black"/>
<path d="M64.4681 56.4958C64.3972 56.4958 64.2908 56.4745 64.1986 56.3824C56.7092 49.0427 61.3617 39.9742 65.8652 31.2104C69.9858 23.1834 73.8794 15.6027 68.6667 9.6303C68.5248 9.46735 68.5461 9.22647 68.7021 9.08478C68.7731 9.02101 68.8582 8.99268 68.9574 8.99268C69.0213 8.99268 69.1489 9.00685 69.2482 9.12729C74.8014 15.4894 70.6099 23.6581 66.5532 31.5575C61.9787 40.4701 57.6525 48.8868 64.7447 55.8298C64.8369 55.9219 64.8582 56.0282 64.8582 56.099C64.8582 56.1699 64.844 56.2762 64.7447 56.3754C64.6525 56.4745 64.5461 56.4887 64.4681 56.4887V56.4958Z" fill="black"/>
<path d="M82.2837 56.4958C82.2128 56.4958 82.1064 56.4745 82.0142 56.3824C74.5177 49.0427 79.1773 39.9742 83.6808 31.2104C87.8014 23.1834 91.695 15.6027 86.4823 9.6303C86.3404 9.46735 86.3617 9.22647 86.5177 9.08478C86.5887 9.02101 86.6738 8.99268 86.773 8.99268C86.8369 8.99268 86.9645 9.00685 87.0638 9.12729C92.617 15.4894 88.4255 23.6581 84.3688 31.5575C79.7943 40.4701 75.4681 48.8868 82.5603 55.8298C82.6525 55.9219 82.6738 56.0282 82.6738 56.099C82.6738 56.1699 82.6525 56.2762 82.5603 56.3754C82.4681 56.4745 82.3617 56.4887 82.2837 56.4887V56.4958Z" fill="black"/>
</g>
<defs>
<clipPath id="clip0_112_1130">
<rect width="108" height="148" fill="white" transform="translate(21 9)"/>
</clipPath>
</defs>
</svg>
