<svg width="276" height="66" viewBox="0 0 276 66" fill="none" xmlns="http://www.w3.org/2000/svg">
<g clip-path="url(#clip0_91_1184)">
<path d="M99.7119 18.33H86.4119V31.15H98.4519V32.32H86.4119V48.31H81.6719V17.25H99.7119V18.34V18.33Z" fill="black"/>
<path d="M104.672 48.06V17.25H108.762V48.32H104.672V48.06Z" fill="black"/>
<path d="M113.18 38.1105C113.18 32.3305 116.83 26.9805 123.35 26.9805C129.87 26.9805 133.48 31.9805 133.48 37.7105C133.48 43.4405 129.87 48.7505 123.35 48.7505C116.83 48.7505 113.18 43.8405 113.18 38.1005V38.1105ZM129.26 39.8505C129.26 34.7205 127.17 27.9005 122.7 27.9005C119.96 27.9005 117.44 30.4205 117.44 35.9405C117.44 41.0205 119.57 47.8505 124 47.8505C126.78 47.8505 129.26 45.3305 129.26 39.8505Z" fill="black"/>
<path d="M164.644 27.5C164.604 29.46 164.074 33.24 163.424 34.8L157.474 48.4H156.564L150.784 34.54L145.134 48.4H144.264L135.484 27.5H139.744L146.304 43.15L150.214 33.24L147.824 27.5H152.034L158.644 43.15C160.814 38.37 161.774 36.2 162.334 34.72C162.984 32.85 162.244 29.94 160.244 27.51H164.634L164.644 27.5Z" fill="black"/>
<path d="M199.143 32.8502V48.3202H195.053V48.0602C195.053 47.0602 195.093 46.6702 195.143 43.1902C195.183 40.1002 195.182 37.0602 195.182 34.1902C195.182 30.8402 193.312 29.3702 191.312 29.3702C189.663 29.3702 187.923 30.3302 186.273 33.0602V48.3102H182.182V48.0502C182.182 47.0502 182.223 46.6602 182.273 43.1802C182.313 40.0902 182.312 37.0502 182.312 34.1802C182.312 30.8302 180.493 29.3602 178.443 29.3602C176.833 29.3602 175.052 30.3202 173.402 33.0502V48.3002H169.312V27.5902H173.312V31.8102C175.092 28.7202 177.442 26.9902 180.482 26.9902C183.172 26.9902 185.743 28.5102 186.173 31.8102C187.953 28.7202 190.303 26.9902 193.303 26.9902C196.303 26.9902 199.122 28.8202 199.122 32.8602L199.143 32.8502Z" fill="black"/>
<path d="M217.222 48.3197V44.4097L217.182 44.3697C216.052 46.2397 213.402 48.6697 209.572 48.6697C206.052 48.6697 203.922 46.6697 203.922 43.7997C203.922 39.9797 208.482 37.1097 217.352 34.4997L217.442 31.6297C217.442 31.6297 217.742 27.7597 214.182 27.7597C209.702 27.7597 209.102 34.0597 209.102 34.0597L208.882 34.0997L205.582 31.7097C205.582 31.7097 208.272 26.9697 214.492 26.9697C219.232 26.9697 221.362 29.7097 221.362 32.8797V48.3097H217.232L217.222 48.3197ZM217.132 43.3697L217.352 35.3297C210.272 37.6797 208.272 40.2397 208.272 42.9397C208.272 45.0297 209.572 46.3297 211.572 46.3297C213.572 46.3297 215.612 45.0297 217.132 43.3797V43.3697Z" fill="black"/>
<path d="M244.419 33.0205V48.3205H240.329C240.419 40.3705 240.419 37.6705 240.419 34.2005C240.419 30.7305 238.639 29.3305 236.549 29.3305C233.899 29.3305 231.809 31.6805 230.809 33.0205V48.3205H226.719V27.5905H230.719V31.8505C231.889 30.1105 234.539 26.9805 238.539 26.9805C241.579 26.9805 244.409 28.8105 244.409 33.0205H244.419Z" fill="black"/>
<path d="M249.031 20.98C249.031 19.68 250.291 18.46 251.681 18.46C253.071 18.46 254.291 19.68 254.291 20.98C254.291 22.37 253.031 23.59 251.681 23.59C250.331 23.59 249.031 22.37 249.031 20.98ZM249.461 48.32V27.5H253.551V48.32H249.461Z" fill="black"/>
<path d="M271.675 48.3197V44.4097L271.635 44.3697C270.505 46.2397 267.855 48.6697 264.025 48.6697C260.505 48.6697 258.375 46.6697 258.375 43.7997C258.375 39.9797 262.935 37.1097 271.805 34.4997L271.895 31.6297C271.895 31.6297 272.195 27.7597 268.635 27.7597C264.155 27.7597 263.555 34.0597 263.555 34.0597L263.335 34.0997L260.035 31.7097C260.035 31.7097 262.725 26.9697 268.945 26.9697C273.685 26.9697 275.815 29.7097 275.815 32.8797V48.3097H271.685L271.675 48.3197ZM271.585 43.3697L271.805 35.3297C264.725 37.6797 262.725 40.2397 262.725 42.9397C262.725 45.0297 264.025 46.3297 266.025 46.3297C268.025 46.3297 270.065 45.0297 271.585 43.3797V43.3697Z" fill="black"/>
<path d="M33 0C51.23 0 66 14.77 66 33C66 51.23 51.23 66 33 66C14.77 66 0 51.23 0 33C0 14.77 14.77 0 33 0Z" fill="black"/>
<path fill-rule="evenodd" clip-rule="evenodd" d="M44.2634 16.9902L20.0234 27.2102L21.7534 31.1502L45.9934 20.9302L44.2634 16.9902ZM38.0834 30.1702L23.9434 36.1302L25.6734 40.0702L39.8134 34.1102L38.0834 30.1702ZM33.9234 42.5002L27.8634 45.0602L29.5934 49.0002L35.6534 46.4402L33.9234 42.5002Z" fill="white"/>
</g>
<defs>
<clipPath id="clip0_91_1184">
<rect width="275.8" height="66" fill="white"/>
</clipPath>
</defs>
</svg>
