<svg width="904" height="458" viewBox="0 0 904 458" fill="none" xmlns="http://www.w3.org/2000/svg">
<path d="M429.2 322L422.7 343.2H420.3L414.9 327L409.5 343.2H407.2L400.6 322H403.4L408.4 338.2L413.7 322H416L421.5 338.3L426.4 322H429.2Z" fill="#0B123B"/>
<path d="M473.6 322L467.1 343.2H464.7L459.3 327L453.9 343.2H451.5L445 322H447.8L452.8 338.2L458.1 322H460.4L465.8 338.3L470.8 322H473.6Z" fill="#0B123B"/>
<path d="M517.9 322L511.5 343.2H509.1L503.7 327L498.3 343.2H495.9L489.4 322H492.1L497.2 338.2L502.5 322H504.8L510.2 338.3L515.2 322H517.9Z" fill="#0B123B"/>
<path d="M532.1 340.5H535V343.2H532.1V340.5Z" fill="#0B123B"/>
<path d="M552.9 322H555.6V343.2H552.9V322Z" fill="#0B123B"/>
<path d="M578.8 324.4H572.5V322H587.7V324.4H581.5V343.2H578.8V324.4Z" fill="#0B123B"/>
<path d="M603.799 339V326.4C603.799 323.7 605.499 322 608.099 322H617.699V324.4H609.099C607.299 324.4 606.499 325.5 606.499 327V338.3C606.499 340 607.399 340.8 608.999 340.8H617.699V343.2H608.199C605.599 343.2 603.799 341.8 603.799 339Z" fill="#0B123B"/>
<path d="M634.6 322H637.4V340.8H649V343.2H634.6V322Z" fill="#0B123B"/>
<path fill-rule="evenodd" clip-rule="evenodd" d="M678.4 338.4H669.4L667.7 343.2H664.9L672.4 322H675.5L682.9 343.2H680.1L678.4 338.4ZM677.5 335.9L673.9 325.4L670.2 335.9H677.5Z" fill="#0B123B"/>
<path d="M715.499 322V343.2H713.099L702.499 327V343.2H699.799V322H702.299L712.799 338V322H715.499Z" fill="#0B123B"/>
<path fill-rule="evenodd" clip-rule="evenodd" d="M748.899 335.6V339.3C748.899 341.7 747.499 343.2 744.999 343.2H733.299V322H744.999C747.399 322 748.899 323.3 748.899 325.7V329.2C748.899 330.8 747.999 331.9 746.799 332.4C748.099 332.9 748.899 333.9 748.899 335.6ZM735.999 331.2H743.999C745.199 331.2 746.099 330.3 746.099 329.2V326.2C746.099 325.2 745.499 324.4 744.299 324.4H735.999V331.2ZM746.199 335.7C746.199 334.5 745.199 333.7 743.999 333.7H735.999V340.8H744.199C745.399 340.8 746.199 340.1 746.199 338.8V335.7Z" fill="#0B123B"/>
<path fill-rule="evenodd" clip-rule="evenodd" d="M766.4 322H777.5C780.5 322 782 323.6 782 326.5V338.7C782 341.6 780.4 343.2 777.5 343.2H766.4V322ZM776.9 340.8C778.5 340.8 779.3 339.9 779.3 338.3V326.8C779.3 325.3 778.5 324.4 776.8 324.4H769.1V340.8H776.9Z" fill="#0B123B"/>
<path d="M799.5 340.5H802.4V343.2H799.5V340.5Z" fill="#0B123B"/>
<path d="M819.9 339V326.4C819.9 323.7 821.6 322 824.3 322H833.8V324.4H825.2C823.4 324.4 822.6 325.5 822.6 327V338.3C822.6 340 823.5 340.8 825.1 340.8H833.8V343.2H824.4C821.7 343.2 819.9 341.8 819.9 339Z" fill="#0B123B"/>
<path fill-rule="evenodd" clip-rule="evenodd" d="M850.4 338.9V326.4C850.4 323.5 852 322 854.9 322H861.5C864.2 322 865.9 323.5 865.9 326.4V338.9C865.9 341.7 864.2 343.2 861.5 343.2H854.8C852.1 343.2 850.4 341.7 850.4 338.9ZM860.9 340.8C862.3 340.8 863.2 340 863.2 338.3V326.9C863.2 325.3 862.5 324.4 860.8 324.4H855.5C853.8 324.4 853.1 325.4 853.1 326.9V338.3C853.1 340 854.1 340.8 855.5 340.8H860.9Z" fill="#0B123B"/>
<path d="M903.4 322V343.2H900.8V327L894.3 338.5H892.6L886.1 326.9V343.2H883.5V322H886.1L893.5 335L900.8 322H903.4Z" fill="#0B123B"/>
<path d="M400.6 255.1V169.7C400.6 150.2 412.8 138.5 432.2 138.5H501V165H442.3C432.7 165 428.2 169.9 428.2 177.9V246.2C428.2 254.9 433.1 258.8 441.6 258.8H501V285.3H432.4C412.5 285.3 400.6 274.3 400.6 255.1Z" fill="#1EA9A8"/>
<path d="M521.799 138.5H549.899V258.8H624.799V285.3H521.799V138.5Z" fill="#1EA9A8"/>
<path fill-rule="evenodd" clip-rule="evenodd" d="M730.899 257.9H677.499L668.399 285.3H638.699L688.299 138.5H720.299L769.999 285.3H739.999L730.899 257.9ZM722.299 231.2L704.199 176.7L686.199 231.2H722.299Z" fill="#1EA9A8"/>
<path d="M903.4 138.5V285.3H878.4L816.6 191.2V285.3H788.9V138.5H814.9L876.2 232.4L875.5 138.5H903.4Z" fill="#1EA9A8"/>
<path d="M322.7 230.5L254.5 343.7H386.6L322.7 230.5Z" fill="#CBCBCB"/>
<path d="M323.799 285.6H241.099V392.6L209.999 424.2L206.499 427.8L195.499 439L194.699 439.8L187.199 447.5V457.8L194.699 450.1L205.199 439.5L262.599 381.2L298.699 344.5L323.799 319V285.6Z" fill="#0B123B"/>
<path d="M277.899 79.9L220.499 138.2H166.699V79.9H277.899Z" fill="#0B123B"/>
<path d="M67.5996 59.1L0.599609 173.9H141.1L67.5996 59.1Z" fill="#CBCBCB"/>
<path d="M157.499 79.9V200.4L83.1992 275.8V79.9H157.499Z" fill="#0B123B"/>
<path d="M157.499 210.7V221.1L83.1992 296.5V286.1L157.499 210.7Z" fill="#1EA9A8"/>
<path d="M157.499 231.4V241.7L83.1992 317.2V306.8L157.499 231.4Z" fill="#1EA9A8"/>
<path d="M157.499 252.1V262.4L83.1992 337.9V327.5L157.499 252.1Z" fill="#1EA9A8"/>
<path d="M157.499 272.8V283.1L83.1992 358.6V348.2L157.499 272.8Z" fill="#1EA9A8"/>
<path d="M298.199 79.9L240.899 138.2H230.699L288.099 79.9H298.199Z" fill="#1EA9A8"/>
<path d="M318.598 79.9H308.398L251.098 138.2L242.898 146.5V156.9L261.498 137.9L318.598 79.9Z" fill="#1EA9A8"/>
<path d="M338.998 79.9H328.798L271.898 137.7L242.898 167.2V177.6L281.598 138.2L338.998 79.9Z" fill="#1EA9A8"/>
<path d="M359.398 79.9H349.198L292.298 137.7L242.898 187.9V198.3L301.998 138.2L359.398 79.9Z" fill="#1EA9A8"/>
<path d="M379.699 79.9H386.599V138.2H322.399L242.899 219V218.9L207.099 255.3L187.199 275.5V265.2L197.299 254.8L242.899 208.6L254.199 197H254.299L313.599 136.7L363.799 85.7L369.499 79.9L448.099 0.200012H458.199L379.699 79.9Z" fill="#1EA9A8"/>
<path d="M157.499 58.7V70.6H83.1993L67.4993 43.2L51.9993 65.2C51.9993 65.2 46.1993 0.200012 103.299 0.200012C148.699 0.200012 156.499 37.7 157.399 58L157.499 58.7Z" fill="#1EA9A8"/>
</svg>
