<svg width="20" height="21" viewBox="0 0 20 21" fill="none" xmlns="http://www.w3.org/2000/svg">
<path d="M19.15 1.85977C18.768 1.47033 18.2835 1.19698 17.7526 1.07134C17.2217 0.945697 16.6661 0.972887 16.15 1.14977L2.00005 5.87977C1.42936 6.06657 0.930738 6.42591 0.573002 6.9082C0.215267 7.39049 0.0160652 7.97193 0.00289517 8.57227C-0.0102749 9.1726 0.163236 9.76223 0.499477 10.2597C0.835717 10.7572 1.31811 11.1381 1.88005 11.3498L7.12005 13.3498C7.23937 13.3954 7.34801 13.4651 7.43919 13.5546C7.53038 13.644 7.60216 13.7513 7.65005 13.8698L9.65005 19.1198C9.85363 19.6738 10.2231 20.1515 10.708 20.4879C11.193 20.8244 11.7698 21.0031 12.36 20.9998H12.43C13.0311 20.9888 13.6136 20.7901 14.096 20.4314C14.5784 20.0728 14.9365 19.5722 15.1201 18.9998L19.85 4.82977C20.0221 4.3187 20.0477 3.76971 19.924 3.24485C19.8003 2.72 19.5322 2.24022 19.15 1.85977ZM18 4.19977L13.22 18.3798C13.1645 18.5592 13.0531 18.7162 12.9019 18.8278C12.7508 18.9394 12.5679 18.9996 12.38 18.9998C12.1933 19.0028 12.01 18.949 11.8546 18.8454C11.6992 18.7418 11.579 18.5933 11.51 18.4198L9.51005 13.1698C9.36505 12.7883 9.14144 12.4416 8.85373 12.1521C8.56602 11.8627 8.22065 11.637 7.84005 11.4898L2.59005 9.48977C2.41294 9.42487 2.2607 9.30597 2.15483 9.14985C2.04896 8.99374 1.99482 8.80832 2.00005 8.61977C2.0002 8.43191 2.06047 8.24903 2.17202 8.09789C2.28358 7.94675 2.44058 7.83527 2.62005 7.77977L16.8 3.04977C16.9629 2.98341 17.1414 2.96564 17.3141 2.99859C17.4868 3.03154 17.6462 3.11381 17.7731 3.23545C17.9001 3.35709 17.989 3.5129 18.0293 3.68403C18.0696 3.85516 18.0594 4.03429 18 4.19977Z" fill="black"/>
</svg>
