<svg width="150" height="165" viewBox="0 0 150 165" fill="none" xmlns="http://www.w3.org/2000/svg">
<mask id="mask0_112_1133" style="mask-type:alpha" maskUnits="userSpaceOnUse" x="0" y="0" width="150" height="165">
<rect width="150" height="165" fill="#D9D9D9"/>
</mask>
<g mask="url(#mask0_112_1133)">
</g>
<g clip-path="url(#clip0_112_1133)">
<path d="M74.9669 117C69.5449 116.784 64.1218 117.047 58.6977 116.841C48.689 116.463 38.7549 115.584 29.0353 113.013C25.0063 111.947 21.0971 110.571 17.3939 108.645C16.4463 108.152 15.5513 107.6 14.8863 106.75C14.4188 106.152 13.827 105.869 13.0773 105.698C9.75142 104.94 6.45259 104.075 3.55114 102.176C2.05782 101.198 0.791002 100.022 0.275356 98.2235C-0.402151 95.8616 0.233262 93.7448 1.51361 91.7757C3.16929 89.2297 5.62826 87.6365 8.27464 86.2868C12.1272 84.3223 16.2388 83.1858 20.4918 82.5035C20.7449 82.463 21.009 82.4391 21.2625 82.4635C21.6143 82.497 21.8483 82.4191 21.9801 82.0572C22.0463 81.8756 22.1916 81.6315 22.3484 81.5891C23.2108 81.356 23.1206 80.7036 23.1176 80.0523C23.1126 79.0001 23.0505 77.9415 23.4248 76.9217C23.8969 75.635 24.7999 75.2282 26.0196 75.8421C26.4546 76.0612 26.6059 75.9295 26.7723 75.5646C26.9742 75.1204 27.1847 74.6762 27.4372 74.2594C28.1784 73.0345 29.2889 72.9637 30.1999 74.0533C30.4414 74.3423 30.6123 74.9572 30.9004 74.8638C31.1921 74.7695 31.1169 74.1481 31.1931 73.7563C31.3149 73.1254 31.3965 72.4875 31.6681 71.893C32.2324 70.6567 33.166 70.3093 34.3541 70.9736C34.8432 71.2472 35.0161 71.1848 35.1103 70.6387C35.2767 69.6774 35.4846 68.7231 35.6896 67.7693C35.7597 67.4433 35.855 67.1209 35.9687 66.8074C36.2739 65.9634 36.6542 65.1034 37.664 64.9991C38.6863 64.8938 39.1388 65.7293 39.5191 66.4945C39.8062 67.072 39.9576 67.082 40.3349 66.5489C40.9322 65.7044 41.7105 65.0051 42.6435 64.5474C43.9575 63.9025 45.2308 64.1022 46.3207 65.049C46.899 65.5516 47.2829 65.4718 47.7138 64.9257C48.1127 64.4206 48.5301 63.929 48.9546 63.4448C49.7849 62.4995 50.7962 62.2764 51.9648 62.7311C52.1813 62.8154 52.3912 62.9217 52.6142 62.9811C52.9094 63.06 53.2862 63.363 53.4681 62.8763C53.6169 62.478 53.7412 62.0393 53.208 61.7348C52.8076 61.5062 52.4514 61.1988 52.082 60.9172C51.0753 60.1496 50.1462 59.3076 49.3354 58.3243C48.9205 57.8207 49.0002 57.5187 49.4752 57.1983C50.3542 56.6048 51.2938 56.1201 52.2594 55.6854C58.2011 53.0121 64.4295 51.2926 70.8367 50.1835C76.814 49.1488 82.8244 48.6881 88.8884 49.2257C90.2288 49.3445 91.5553 49.5327 92.8562 49.8796C93.9336 50.1671 94.2463 50.6747 94.0428 51.7877C93.9311 52.3987 93.7171 52.9786 93.4595 53.5407C91.9757 56.774 90.0845 59.7288 87.4822 62.196C87.2643 62.4026 86.934 62.5843 87.3655 62.9018C87.6827 63.1349 88.0069 63.4468 88.3366 62.9537C88.7566 62.3253 89.3995 61.9874 90.0179 61.6265C91.0477 61.0256 92.089 61.0989 93.1077 61.6819C93.8113 62.0842 94.4367 62.5903 94.8862 63.2611C95.2936 63.8696 95.8553 64.1017 96.5369 64.0607C97.1272 64.0253 97.715 63.9225 98.3008 63.8296C99.513 63.6375 100.483 64.0368 101.233 64.9916C101.681 65.5611 102.026 66.193 102.369 66.8279C102.827 67.6754 103.135 67.7653 103.975 67.2776C104.487 66.9806 104.961 66.6188 105.458 66.2958C106.712 65.4803 107.551 65.7942 107.929 67.2227C108.035 67.624 107.98 68.0458 108.636 67.5511C109.109 67.1948 109.78 67.5232 110.148 67.9879C110.744 68.7421 111.389 68.8688 112.308 68.5998C113.427 68.2724 114.214 68.8009 114.525 69.9375C114.653 70.4031 114.703 70.8993 114.721 71.3839C114.768 72.6667 114.757 72.6762 115.902 72.1825C116.313 72.0053 116.731 71.8995 117.175 71.889C118.397 71.8596 119.233 72.5788 119.391 73.7932C119.472 74.4151 119.353 75.0256 119.269 75.636C119.179 76.2868 119.365 76.786 119.94 77.1503C120.653 77.602 121.15 78.1596 120.929 79.1164C120.852 79.4478 121.216 79.635 121.48 79.7877C121.791 79.9674 121.962 79.7193 122.109 79.5132C122.452 79.0315 122.759 78.5229 123.113 78.0503C123.463 77.5841 123.889 77.1893 124.544 77.3395C125.198 77.4892 125.397 78.0293 125.529 78.5973C125.64 79.0695 125.5 79.6919 125.843 79.9904C126.185 80.2883 126.688 79.8242 127.151 79.8092C128.388 79.7683 128.96 80.4436 128.707 81.7523C128.624 82.183 128.522 82.3917 129.182 82.488C134.78 83.3066 140.104 84.9257 144.831 88.1416C146.602 89.346 148.07 90.8434 149.051 92.777C150.91 96.4386 150.017 99.8242 146.57 102.099C144.234 103.64 141.62 104.506 138.941 105.216C138.766 105.262 138.592 105.312 138.414 105.345C136.909 105.625 135.637 106.133 134.511 107.366C133.154 108.853 131.104 109.455 129.256 110.239C123.567 112.655 117.582 113.999 111.511 115.022C103.62 116.353 95.6524 116.701 87.6707 116.928C84.0521 117.032 80.4391 116.79 76.824 116.906C76.2047 116.926 75.5863 116.968 74.9674 116.999L74.9669 117ZM87.1675 101.461C94.2493 101.642 101.328 101.485 108.348 100.482C114.719 99.5721 120.935 97.9444 127.078 96.0528C128.713 95.5491 130.27 94.8663 131.548 93.6759C132.641 92.6572 132.906 91.314 132.204 90.1985C131.526 89.1214 130.418 88.6138 129.298 88.1885C128.717 87.9679 128.539 87.6999 128.774 87.1673C128.973 86.7161 129.109 86.2529 129.202 85.7703C129.317 85.1703 129.144 84.8144 128.504 84.6317C126.903 84.1735 126.682 83.6929 127.229 82.0887C127.262 81.9919 127.269 81.8846 127.311 81.7917C127.58 81.1858 127.314 81.1428 126.798 81.2646C124.879 81.7178 124.624 81.5392 124.329 79.6095C124.318 79.5332 124.322 79.4518 124.295 79.3809C124.252 79.2666 124.19 79.1593 124.136 79.049C124.042 79.1314 123.899 79.1963 123.861 79.2991C123.653 79.8581 123.143 80.1351 122.748 80.5159C122.093 81.1473 121.485 81.1873 120.729 80.6677C120.2 80.3038 119.808 79.8262 119.67 79.1973C119.561 78.6956 119.334 78.3333 118.899 78.0323C118.057 77.4493 117.771 76.6073 117.913 75.5996C117.982 75.1169 118.033 74.6258 118.025 74.1396C118.012 73.3695 117.678 73.1124 116.935 73.2991C116.513 73.4049 116.104 73.5776 115.708 73.7588C114.146 74.4735 113.347 73.9549 113.371 72.217C113.38 71.5986 113.379 70.9836 113.232 70.3772C113.129 69.9519 112.907 69.7288 112.456 69.9265C111.24 70.4585 110.25 70.1566 109.435 69.1453C109.26 68.9277 109.125 68.8643 108.848 69.1438C108.159 69.8381 107.415 69.6165 107.113 68.6817C107.027 68.4136 106.988 68.1306 106.927 67.8541C106.706 66.8554 106.663 66.8429 105.833 67.4029C105.321 67.7483 104.814 68.1132 104.265 68.3912C103.044 69.0096 102.143 68.7131 101.466 67.5362C101.159 67.0011 100.85 66.466 100.529 65.939C100.031 65.1219 99.3085 64.791 98.3574 64.9716C98.0783 65.0246 97.7982 65.0695 97.5175 65.1149C95.907 65.3744 94.6076 64.9901 93.6074 63.5716C92.4768 61.9684 90.8668 61.9564 89.5664 63.4099C88.48 64.6243 87.8205 64.6732 86.4845 63.6125C86.2781 63.4488 86.1327 63.3525 85.8887 63.5471C85.2022 64.0942 84.469 64.5758 83.6988 64.9986C83.4698 65.1244 83.4227 65.2002 83.6477 65.4279C84.4149 66.204 84.2891 66.7825 83.2448 67.0825C82.3052 67.352 81.3321 67.5092 80.3704 67.6979C78.2833 68.1072 76.3264 68.9322 74.3069 69.5566C73.8925 69.6849 73.437 69.8112 73.0617 69.4513C72.6573 69.0635 72.8713 68.6372 73.0527 68.2414C73.2356 67.8421 73.1669 67.6909 72.6974 67.7114C71.5874 67.7593 70.4769 67.7273 69.368 67.64C69.1876 67.626 68.9275 67.4813 68.8293 67.7268C68.7992 67.8022 69.0247 67.9909 69.148 68.1127C70.2895 69.2402 71.2587 70.5095 72.2093 71.7937C72.4213 72.0802 72.5736 72.4041 72.2263 72.6802C71.8685 72.9642 71.6034 72.7156 71.3799 72.4421C71.0703 72.0632 70.7716 71.6754 70.4639 71.2951C69.7508 70.4131 69.0352 69.5322 68.1863 68.774C67.9934 68.6018 67.7759 68.2679 67.4798 68.4765C67.1956 68.6767 67.2543 69.0365 67.3926 69.3295C67.579 69.7233 67.807 70.0977 67.9979 70.49C68.1362 70.774 68.1137 71.0475 67.8175 71.2307C67.5514 71.3949 67.3264 71.2881 67.124 71.0939C66.1804 70.1895 65.9694 68.8119 66.6424 67.6594C66.8113 67.37 66.7421 67.3365 66.4705 67.2871C65.8361 67.1723 65.2027 67.047 64.5748 66.9003C62.2531 66.3572 60.0287 65.5422 57.8774 64.5204C57.7331 64.4521 57.5788 64.2689 57.3994 64.4281C57.3618 64.4615 57.4074 64.6138 57.443 64.6996C57.5672 64.9986 57.675 65.3001 57.3342 65.5217C57.1182 65.6624 56.8722 65.6435 56.7018 65.4398C56.4568 65.1478 56.0569 64.7401 56.3691 64.4371C56.9544 63.8686 56.4698 63.7967 56.1135 63.5991C55.7752 63.4109 55.44 63.2167 55.1133 63.0101C54.8517 62.8444 54.7169 62.8 54.5661 63.1783C54.1521 64.2155 53.5513 64.469 52.4854 64.1376C52.2148 64.0538 51.9457 63.9559 51.6897 63.8361C50.8969 63.4653 50.246 63.6255 49.6997 64.3038C49.2958 64.8049 48.8869 65.3046 48.4495 65.7762C47.4713 66.8309 46.8514 66.8718 45.7314 65.9929C44.5819 65.0909 43.5756 65.0889 42.4316 65.9919C41.7957 66.4935 41.251 67.0445 41.0796 67.8945C40.9804 68.3862 40.6902 68.8244 40.1355 68.9033C39.5427 68.9876 39.1753 68.6028 38.8962 68.1441C38.6026 67.6609 38.34 67.1588 38.0528 66.6717C37.8719 66.3652 37.695 66.3447 37.5081 66.6881C37.1839 67.2851 37.016 67.9255 36.8993 68.5878C36.7079 69.6744 36.6061 70.7865 36.1386 71.8052C35.7607 72.6283 35.0998 72.8539 34.2915 72.472C34.1056 72.3842 33.9222 72.2829 33.7563 72.1626C33.3434 71.8636 33.0818 72.0333 32.9139 72.4321C32.8152 72.6672 32.7511 72.9197 32.6994 73.1703C32.5336 73.9759 32.3943 74.7875 32.2179 75.5906C32.1031 76.1137 31.8601 76.5823 31.2883 76.7211C30.6985 76.8638 30.3141 76.496 29.9839 76.0787C29.7444 75.7762 29.5063 75.4688 29.3049 75.1414C28.9867 74.6238 28.7326 74.6008 28.465 75.1778C28.238 75.6674 28.0005 76.1546 27.7324 76.6233C27.2403 77.4838 26.5899 77.6659 25.7144 77.2212C24.9297 76.8224 24.7909 76.8863 24.6105 77.7398C24.395 78.7585 24.5132 79.7922 24.4837 80.8189C24.4666 81.4069 24.389 82.0662 23.8533 82.3093C23.1372 82.6337 23.0595 83.1314 23.0335 83.7792C23.0099 84.3652 22.7183 84.7406 22.0377 84.6642C20.9633 84.5429 20.5635 84.8813 20.5294 85.9519C20.5123 86.4945 20.5615 87.0315 20.9513 87.4758C21.1483 87.6999 21.2545 87.9724 21.0761 88.2549C20.8957 88.5404 20.6341 88.6866 20.2838 88.5704C20.1601 88.5289 20.0508 88.4955 19.9155 88.5534C18.7855 89.037 17.7903 89.6969 17.4626 90.9477C17.1439 92.1641 17.7723 93.082 18.6437 93.8591C19.5813 94.6951 20.6797 95.2721 21.8538 95.6789C27.104 97.4987 32.5025 98.7755 37.9416 99.8656C44.1404 101.108 50.4379 101.416 56.7414 101.571C58.9874 101.627 61.2359 101.624 63.4829 101.61C65.7304 101.596 67.9784 101.569 70.2239 101.485C72.4378 101.401 74.6482 101.543 76.8631 101.487C80.2963 101.402 83.7334 101.465 87.169 101.465L87.1675 101.461ZM75.0351 109.957C80.5634 109.957 86.0921 109.953 91.6204 109.958C99.4549 109.965 107.275 109.691 115.03 108.509C123.194 107.264 131.3 105.7 139.316 103.71C141.828 103.087 144.243 102.165 146.341 100.584C148.52 98.9412 149.14 96.8953 148.235 94.3118C147.519 92.2654 146.11 90.7401 144.386 89.5032C140.368 86.6223 135.798 85.0854 130.993 84.1311C130.423 84.0178 130.18 84.0173 130.48 84.7031C130.624 85.032 130.658 85.5122 130.526 85.8381C130.049 87.0211 130.726 87.3739 131.638 87.8626C134.311 89.2946 134.708 92.3917 132.583 94.5439C131.852 95.2841 130.994 95.8566 130.059 96.3043C127.177 97.6844 124.068 98.3657 121.004 99.1778C115.536 100.628 110.015 101.827 104.367 102.329C98.1354 102.883 91.8885 103.063 85.6331 102.954C83.6703 102.92 81.7064 102.875 79.7435 102.885C77.7882 102.895 75.8379 102.765 73.879 102.808C69.0753 102.913 64.2696 102.984 59.4649 102.96C52.6678 102.925 45.8848 102.613 39.1688 101.451C33.7708 100.517 28.4841 99.1219 23.2334 97.5901C21.25 97.0116 19.3362 96.2449 17.7337 94.8613C15.2607 92.7261 15.5243 89.5167 18.3325 87.8406C18.4873 87.7483 18.6432 87.6515 18.8106 87.5871C19.1874 87.4418 19.3047 87.1983 19.2115 86.8029C19.0481 86.1082 19.1273 85.4229 19.3813 84.758C19.462 84.5464 19.6865 84.2449 19.6169 84.1496C19.4495 83.9195 19.1433 84.1147 18.9133 84.1576C15.4451 84.8044 12.1087 85.8636 8.95866 87.4558C6.5934 88.6512 4.36846 90.0513 2.81951 92.2759C1.55921 94.0862 0.874688 96.0413 1.71706 98.2304C2.28282 99.7014 3.50754 100.585 4.80442 101.363C7.20175 102.8 9.85415 103.569 12.5476 104.198C17.4966 105.352 22.4948 106.273 27.4808 107.254C35.4831 108.828 43.5591 109.704 51.7062 109.879C59.481 110.046 67.2578 109.959 75.0341 109.956L75.0351 109.957ZM74.9504 115.763C76.2157 115.763 77.4815 115.748 78.7468 115.766C88.9325 115.907 99.1016 115.698 109.204 114.233C115.579 113.309 121.855 111.964 127.871 109.599C129.649 108.9 131.377 108.091 133.038 107.143C133.285 107.003 133.595 106.809 133.522 106.536C133.481 106.382 133.106 106.552 132.886 106.596C127.774 107.61 122.671 108.675 117.526 109.507C110.681 110.613 103.785 111.172 96.8566 111.258C83.6823 111.42 70.507 111.312 57.3322 111.317C48.3056 111.32 39.3202 110.755 30.4184 109.161C26.2276 108.411 22.0523 107.585 17.878 106.75C17.415 106.657 16.9589 106.452 16.4659 106.553C16.6578 107.148 17.2396 107.269 17.6956 107.513C21.2149 109.398 24.9477 110.739 28.7963 111.778C37.6685 114.175 46.7361 115.169 55.8905 115.593C62.2426 115.887 68.5968 115.753 74.9504 115.763V115.763ZM84.2671 50.1341C80.9297 50.1386 78.3289 50.3108 75.7371 50.6238C75.5958 50.6407 75.3909 50.5718 75.3317 50.7475C75.2731 50.9202 75.4705 51.0006 75.5723 51.1034C76.6963 52.2389 77.8438 53.3535 78.8616 54.5873C80.0738 56.0572 81.3165 57.5072 82.2105 59.2062C82.3799 59.5282 82.4536 59.8646 82.0747 60.0817C81.7224 60.2834 81.4854 60.0493 81.313 59.7717C79.51 56.8628 77.2194 54.3532 74.8376 51.9185C74.6422 51.7183 74.3751 51.5347 74.4047 51.2207C74.4478 50.765 74.1987 50.787 73.8845 50.8379C72.9419 50.9911 71.9978 51.1369 71.0542 51.2851C70.7626 51.331 70.5576 51.4563 70.3842 51.7278C68.3221 54.9587 65.8892 57.9509 64.1318 61.3784C63.973 61.6879 63.7264 61.8671 63.3746 61.6974C63.0594 61.5451 63.0319 61.2412 63.1466 60.9642C63.333 60.514 63.544 60.0692 63.7881 59.6475C65.2859 57.059 67.0744 54.6622 68.7621 52.199C68.8533 52.0662 69.0833 51.938 68.938 51.7563C68.8814 51.6859 68.6469 51.7303 68.501 51.7603C63.7149 52.7465 59.0335 54.0862 54.5064 55.9305C52.4203 56.78 52.3957 56.8419 54.2108 58.2519C59.4038 62.2858 65.2107 64.6048 71.8986 64.3782C76.0724 64.2364 80.0693 63.4763 83.5039 60.9128C86.9185 58.3642 89.2331 54.9637 90.985 51.1409C91.1744 50.7276 91.0527 50.6243 90.6473 50.5679C88.289 50.2414 85.9178 50.1411 84.2666 50.1341H84.2671ZM71.6185 66.6023C72.8637 66.5679 74.1005 66.5239 75.3342 66.3867C79.4965 65.924 83.2553 64.5349 86.3863 61.6749C88.5631 59.6864 90.2549 57.3355 91.6094 54.7361C92.1311 53.7343 92.6933 52.744 92.9123 51.615C92.9604 51.3675 93.0747 51.1194 92.7003 50.9921C92.315 50.8608 92.2032 51.076 92.0875 51.3655C91.6184 52.5384 91.0376 53.6579 90.3842 54.7381C87.6246 59.3001 84.0691 62.9467 78.7724 64.4915C74.6096 65.7054 70.3752 65.7693 66.1137 65.0585C61.755 64.3313 57.9771 62.3263 54.4277 59.8137C53.4586 59.1279 52.4929 58.4371 51.9387 57.339C51.8911 57.2452 51.859 57.1194 51.7403 57.1813C51.3309 57.3944 50.8172 57.5441 50.5672 57.8826C50.3697 58.1496 50.8693 58.4076 51.0988 58.6103C56.9534 63.7827 63.7911 66.4575 71.6175 66.6018L71.6185 66.6023ZM76.7318 67.3445C76.2833 67.4009 75.899 67.4478 75.5151 67.4972C75.1313 67.5466 74.7319 67.5681 74.4873 67.935C74.4202 68.0358 74.311 68.197 74.347 68.2604C74.4232 68.3962 74.5755 68.2903 74.6903 68.2514C75.3738 68.0193 76.0568 67.7852 76.7373 67.5451C76.8296 67.5127 76.9082 67.4413 76.9929 67.3879C76.9017 67.2562 76.7744 67.3525 76.7313 67.345L76.7318 67.3445ZM80.9422 66.4531C81.3666 66.3527 81.8347 66.2414 82.3027 66.1306C82.2827 66.0862 82.2747 66.0188 82.2401 66.0008C81.739 65.7383 81.3792 66.1955 80.9407 66.2599C80.9166 66.2634 80.8891 66.2759 80.873 66.2933C80.8289 66.3413 80.7904 66.3937 80.7493 66.4446C80.7979 66.4466 80.8465 66.4491 80.9417 66.4531H80.9422Z" fill="black"/>
<path d="M102.373 83.6663C104.873 83.7342 107.197 84.4115 109.346 85.6913C109.742 85.9279 110.149 86.149 110.558 86.3656C113.956 88.17 115.514 93.7242 111.64 96.5992C110.099 97.7427 108.325 97.87 106.536 97.4337C102.532 96.458 99.5373 94.161 97.6737 90.4634C97.5815 90.2808 97.5143 90.0846 97.4451 89.8909C96.239 86.5174 98.0004 83.877 101.598 83.6688C101.855 83.6539 102.115 83.6668 102.373 83.6668V83.6663ZM102.294 84.7464C102.01 84.7739 101.649 84.7929 101.293 84.8458C98.6493 85.2396 97.6271 86.9162 98.4845 89.4432C98.5256 89.565 98.5626 89.6898 98.6198 89.8041C100.478 93.5451 103.462 95.842 107.608 96.45C110.191 96.8288 112.302 95.3319 112.671 93.006C113.023 90.7879 112.247 88.9511 110.425 87.6099C109.87 87.2022 109.228 86.9127 108.628 86.5678C106.691 85.4552 104.598 84.8782 102.294 84.7469V84.7464Z" fill="black"/>
<path d="M58.8849 89.3673C57.6502 89.3194 56.6068 89.1802 55.6081 88.7834C52.8455 87.6858 51.8017 85.0813 53.1096 82.417C54.218 80.158 56.1052 78.7075 58.3557 77.7127C60.8668 76.6032 63.4751 76.0706 66.1957 76.8512C69.6799 77.851 70.9162 81.0209 68.9548 84.0671C66.9689 87.1512 63.9386 88.6251 60.4118 89.2226C59.8536 89.3169 59.2823 89.3314 58.8844 89.3673H58.8849ZM58.8659 88.2049C61.8149 88.126 64.4007 87.1118 66.6071 85.1617C67.3858 84.4734 68.0057 83.6563 68.4066 82.685C69.1698 80.8368 68.5639 79.1787 66.7815 78.2767C66.3194 78.0427 65.8309 77.8844 65.3192 77.7911C62.512 77.2795 59.9408 77.9473 57.5449 79.3828C56.0411 80.2837 54.7658 81.4317 54.0482 83.0818C53.1872 85.0614 53.9134 86.8542 55.9118 87.6893C56.8549 88.0831 57.8431 88.2328 58.8659 88.2049Z" fill="black"/>
<path d="M31.4885 95.7649C29.9481 95.7245 28.6201 95.5833 27.3889 94.9728C26.297 94.4313 25.7949 93.5418 25.6776 92.3335C25.5438 90.9509 26.0354 89.8164 26.8778 88.8026C29.6133 85.5099 33.0495 83.5154 37.4212 83.5304C40.8949 83.5418 42.6493 86.1313 41.5459 89.4156C41.3073 90.1253 40.9716 90.7897 40.5201 91.3916C38.2175 94.4637 34.9983 95.6147 31.488 95.7649H31.4885ZM31.3081 94.6304C32.9002 94.602 34.4486 94.3265 35.8978 93.6666C38.1754 92.6294 39.9388 91.0737 40.6073 88.568C41.1515 86.5281 40.2279 85.1266 38.1563 84.7308C36.6876 84.4502 35.2734 84.7367 33.8959 85.2099C31.1017 86.1697 28.6697 87.732 27.2571 90.3434C26.2178 92.2651 26.7034 93.8313 28.8547 94.3255C29.663 94.5111 30.4763 94.6354 31.3081 94.6299V94.6304Z" fill="black"/>
<path d="M92.6284 65.4778C95.5269 65.675 98.1252 66.7461 100.587 68.209C102.017 69.0585 103.329 70.0343 104.219 71.4813C104.408 71.7878 104.641 72.0688 104.733 72.4226C104.902 73.072 104.499 73.4878 103.835 73.348C103.423 73.2612 103.079 73.0226 102.737 72.796C99.6385 70.7401 96.4043 68.9442 92.9091 67.637C92.5017 67.4848 92.1088 67.2806 91.7345 67.059C91.3927 66.8569 91.096 66.5694 91.2103 66.1217C91.3306 65.6515 91.7319 65.5217 92.1649 65.4803C92.3183 65.4658 92.4741 65.4778 92.6289 65.4778H92.6284ZM94.436 66.8394C94.3803 66.8539 94.3082 66.8729 94.236 66.8918C94.3623 66.9737 94.4786 67.081 94.6164 67.1334C97.1791 68.1177 99.5513 69.4618 101.87 70.9098C102.073 71.0366 102.24 71.2662 102.531 71.2078C102.471 70.9442 102.274 70.778 102.089 70.6053C102.014 70.5354 101.928 70.478 101.846 70.4147C99.848 68.8679 97.6256 67.7563 95.2067 67.0286C94.9606 66.9547 94.7066 66.9053 94.436 66.8394Z" fill="black"/>
<path d="M95.791 82.0106C95.783 82.4983 95.5484 82.8322 95.2543 83.1311C94.7607 83.6333 94.1609 83.9906 93.5395 84.3036C91.1371 85.5125 88.9072 86.9859 86.7674 88.6051C86.3385 88.93 85.887 89.2469 85.3999 89.4691C84.6798 89.7975 84.1787 89.3922 84.2358 88.6046C84.3019 87.6972 84.7098 86.9624 85.2656 86.2507C86.7985 84.2881 88.6626 82.7393 90.9071 81.6677C92.1023 81.0972 93.3646 80.7234 94.7226 81.0009C95.3034 81.1197 95.7078 81.4281 95.79 82.0106H95.791ZM93.8877 82.0201C93.798 82.0276 93.7199 82.0281 93.6437 82.0416C90.1199 82.6445 87.6885 84.8142 85.668 87.5684C85.5823 87.6852 85.4655 87.8689 85.6354 87.9647C85.7091 88.0061 85.9115 87.8689 86.0288 87.7785C88.4005 85.9402 90.9462 84.377 93.6046 82.9884C93.7865 82.8936 93.9619 82.7778 94.1183 82.6455C94.2706 82.5172 94.5582 82.3959 94.4916 82.2013C94.4094 81.9612 94.0952 82.052 93.8877 82.0201Z" fill="black"/>
<path d="M52.8064 75.5337C52.6044 76.4136 53.0209 77.5187 52.2677 78.4431C51.7676 79.057 51.2184 79.0335 50.9503 78.2844C50.6922 77.5626 50.5484 76.8014 50.3419 76.0607C49.9485 74.6502 49.3617 73.3076 48.8636 71.934C48.601 71.2097 48.3535 70.473 48.3745 69.6914C48.4091 68.4291 49.3988 67.906 50.4507 68.6158C51.7621 69.5007 52.2386 70.8833 52.5443 72.3408C52.7558 73.35 52.7618 74.3797 52.8064 75.5337ZM51.6593 74.7575C51.5847 73.1783 51.4609 71.645 50.5704 70.3063C50.3364 69.9544 50.0267 69.3934 49.6278 69.5716C49.267 69.7323 49.5482 70.3313 49.6669 70.6891C50.1274 72.0722 50.6431 73.4373 51.1477 74.8059C51.294 75.2027 51.3005 75.6505 51.5842 75.9964C51.7701 75.5801 51.6017 75.1448 51.6593 74.7575Z" fill="black"/>
<path d="M75.9483 85.4476C75.8812 86.7044 75.7379 87.9252 75.2313 89.0727C75.0509 89.482 74.8269 89.8918 74.2892 89.8394C73.75 89.7865 73.5951 89.3298 73.5154 88.901C73.2288 87.3622 73.0078 85.8109 72.7006 84.2761C72.4581 83.0662 72.0712 81.8933 71.4584 80.8092C71.28 80.4933 71.0389 80.1848 71.3481 79.8299C71.6543 79.4785 72.0412 79.2958 72.5192 79.4032C73.0659 79.5254 73.5059 79.8384 73.8973 80.2197C75.3756 81.6597 75.8496 83.4895 75.9488 85.4471L75.9483 85.4476ZM74.8394 85.7201C74.7978 84.1309 74.5172 82.7892 73.6733 81.6188C73.4363 81.2894 73.1962 80.947 72.8014 80.7713C72.6961 81.182 73.0028 81.4715 73.1281 81.8079C73.7875 83.5769 74.0887 85.4226 74.3753 87.2734C74.3904 87.3697 74.4455 87.4601 74.4816 87.5534C74.5237 87.4675 74.5893 87.3857 74.6039 87.2953C74.6971 86.7139 74.7787 86.1304 74.8389 85.7201H74.8394Z" fill="black"/>
<path d="M50.173 80.3459C50.3013 80.3374 50.4306 80.3189 50.5584 80.3249C51.0315 80.3479 51.52 80.3918 51.743 80.8864C51.9756 81.403 51.731 81.8373 51.3762 82.2086C51.1462 82.4497 50.9082 82.6908 50.6411 82.8884C48.8616 84.2061 47.1328 85.5832 45.4916 87.0721C45.0141 87.5053 44.4528 88.1243 43.7437 87.6276C43.0136 87.1165 43.3875 86.3553 43.636 85.7269C44.546 83.429 46.1732 81.7754 48.368 80.6583C48.9358 80.3693 49.5446 80.2994 50.1725 80.3449L50.173 80.3459ZM49.6704 81.4654C49.494 81.4909 49.24 81.4694 49.042 81.5647C47.1218 82.4881 45.6851 83.8967 44.8006 85.8422C44.7635 85.9236 44.74 86.0943 44.768 86.1083C44.9118 86.1807 44.994 86.0379 45.0777 85.959C46.5901 84.5265 48.2588 83.2857 49.916 82.0294C50.0813 81.9041 50.4081 81.7958 50.2963 81.5368C50.2186 81.3561 49.923 81.4899 49.6709 81.4659L49.6704 81.4654Z" fill="black"/>
<path d="M33.1662 80.6223C33.1883 77.3191 35.9554 73.9904 38.9897 73.383C39.4853 73.2837 39.8561 73.383 40.1402 73.7793C40.4359 74.1921 40.255 74.5704 39.9889 74.9063C39.7338 75.2283 39.4562 75.5347 39.1646 75.8247C37.9674 77.0156 37.0063 78.3723 36.2285 79.8657C35.9915 80.3204 35.7244 80.7651 35.4217 81.1784C35.0534 81.681 34.631 82.2205 33.9014 81.968C33.1833 81.7194 33.1747 81.0501 33.1662 80.6223ZM34.2867 80.1581C34.3078 80.3358 34.2156 80.5035 34.3594 80.5545C34.5047 80.6064 34.5638 80.4347 34.636 80.3353C34.7112 80.2315 34.7828 80.1237 34.8435 80.0109C35.8387 78.1457 36.9471 76.3618 38.4971 74.8884C38.5692 74.8195 38.7466 74.7277 38.6113 74.6094C38.5542 74.5594 38.3633 74.6153 38.2596 74.6713C36.0226 75.8702 34.7172 77.7319 34.2872 80.1581H34.2867Z" fill="black"/>
<path d="M79.829 98.0592C78.2029 98.0687 75.3174 96.1585 74.6705 94.6466C74.5407 94.3437 74.458 94.0307 74.8013 93.8311C75.1877 93.6065 75.4162 93.8645 75.6171 94.165C76.3377 95.2446 77.3555 95.9748 78.492 96.5578C78.8588 96.746 79.2477 96.8932 79.6646 96.9286C80.3677 96.988 80.5837 96.7355 80.3516 96.0731C79.9282 94.8658 79.1229 93.8865 78.3853 92.8653C78.1092 92.4834 77.4582 92.0447 78.0505 91.5745C78.6564 91.0934 78.932 91.846 79.2251 92.1994C80.1296 93.289 81.0021 94.4145 81.4496 95.7822C81.8916 97.1328 81.2171 98.0512 79.8285 98.0597L79.829 98.0592Z" fill="black"/>
<path d="M80.1838 72.0791C80.2219 71.2211 80.4779 70.3217 81.1299 69.5655C81.3614 69.297 81.6305 69.0619 81.9828 69.3539C82.2834 69.603 82.1892 69.9059 81.9863 70.178C81.4696 70.8697 81.2501 71.6419 81.3484 72.4989C81.3799 72.7749 81.3669 73.1153 81.6806 73.2221C81.9527 73.3145 82.1542 73.0684 82.3401 72.8982C83.2311 72.0821 83.8058 71.0484 84.3315 69.9833C84.5134 69.6144 84.6788 69.2366 84.8722 68.8737C85.02 68.5967 85.2576 68.4365 85.5758 68.5872C85.8895 68.7355 85.9321 69.0185 85.8128 69.3105C85.1964 70.8143 84.5264 72.2923 83.3623 73.4732C82.775 74.0691 82.1456 74.6471 81.1995 74.2977C80.5561 74.0602 80.1933 73.2636 80.1833 72.0801L80.1838 72.0791Z" fill="black"/>
<path d="M45.6725 91.1062C45.6315 91.9627 45.9356 92.7183 46.3476 93.4436C46.5455 93.792 46.7605 94.1793 46.2804 94.4368C45.863 94.6609 45.6269 94.329 45.423 94.0101C44.6568 92.8127 44.3236 91.5264 44.6317 90.1169C44.9705 88.5696 46.309 88.0156 47.6129 88.9185C48.8296 89.761 49.5712 91.0123 50.3038 92.2552C50.4677 92.5332 50.4036 92.8132 50.1094 92.9864C49.8373 93.1466 49.5968 93.0338 49.4314 92.8107C49.0335 92.2741 48.6592 91.7206 48.2713 91.1765C47.9411 90.7134 47.5577 90.2936 47.1123 89.9417C46.3927 89.3727 45.8605 89.5888 45.7182 90.4917C45.6861 90.6939 45.6866 90.901 45.672 91.1062H45.6725Z" fill="black"/>
<path d="M89.9109 93.9036C89.9109 93.8811 89.9104 94.0863 89.9109 94.2914C89.9119 94.6378 89.8027 94.9123 89.4068 94.9328C89.054 94.9507 88.8981 94.7092 88.8596 94.4037C88.6742 92.9373 88.8125 91.5267 89.6964 90.2799C90.4897 89.1614 91.539 89.2053 92.1799 90.4112C92.9231 91.8097 93.2132 93.3565 93.5019 94.8948C93.558 95.1938 93.4768 95.4823 93.1331 95.5602C92.7497 95.647 92.5593 95.4025 92.4746 95.072C92.1684 93.8801 91.9134 92.6737 91.4568 91.5252C91.3356 91.2203 91.2564 90.7481 90.9372 90.7286C90.5483 90.7052 90.4551 91.1953 90.3003 91.5053C89.96 92.1871 89.8578 92.9198 89.9109 93.9026V93.9036Z" fill="black"/>
<path d="M85.7978 79.4774C85.7527 80.0738 85.5617 80.6358 85.3558 81.1879C85.0331 82.0544 84.6808 82.9099 84.329 83.7649C84.1736 84.1427 84.0218 84.6313 83.4711 84.3938C82.9209 84.1567 83.199 83.708 83.3348 83.3316C83.7357 82.2211 84.2378 81.1469 84.5385 80.0005C84.5826 79.8322 84.7354 79.6201 84.5715 79.5023C84.4182 79.392 84.2373 79.5742 84.101 79.679C83.3293 80.272 82.757 81.0202 82.3817 81.9171C82.2218 82.2994 82.07 82.7901 81.5288 82.548C81.0031 82.3134 81.2476 81.8487 81.4 81.4739C81.9377 80.1492 82.742 79.0341 84.0739 78.4092C85.0711 77.9411 85.8188 78.4287 85.7983 79.4774H85.7978Z" fill="black"/>
<path d="M41.149 76.2918C41.1475 75.1578 41.9362 74.5523 43.0467 74.8269C43.6967 74.9876 44.1978 75.3884 44.6768 75.8196C45.6781 76.7215 46.4608 77.8056 47.2295 78.8997C47.4465 79.2087 47.6364 79.5621 47.2255 79.8371C46.8121 80.1136 46.566 79.7757 46.3425 79.4867C45.635 78.5723 44.9565 77.6344 44.1161 76.8304C43.7623 76.4919 43.4005 76.1535 42.936 75.9768C42.49 75.8076 42.2354 75.9439 42.2995 76.4695C42.3657 77.0105 42.6844 77.4108 43.0347 77.7912C43.2933 78.0717 43.5478 78.3761 43.1805 78.7131C42.8167 79.0465 42.511 78.757 42.2474 78.5064C41.613 77.9035 41.165 77.2027 41.1495 76.2923L41.149 76.2918Z" fill="black"/>
<path d="M122.646 90.1168C122.63 90.8201 122.562 91.4675 121.897 91.8199C121.238 92.1682 120.634 91.9052 120.087 91.5384C119.007 90.8141 118.228 89.8443 117.867 88.5835C117.762 88.2182 117.653 87.764 118.16 87.6062C118.677 87.445 118.797 87.8603 118.919 88.2481C119.232 89.2394 119.848 90.0105 120.706 90.59C120.892 90.7153 121.108 90.8945 121.338 90.7507C121.559 90.6125 121.521 90.3414 121.507 90.1143C121.464 89.4201 121.305 88.7462 121.117 88.0784C121.048 87.8318 120.974 87.5853 120.922 87.3347C120.854 87.0118 120.869 86.6938 121.247 86.575C121.629 86.4542 121.831 86.7093 121.937 87.0198C122.282 88.041 122.6 89.0702 122.645 90.1163L122.646 90.1168Z" fill="black"/>
<path d="M53.731 72.1315C53.8292 71.2186 54.2371 70.3242 55.0098 69.6169C55.2348 69.4113 55.532 69.2116 55.8331 69.4951C56.1564 69.7991 55.9995 70.0866 55.7489 70.3626C55.2909 70.8677 54.9607 71.4422 54.87 72.1285C54.7933 72.7105 55.0444 72.9021 55.5856 72.6745C56.4545 72.3092 57.1576 71.7002 57.8586 71.0938C58.2675 70.7399 58.6514 70.3581 59.0643 70.0097C59.2973 69.813 59.5704 69.7367 59.823 69.9992C60.0415 70.2258 60.0199 70.4864 59.823 70.6915C58.6449 71.9184 57.4633 73.1587 55.8231 73.7761C54.6179 74.2298 53.7119 73.543 53.731 72.1325V72.1315Z" fill="black"/>
<path d="M109.774 80.4185C109.091 80.405 108.548 80.3321 108.256 79.7771C107.967 79.2276 108.177 78.7204 108.502 78.2672C109.207 77.2845 110.214 76.7404 111.347 76.395C111.643 76.3047 111.934 76.3047 112.074 76.6261C112.232 76.987 112.023 77.2081 111.701 77.3444C110.987 77.6453 110.279 77.9573 109.732 78.5293C109.561 78.7085 109.258 78.9111 109.362 79.1477C109.478 79.4127 109.816 79.271 110.061 79.239C111.087 79.1048 112.068 78.7893 113.048 78.4749C113.292 78.3965 113.539 78.3167 113.79 78.2687C114.069 78.2153 114.313 78.2917 114.407 78.5912C114.499 78.8842 114.367 79.1073 114.101 79.2156C112.667 79.7971 111.203 80.2722 109.774 80.419L109.774 80.4185Z" fill="black"/>
<path d="M100.629 74.0469C100.625 74.3399 100.466 74.6948 100.309 75.0456C99.845 76.0808 99.2607 77.0521 98.6694 78.0179C98.4739 78.3369 98.2414 78.6693 97.811 78.4018C97.3855 78.1372 97.591 77.7913 97.7679 77.4604C98.2765 76.5071 98.7781 75.5503 99.2747 74.5909C99.3539 74.4377 99.4892 74.253 99.3544 74.0918C99.2116 73.9216 99.0086 74.0669 98.8498 74.1083C98.0209 74.3249 97.3705 74.8145 96.8333 75.4689C96.6003 75.7524 96.3342 76.0793 95.9338 75.7769C95.4868 75.4385 95.783 75.0951 96.021 74.7841C96.8784 73.6631 97.9974 72.9828 99.418 72.8709C100.187 72.8106 100.622 73.2308 100.629 74.0474L100.629 74.0469Z" fill="black"/>
<path d="M53.5014 95.9299C53.5601 94.995 54.1328 94.143 54.7733 93.33C54.9457 93.1113 55.2198 93.0469 55.4638 93.2411C55.7289 93.4522 55.7194 93.7298 55.558 94.0028C55.2318 94.5538 54.8219 95.0639 54.6951 95.7123C54.6475 95.9569 54.5237 96.2698 54.7853 96.42C55.0108 96.5498 55.2062 96.2863 55.3701 96.146C56.1729 95.4572 56.8699 94.6636 57.573 93.8775C57.7273 93.7053 57.8792 93.5281 58.0526 93.3759C58.271 93.1837 58.5281 93.1583 58.7551 93.3524C58.9851 93.5496 59.0007 93.8281 58.8238 94.0467C57.8376 95.2656 56.8935 96.5448 55.538 97.3854C54.4721 98.0462 53.4819 97.3759 53.5014 95.9304V95.9299Z" fill="black"/>
<path d="M103.061 78.9034C103.71 79.1474 104.532 79.4414 105.341 79.7703C105.566 79.8617 105.683 80.0888 105.595 80.3498C105.5 80.6343 105.27 80.7876 104.994 80.7027C104.159 80.4462 103.329 80.1676 102.511 79.8612C102.252 79.7644 102.139 79.5028 102.249 79.2173C102.357 78.9363 102.592 78.8554 103.061 78.9029L103.061 78.9034Z" fill="black"/>
<path d="M90.4962 73.286C90.3845 73.2386 90.2537 73.2081 90.1529 73.1357C89.5456 72.6995 88.9407 72.2608 88.3454 71.8091C88.0718 71.6014 87.931 71.3169 88.166 71.008C88.3955 70.706 88.7142 70.7315 88.9893 70.9436C89.5812 71.3998 90.1574 71.876 90.7367 72.3481C90.9332 72.5083 91.0254 72.7105 90.9251 72.9631C90.852 73.1482 90.6966 73.2296 90.4967 73.286H90.4962Z" fill="black"/>
<path d="M29.2049 82.2209C28.559 82.0482 27.8624 81.877 27.1759 81.6723C26.8742 81.5825 26.7064 81.3444 26.7981 81.018C26.8873 80.701 27.1408 80.5543 27.451 80.6316C28.1461 80.8053 28.8351 81.0055 29.5201 81.2166C29.7872 81.299 29.9596 81.5031 29.898 81.8021C29.8288 82.1385 29.5697 82.2239 29.2054 82.2209H29.2049Z" fill="black"/>
<path d="M43.2913 70.0922C43.8485 70.3253 44.5606 70.6088 45.2586 70.9233C45.4511 71.0101 45.5498 71.2148 45.4791 71.4434C45.4005 71.6979 45.2025 71.8347 44.9515 71.7893C44.1672 71.646 43.4231 71.3685 42.709 71.0221C42.4514 70.8973 42.3712 70.6358 42.4845 70.3638C42.6012 70.0838 42.8483 70.0313 43.2913 70.0917V70.0922Z" fill="black"/>
<path d="M97.4862 97.2988C98.1161 97.5005 98.7791 97.7101 99.3749 98.0745C99.5699 98.1938 99.5904 98.4184 99.5112 98.6275C99.4296 98.8426 99.2462 98.9704 99.0282 98.9335C98.3652 98.8212 97.7323 98.6006 97.1395 98.2861C96.9145 98.1668 96.8428 97.9322 96.919 97.6837C96.9966 97.4311 97.2041 97.3363 97.4862 97.2988Z" fill="black"/>
<path d="M67.5978 89.9224C67.9105 89.9214 69.4088 90.9126 69.4805 91.1981C69.5922 91.6419 69.3181 91.9069 68.9438 91.7936C68.2818 91.5929 67.673 91.2331 67.1688 90.7434C67.009 90.5882 67.0255 90.3661 67.1448 90.1709C67.247 90.0037 67.4059 89.9308 67.5978 89.9229V89.9224Z" fill="black"/>
<path d="M66.7925 92.8546C66.2363 92.7333 65.6905 92.5786 65.1794 92.3275C64.9248 92.2023 64.781 91.9861 64.8777 91.6951C64.9865 91.3672 65.2651 91.2629 65.5608 91.3622C66.096 91.5419 66.6191 91.762 67.1368 91.9896C67.3788 92.0959 67.462 92.3195 67.3633 92.5716C67.263 92.8267 67.0471 92.8876 66.793 92.8546H66.7925Z" fill="black"/>
<path d="M63.655 97.412C63.9532 97.5223 64.3897 97.6631 64.8066 97.8472C65.0386 97.9501 65.1213 98.1792 65.0416 98.4287C64.9619 98.6778 64.762 98.8235 64.5139 98.7686C64.0689 98.6698 63.627 98.541 63.201 98.3808C62.9409 98.283 62.8167 98.0524 62.9104 97.7589C63.0036 97.4659 63.2321 97.389 63.6555 97.412H63.655Z" fill="black"/>
<path d="M100.843 97.9202C100.783 98.1743 100.604 98.325 100.3 98.3056C99.8781 98.2781 99.0056 97.518 99.0362 97.194C99.0673 96.8596 99.2667 96.6854 99.6085 96.7134C99.9968 96.7453 100.865 97.5749 100.843 97.9202Z" fill="black"/>
<path d="M81.6485 88.5504C81.623 88.8294 81.4581 89.0026 81.1579 89.0151C80.7961 89.03 79.8786 88.21 79.9031 87.889C79.9252 87.6005 80.0916 87.4169 80.3962 87.3984C80.7535 87.3764 81.6405 88.1825 81.6485 88.5509V88.5504Z" fill="black"/>
<path d="M140.403 93.5333C140.358 93.6231 140.298 93.7614 140.222 93.8906C139.808 94.6004 139.271 95.2188 138.754 95.8517C138.517 96.1422 138.228 96.2939 137.899 96.0084C137.621 95.7674 137.643 95.4843 137.865 95.1944C138.378 94.5265 138.874 93.8452 139.391 93.1804C139.56 92.9628 139.795 92.8699 140.074 92.9987C140.279 93.0935 140.39 93.2498 140.403 93.5333H140.403Z" fill="black"/>
<path d="M40.3562 103.772C40.7902 103.794 42.2965 105.158 42.3316 105.493C42.3737 105.896 41.9848 106.175 41.6145 105.951C41.0212 105.592 40.486 105.144 40.0044 104.642C39.8511 104.482 39.828 104.276 39.9343 104.069C40.038 103.867 40.2069 103.772 40.3562 103.772Z" fill="black"/>
<path d="M39.8992 106.371C39.4898 106.387 38.0431 105.214 37.9799 104.862C37.9469 104.676 37.9834 104.506 38.1283 104.37C38.2996 104.209 38.5236 104.169 38.6975 104.287C39.2723 104.673 39.8416 105.092 40.2279 105.669C40.4645 106.022 40.258 106.295 39.8992 106.371Z" fill="black"/>
<path d="M139.884 96.0132C140.182 96.0606 140.421 96.2184 140.429 96.5932C140.44 97.0359 139.787 97.8525 139.445 97.8201C139.123 97.7896 138.929 97.6089 138.916 97.2735C138.895 96.7534 139.445 96.0077 139.884 96.0132Z" fill="black"/>
<path d="M9.14934 96.5394C9.17139 96.8907 8.57055 97.6644 8.25735 97.6669C7.9191 97.6694 7.74121 97.4602 7.71415 97.1483C7.67757 96.726 8.2348 96.0347 8.58659 96.0322C8.88625 96.0302 9.1313 96.2509 9.14934 96.5394Z" fill="black"/>
<path d="M81.5673 105.685C81.878 105.759 82.1301 105.925 82.0885 106.255C82.0369 106.666 81.7959 106.99 81.3318 106.958C81.0271 106.937 80.7826 106.719 80.8563 106.383C80.9354 106.021 81.1404 105.721 81.5673 105.685Z" fill="black"/>
<path d="M70.5158 114.938C69.8688 114.673 69.1437 114.405 68.5339 113.921C68.362 113.785 68.3555 113.556 68.4637 113.354C68.5559 113.182 68.7293 113.045 68.8997 113.087C69.6829 113.278 70.3735 113.672 70.9954 114.174C71.1367 114.289 71.1271 114.502 71.0294 114.677C70.9347 114.847 70.7924 114.942 70.5153 114.939L70.5158 114.938Z" fill="black"/>
<path d="M69.9801 56.2175C70.1951 55.344 70.4536 54.2489 70.7393 53.1608C70.8109 52.8873 71.0444 52.7361 71.3381 52.8044C71.6693 52.8818 71.8061 53.1419 71.7265 53.4498C71.4448 54.5389 71.1958 55.639 70.7648 56.6837C70.6731 56.9058 70.5108 57.0979 70.2341 57.0176C69.953 56.9357 69.959 56.6837 69.9801 56.218V56.2175Z" fill="black"/>
<path d="M87.1843 53.2702C86.3881 53.1893 85.6154 52.9932 84.8507 52.7685C84.5425 52.6777 84.3731 52.4491 84.4673 52.1192C84.574 51.7473 84.8757 51.674 85.2064 51.7523C85.9316 51.9245 86.6517 52.1192 87.3733 52.3059C87.6664 52.3817 87.9335 52.511 87.8889 52.8659C87.8373 53.2782 87.5141 53.2961 87.1843 53.2697V53.2702Z" fill="black"/>
<path d="M83.4941 53.8876C83.4345 54.2664 83.2426 54.4765 82.9023 54.3323C82.2869 54.0713 81.6871 53.7698 81.0963 53.4563C80.8773 53.34 80.7866 53.1089 80.8853 52.8559C80.982 52.6068 81.2 52.4636 81.4386 52.5494C82.1446 52.8045 82.7931 53.1783 83.3814 53.646C83.451 53.7014 83.4666 53.8252 83.4941 53.8876Z" fill="black"/>
<path d="M73.4929 59.5143C73.4052 59.8736 73.7314 60.5075 73.1005 60.5664C72.4847 60.6238 72.6155 59.9635 72.5172 59.5757C72.4426 59.2802 72.4175 58.9682 72.4065 58.6623C72.3945 58.3413 72.5523 58.1097 72.8951 58.0908C73.2108 58.0733 73.3596 58.3069 73.4102 58.5684C73.4678 58.8684 73.4663 59.1794 73.4929 59.5143Z" fill="black"/>
<path d="M62.0825 55.8643C62.0645 56.1613 61.2772 56.7892 60.9851 56.7443C60.74 56.7069 60.6373 56.5392 60.6493 56.3036C60.6659 55.9806 61.395 55.3263 61.6851 55.3812C61.9512 55.4316 62.0645 55.6233 62.0825 55.8643Z" fill="black"/>
<path d="M110.575 91.0337C110.795 91.0412 111.029 91.147 111.002 91.2443C110.783 92.0519 111.984 91.8598 111.899 92.5376C111.861 92.843 111.617 93.0003 111.349 92.9688C110.622 92.8835 110.35 93.3057 110.176 93.8942C110.126 94.0624 110.038 94.2286 109.932 94.3689C109.779 94.5725 109.557 94.6494 109.318 94.5231C109.022 94.3669 108.92 94.0869 109.063 93.8059C109.385 93.172 109.179 92.9718 108.515 92.9953C108.219 93.0058 107.96 92.8326 107.949 92.4837C107.938 92.1263 108.188 91.9666 108.494 91.9656C109.217 91.9626 109.943 92.0185 110.281 91.1605C110.313 91.0801 110.504 91.0617 110.575 91.0332V91.0337Z" fill="black"/>
<path d="M56.9977 85.6707C56.9997 85.8145 56.9165 85.9951 56.7121 86.0965C56.5061 86.1983 56.2756 86.1818 56.1538 85.9946C55.9529 85.6857 55.7504 85.5908 55.3972 85.7635C55.1596 85.8798 54.9331 85.7516 54.8239 85.516C54.7101 85.2709 54.7993 85.0413 55.0314 84.927C55.4022 84.7438 55.6823 84.5612 55.5525 84.0615C55.4919 83.8284 55.6587 83.6143 55.9218 83.5529C56.1809 83.492 56.3688 83.6118 56.5016 83.8304C56.8309 84.3715 56.9025 84.9844 56.9977 85.6707Z" fill="black"/>
<path d="M30.5269 92.8591C30.5204 93.1456 30.4186 93.3118 30.2067 93.3976C29.9566 93.499 29.7091 93.4231 29.5988 93.212C29.3342 92.7058 29.029 92.5806 28.5114 92.8915C28.2588 93.0433 27.9336 92.9724 27.7953 92.6554C27.661 92.348 27.7978 92.0914 28.093 91.9626C28.4628 91.8014 28.6257 91.6282 28.3425 91.2339C28.1501 90.9659 28.2358 90.6809 28.5204 90.5097C28.7745 90.357 29.0731 90.4139 29.2039 90.6519C29.5452 91.2734 29.9661 91.1371 30.4682 90.897C30.7679 90.7538 31.1638 90.4922 31.3913 90.9874C31.5902 91.4211 31.2114 91.6123 30.9112 91.7106C30.1836 91.9487 30.2337 92.3834 30.5269 92.8586V92.8591Z" fill="black"/>
</g>
<defs>
<clipPath id="clip0_112_1133">
<rect width="150" height="68" fill="white" transform="translate(0 49)"/>
</clipPath>
</defs>
</svg>
