<svg width="150" height="165" viewBox="0 0 150 165" fill="none" xmlns="http://www.w3.org/2000/svg">
<mask id="mask0_112_1132" style="mask-type:alpha" maskUnits="userSpaceOnUse" x="0" y="0" width="150" height="165">
<rect width="150" height="165" fill="#D9D9D9"/>
</mask>
<g mask="url(#mask0_112_1132)">
</g>
<g clip-path="url(#clip0_112_1132)">
<path d="M24.0743 154.906C24.0743 154.906 5.0736 123.668 19.7461 129.069C34.4186 134.47 24.1141 125.038 28.2561 121.438C32.3981 117.837 36.2751 120.476 39.3952 122.446C42.5152 124.415 55.6825 135.524 56.8993 135.925C58.116 136.325 96.0732 137.779 97.9684 136.602C99.8639 135.425 105.387 101.889 105.199 101.704C105.012 101.519 63.7788 98.1037 63.0067 98.5884C62.2346 99.0731 56.548 134.317 57.0394 134.594C57.5309 134.871 96.4941 136.14 97.1494 135.371C97.8048 134.602 103.936 103.043 103.772 102.627C103.608 102.212 83.4364 90.6947 82.5238 90.6716C81.6112 90.6485 80.2539 99.373 80.6048 99.0731C80.9558 98.7732 82.7929 91.4797 82.629 91.1219C82.4651 90.764 44.1688 86.8405 43.0691 87.602C41.9691 88.3636 37.4762 119.615 37.8037 119.984C38.1312 120.353 54.8866 133.601 55.542 133.278C56.1974 132.955 62.5156 99.2113 61.3454 97.7344C60.1755 96.2572 43.8881 88.7024 44.871 88.4252C45.8539 88.1483 66.5874 91.5949 66.8216 91.0871C67.0554 90.5792 67.1959 85.4091 67.477 85.0399C67.7576 84.6707 104.357 54.8274 104.357 53.4426C104.357 52.0578 102.462 48.2262 101.97 48.2724C101.479 48.3186 85.168 60.7822 85.2851 61.0821C85.4022 61.3821 87.9528 66.5984 87.9059 67.0369C87.8591 67.4754 83.5532 70.7529 83.0851 70.6143C82.6171 70.4757 81.9152 67.2676 80.0431 65.3518C78.171 63.436 68.6468 57.2506 67.4297 55.1501C66.213 53.0499 66.2829 50.9263 66.7509 51.2035C67.219 51.4803 67.9442 52.75 71.0569 53.9038C74.1691 55.0577 84.0212 60.4588 84.7 61.4052C85.3788 62.3515 86.7361 66.4829 86.7126 66.9907C86.6892 67.4985 83.8108 70.1989 83.2725 69.4374C82.7342 68.6759 81.5643 65.1674 81.0963 65.306C80.6283 65.4446 65.6747 78.0926 64.7621 79.3388C63.8494 80.5851 66.3535 84.4705 66.7903 84.2549C67.2271 84.0393 75.9948 76.623 75.2149 76.9306C74.4349 77.2383 66.1353 83.8241 65.355 83.9781C64.5751 84.1321 59.5825 79.1771 59.5517 78.8695C59.5204 78.5619 59.497 76.2461 59.7546 76.2461C60.0123 76.2461 64.0372 79.1082 63.8264 79.2464C63.6156 79.385 60.2461 77.4693 60.0822 77.0307C59.9182 76.5922 59.8948 72.6225 60.6439 69.0678C61.3926 65.5135 63.8967 61.5665 63.9201 60.2509C63.9435 58.9354 63.452 55.2887 63.148 55.5424C62.8439 55.7961 60.5974 60.9894 58.0699 64.0359C55.5424 67.0824 54.6063 71.3755 54.1383 74.3296C53.6703 77.2841 55.9011 81.9153 56.0572 81.4845C56.2134 81.0536 55.9011 76.9299 56.494 77.4839C57.087 78.0379 59.4271 81.4537 59.4271 80.4996C59.4271 79.5456 58.187 77.8146 58.8654 74.4448C59.5442 71.0749 59.7546 66.6897 60.9483 64.5895C62.1416 62.4894 62.797 58.1269 62.3524 58.8426C61.9078 59.5583 60.0591 63.9666 58.8424 65.1666C57.6256 66.3667 56.7364 68.1211 56.1279 70.3137C55.5193 72.5063 55.0747 72.8179 54.0803 71.5717C53.0859 70.3254 51.1784 68.1673 50.8859 68.7213C50.5933 69.2753 53.6706 74.5144 53.3078 74.5144C52.945 74.5144 49.7156 71.7216 49.1074 70.9832C48.4989 70.2448 46.4866 66.4477 47.1416 65.3976C47.797 64.3475 50.5584 61.3124 51.0264 61.4972C51.4944 61.682 52.7111 63.436 53.5769 63.9901C54.4427 64.5441 55.6829 63.5977 55.5896 63.9901C55.4963 64.3824 50.7922 68.5369 51.3305 67.9367C51.8688 67.3365 53.7877 65.0977 55.9639 63.0668C58.1401 61.0356 63.8268 53.6039 64.061 52.4035C64.2952 51.2035 61.955 52.1725 63.0312 50.6032C64.1078 49.0336 65.9565 51.2266 65.8394 51.6995C65.7223 52.1725 64.5171 52.9113 64.5405 52.5652C64.5639 52.2191 64.6487 51.1558 63.6981 51.1921C62.7476 51.2284 58.8424 49.6111 55.1684 51.8268C51.4944 54.0424 49.3416 57.6661 49.4584 58.4738C49.5755 59.2815 53.3115 63.5163 54.8874 63.0437C56.4632 62.5711 62.6331 54.0193 62.5628 53.7883C62.4926 53.5577 59.7781 54.7809 57.2275 56.6042C54.6769 58.4276 53.694 61.6127 53.9747 62.0743C54.2554 62.5359 56.5253 60.3433 58.4208 58.4276C60.3164 56.5118 63.3349 52.9575 62.7736 52.1729C62.2119 51.3882 57.5316 50.8342 53.2959 50.5343C49.0602 50.2344 46.8372 49.7959 45.8309 51.8268C44.8245 53.8576 45.4097 57.2737 46.5097 58.1277C47.6097 58.9816 49.0836 58.0199 49.5361 57.2044C49.9885 56.389 49.271 56.2196 48.4439 56.4352C47.6171 56.6508 45.7762 57.6353 47.0085 58.6355C48.2409 59.6357 49.7855 59.9587 50.0349 60.6359C50.2844 61.3131 46.6026 64.2518 46.2595 64.7135C45.9164 65.1751 47.2892 69.668 47.1643 69.6988C47.0394 69.7296 38.2717 63.5134 38.0223 62.713C37.7729 61.9126 36.1814 57.7276 36.6494 57.7276C37.1175 57.7276 46.0413 64.221 45.729 64.2518C45.4171 64.2826 37.0862 58.9281 36.9926 58.4972C36.8989 58.0664 36.8989 56.62 37.9286 55.6044C38.9584 54.5887 54.6528 41.4637 55.1208 41.4791C55.5888 41.4945 63.9431 48.7572 63.826 49.1495C63.7089 49.5418 62.6792 49.1495 62.6561 49.6573C62.6331 50.1651 63.0773 50.2806 60.8309 49.7959C58.5844 49.3112 51.2598 45.7799 51.4 45.3183C51.5405 44.8567 68.0383 29.4313 70.1134 29.7697C72.1885 30.1082 86.3149 38.5789 86.1045 39.2019C85.8937 39.8252 84.2089 40.2175 82.3368 41.3251C80.4647 42.4332 79.4349 42.6638 78.4286 43.6332C77.4223 44.6026 76.1587 46.4953 74.5673 47.1875C72.9758 47.8798 71.5487 46.6797 70.0509 47.072C68.5532 47.4643 66.0963 47.6722 65.3941 48.249C64.6922 48.8261 64.4346 49.0336 63.6156 47.7874C62.7967 46.5411 62.1178 37.4936 62.5156 36.6162C62.9134 35.7392 64.3643 35.9698 66.2833 35.139C68.2022 34.3082 69.7234 34.3544 69.9807 35.7854C70.2379 37.2164 69.6297 39.1553 69.0446 39.9861C68.4595 40.817 64.8792 47.9722 64.8792 47.4643C64.8792 46.9565 66.7279 39.3401 72.1335 37.1933C77.539 35.047 80.1134 38.763 79.5283 41.14C78.9431 43.5173 76.6498 44.0252 75.4331 45.2252C74.2164 46.4253 70.9167 47.0255 70.9401 46.0791C70.9636 45.1328 75.1524 38.8781 77.3286 38.5778C79.5048 38.2779 79.1539 41.6012 78.8732 41.5323C78.5926 41.463 77.9606 38.2779 78.9669 37.6319C79.9732 36.9854 81.0963 36.5469 81.4007 36.5469C81.7052 36.5469 89.0375 40.5244 89.0375 40.7092C89.0375 40.894 84.9814 42.2788 82.3602 42.9864C79.7394 43.6941 76.6502 46.3409 76.0264 47.0794C75.4022 47.8178 69.0996 47.8794 68.3509 48.095C67.6022 48.3106 65.8859 50.1875 66.6974 50.0338C67.5089 49.8802 69.7238 48.3414 72.7193 49.6954C75.7149 51.0495 79.5368 54.4656 80.239 56.1118C80.9409 57.7581 82.0331 59.6661 82.1268 58.8661C82.2204 58.0661 81.4558 55.8042 82.0643 56.2042C82.6729 56.6042 86.526 58.4661 86.4639 57.8197C86.4015 57.1733 84.1082 52.9883 81.4717 50.7569C78.8353 48.5258 76.5732 48.4488 76.9007 47.9872C77.2283 47.5256 83.1799 43.8866 87.9539 43.1712C92.7279 42.4559 97.174 45.1332 97.174 44.6254C97.174 44.1176 94.7755 41.694 93.5818 41.3017C92.3885 40.9094 89.7204 40.7825 89.7323 40.8976C89.7439 41.0131 101.113 47.6334 101.893 49.1718C102.673 50.7107 102.081 53.0495 103.297 53.2956C104.514 53.5416 104.665 20.4143 113.371 30.6622C122.075 40.9105 136.833 10.0776 136.833 10.0776" stroke="#1E1E1E" stroke-width="0.486358" stroke-miterlimit="10"/>
</g>
<defs>
<clipPath id="clip0_112_1132">
<rect width="123" height="145" fill="white" transform="translate(14 10)"/>
</clipPath>
</defs>
</svg>
