<svg version="1.1" id="Layer_1" xmlns="http://www.w3.org/2000/svg" xmlns:xlink="http://www.w3.org/1999/xlink" x="0px" y="0px" viewBox="0 0 149.5 30" style="enable-background:new 0 0 149.5 30;" xml:space="preserve"><style type="text/css">
	.st0{fill:#141414;}
	.st1{fill:#929497;}
</style><g><path id="Path_5625" class="st0" d="M39.9,18.2c0,0.6,0.3,1.1,0.7,1.5c0.5,0.5,1.2,0.7,2,0.7c0.5,0,1-0.1,1.4-0.4&#10;&#9;&#9;c0.3-0.3,0.5-0.6,0.5-1c0-0.3-0.1-0.6-0.4-0.9s-0.8-0.5-1.2-0.5L41,17.2c-1.2-0.2-2.3-0.8-3.1-1.6c-0.6-0.8-1-1.7-1-2.7&#10;&#9;&#9;c0-0.6,0.1-1.3,0.4-1.8c0.3-0.6,0.7-1.1,1.1-1.5c0.5-0.4,1.1-0.8,1.7-1c0.7-0.3,1.4-0.4,2.2-0.4c0.9,0,1.8,0.1,2.6,0.4&#10;&#9;&#9;c0.6,0.2,1.2,0.6,1.7,1.1c0.4,0.4,0.7,0.9,1,1.4c0.2,0.4,0.3,0.9,0.4,1.3l-3.3,0.7c0-0.2-0.1-0.4-0.2-0.7c-0.1-0.2-0.2-0.5-0.4-0.6&#10;&#9;&#9;c-0.2-0.2-0.5-0.4-0.7-0.5c-0.3-0.1-0.7-0.2-1-0.2c-0.5,0-0.9,0.1-1.3,0.4c-0.3,0.2-0.5,0.6-0.5,1c0,0.3,0.1,0.6,0.4,0.9&#10;&#9;&#9;c0.3,0.2,0.6,0.4,1,0.4l2.1,0.4c1.2,0.2,2.4,0.8,3.2,1.7c0.7,0.8,1.1,1.8,1.1,2.8c0,0.6-0.1,1.2-0.3,1.7c-0.2,0.6-0.6,1.1-1,1.5&#10;&#9;&#9;c-0.5,0.5-1.1,0.9-1.8,1.1c-0.8,0.3-1.6,0.4-2.5,0.4s-1.9-0.1-2.8-0.5c-0.7-0.3-1.3-0.7-1.8-1.2c-0.4-0.4-0.8-0.9-1-1.5&#10;&#9;&#9;c-0.2-0.4-0.3-0.9-0.4-1.4L39.9,18.2z"/><path id="Path_5626" class="st0" d="M57.8,8c1,0,2.1,0.2,3,0.6c1.8,0.7,3.3,2.2,4,4c0.4,1,0.6,2,0.6,3.1s-0.2,2.1-0.6,3.1&#10;&#9;&#9;c-0.4,0.9-0.9,1.7-1.6,2.4c-0.7,0.7-1.5,1.2-2.4,1.6c-1.9,0.8-4.1,0.8-6.1,0c-0.9-0.4-1.7-0.9-2.4-1.6c-0.7-0.7-1.2-1.5-1.6-2.4&#10;&#9;&#9;c-0.4-1-0.6-2-0.6-3.1s0.2-2.1,0.6-3.1c0.7-1.8,2.2-3.3,4-4C55.8,8.1,56.8,7.9,57.8,8z M57.8,19.8c0.5,0,0.9-0.1,1.4-0.3&#10;&#9;&#9;c0.4-0.2,0.8-0.4,1.2-0.8c0.4-0.4,0.6-0.8,0.8-1.3c0.4-1.2,0.4-2.4,0-3.6c-0.2-0.5-0.5-0.9-0.8-1.3c-0.3-0.3-0.7-0.6-1.2-0.8&#10;&#9;&#9;c-0.9-0.4-1.9-0.4-2.8,0c-0.4,0.2-0.8,0.4-1.2,0.8c-0.4,0.4-0.6,0.8-0.8,1.3c-0.4,1.2-0.4,2.4,0,3.6c0.2,0.5,0.5,0.9,0.8,1.3&#10;&#9;&#9;c0.3,0.3,0.7,0.6,1.2,0.8S57.4,19.8,57.8,19.8L57.8,19.8z"/><path id="Path_5627" class="st0" d="M76.2,22.9h-3.9L66.4,8.4h4.3l3.6,9.8l3.5-9.8h4.1L76.2,22.9z"/><path id="Path_5628" class="st1" d="M96.7,8.4l3.1,9.4l2.7-9.4h3.9l-4.6,14.5h-3.9L94.5,13l-3.3,9.9h-4L82.6,8.4h4.1l2.7,9.3&#10;&#9;&#9;l3.2-9.3H96.7z"/><path id="Path_5629" class="st1" d="M107.9,19c0-1.2,0.4-2.3,1.3-3c0.4-0.4,0.9-0.7,1.4-0.9c0.5-0.2,1.1-0.4,1.7-0.5l3.6-0.5&#10;&#9;&#9;c0.3,0,0.6-0.1,0.9-0.4c0.2-0.2,0.2-0.4,0.2-0.7c0-0.5-0.2-1-0.6-1.3c-1.2-1-2.9-0.9-4,0.3c-0.4,0.4-0.6,1-0.7,1.5l-3.5-0.7&#10;&#9;&#9;c0.1-0.6,0.2-1.2,0.5-1.7c0.3-0.6,0.7-1.1,1.2-1.5c0.6-0.5,1.2-0.9,1.9-1.1c0.8-0.3,1.7-0.4,2.6-0.4c1,0,2,0.1,2.9,0.5&#10;&#9;&#9;c0.7,0.3,1.4,0.7,2,1.2c0.5,0.5,0.9,1.1,1.1,1.8c0.2,0.7,0.3,1.4,0.3,2.1v7.2c0,0.4,0,0.8,0.1,1.3c0,0.4,0.1,0.8,0.1,1h-3.6&#10;&#9;&#9;c0-0.3-0.1-0.5-0.1-0.8s0-0.7,0-0.9c-0.4,0.6-1,1.1-1.6,1.5c-0.8,0.5-1.7,0.7-2.7,0.7c-0.7,0-1.4-0.1-2.1-0.4&#10;&#9;&#9;c-0.6-0.2-1.1-0.6-1.6-1c-0.4-0.4-0.8-0.9-1-1.4C108,20.1,107.9,19.5,107.9,19z M113.8,20.4c0.4,0,0.8-0.1,1.2-0.2&#10;&#9;&#9;c0.4-0.1,0.7-0.3,1-0.6c0.3-0.3,0.6-0.6,0.7-1c0.2-0.5,0.3-1.1,0.3-1.6v-0.7l-3.3,0.5c-0.5,0.1-0.9,0.3-1.3,0.5&#10;&#9;&#9;c-0.4,0.3-0.6,0.8-0.5,1.3c0,0.4,0.2,0.9,0.5,1.2C112.7,20.3,113.2,20.5,113.8,20.4L113.8,20.4z"/><path id="Path_5630" class="st1" d="M133.6,12.3c-0.4-0.1-0.8-0.1-1.2-0.1c-0.5,0-1,0.1-1.4,0.2s-0.8,0.4-1.2,0.7&#10;&#9;&#9;c-0.4,0.4-0.6,0.8-0.8,1.3c-0.2,0.6-0.3,1.3-0.3,2v6.7h-3.9V8.6h3.8v2.2c0.2-0.4,0.5-0.8,0.8-1.2c0.3-0.3,0.7-0.5,1.1-0.7&#10;&#9;&#9;s0.8-0.3,1.2-0.3c0.3-0.1,0.7-0.1,1.1-0.1c0.2,0,0.3,0,0.5,0s0.3,0,0.5,0L133.6,12.3z"/><path id="Path_5631" class="st1" d="M149.3,18.8c-0.2,0.6-0.5,1.2-0.8,1.8c-0.4,0.6-0.9,1.1-1.4,1.5c-0.6,0.4-1.2,0.8-1.9,1&#10;&#9;&#9;c-0.8,0.3-1.6,0.4-2.4,0.4c-1,0-2-0.2-2.9-0.5s-1.7-0.9-2.4-1.5c-0.7-0.7-1.3-1.5-1.6-2.5c-0.4-1-0.6-2.2-0.6-3.3&#10;&#9;&#9;c0-1.1,0.2-2.2,0.6-3.2c0.4-0.9,0.9-1.7,1.6-2.4c0.7-0.7,1.4-1.2,2.3-1.5c2.7-1.1,5.8-0.5,8,1.5c1.3,1.5,2,3.5,1.9,5.5&#10;&#9;&#9;c0,0.3,0,0.5,0,0.8c0,0.2,0,0.4,0,0.4h-10.4c0,0.5,0.1,0.9,0.3,1.3c0.2,0.4,0.5,0.8,0.8,1c0.3,0.3,0.7,0.5,1.1,0.7s0.9,0.3,1.4,0.3&#10;&#9;&#9;c0.8,0,1.5-0.2,2.2-0.6c0.5-0.4,0.9-1,1.1-1.6L149.3,18.8z M145.6,14c0-0.4-0.1-0.7-0.2-1s-0.3-0.7-0.6-0.9c-0.3-0.3-0.6-0.5-1-0.7&#10;&#9;&#9;c-0.5-0.2-0.9-0.3-1.4-0.3s-0.9,0.1-1.4,0.3c-0.4,0.2-0.7,0.4-1,0.7c-0.3,0.3-0.5,0.6-0.6,0.9s-0.2,0.7-0.3,1H145.6z"/><path id="Path_5632" class="st0" d="M12.7,0L12.7,0c-4.6,0-8.9,2-12,5.4c3.8,0,7.6,0,11.4,0c1.5,0,2.8,1.2,2.9,2.8l0,0&#10;&#9;&#9;c0,1.6-1.2,2.9-2.8,3h-0.1h-1.6c-3.3,0-3.7,0-7,0c-1.3-0.1-2.5,0.7-3.1,1.9c-0.6,1.1-0.4,2.4,0.4,3.4c0.7,0.9,1.8,1.4,2.9,1.3&#10;&#9;&#9;c4,0,5.1,0,9.2,0c3.3-0.1,6.4,1.8,7.9,4.7c1.2,2.1,1.5,4.6,0.7,6.9c4.5-2.9,7.3-8,7.3-13.4l0,0C28.7,7.1,21.5,0,12.7,0z"/><path class="st1" d="M12.7,30H3.2C1.4,30,0,28.6,0,26.8l0,0c0-1.8,1.4-3.2,3.2-3.2h9.4c1.8,0,3.2,1.4,3.2,3.2l0,0&#10;&#9;&#9;C15.9,28.6,14.4,30,12.7,30z"/></g></svg>