<svg width="150" height="165" viewBox="0 0 150 165" fill="none" xmlns="http://www.w3.org/2000/svg">
<mask id="mask0_112_1131" style="mask-type:alpha" maskUnits="userSpaceOnUse" x="0" y="0" width="150" height="165">
<rect width="150" height="165" fill="#D9D9D9"/>
</mask>
<g mask="url(#mask0_112_1131)">
<g clip-path="url(#clip0_112_1131)">
<path d="M83.6424 141.386C83.4563 140.831 83.3739 139.947 84.0386 138.881C85.2675 136.911 89.4777 134.051 91.7211 134.051C93.0284 134.051 93.8667 134.848 94.4508 135.543C96.0494 137.444 96.6379 140.112 94.9749 141.921C93.6445 143.368 90.9888 143.882 89.1183 143.882C87.0408 143.882 84.3034 143.356 83.642 141.386L83.6424 141.386Z" fill="white"/>
<path d="M93.6147 136.246C92.6719 135.125 91.898 134.907 90.597 135.375C88.0924 136.277 85.6692 138.331 84.9651 139.46C84.1772 140.722 84.7249 141.775 86.1153 142.306C86.9036 142.607 88.0439 142.768 88.9201 142.788C90.5863 142.826 93.0666 142.384 94.1712 141.183C95.4358 139.807 94.8528 137.718 93.6151 136.246L93.6147 136.246ZM94.3908 140.604C93.9844 141.333 93.2244 141.772 92.4638 142.053C90.7894 142.672 88.735 142.825 86.7837 142.34C84.5841 141.794 84.1964 140.462 85.5618 138.95C86.5825 137.818 88.1586 136.63 89.9264 135.829C91.1241 135.286 92.0694 134.989 93.0269 135.866C94.3088 137.054 95.2394 139.083 94.3908 140.604Z" fill="black"/>
<path d="M86.3062 138.109C87.5624 139.211 88.2112 140.892 87.9225 142.622C87.9052 142.725 88.063 142.769 88.0807 142.665C88.3639 140.97 87.7923 139.194 86.4221 137.993C86.343 137.924 86.2268 138.039 86.3062 138.109Z" fill="black"/>
<path d="M89.2276 136.105C91.0708 137.608 91.955 139.999 91.4338 142.404C91.4114 142.506 91.5696 142.55 91.592 142.447C92.122 140.002 91.2488 137.542 89.3438 135.989C89.2629 135.923 89.1463 136.038 89.2279 136.105L89.2276 136.105Z" fill="black"/>
<path d="M13.8635 61.2431C13.2091 60.6016 12.4558 59.4959 12.1056 58.7973C11.4752 57.5397 11.1905 55.7281 13.414 54.2381C15.3698 52.9275 17.8887 52.3709 20.277 52.7336C20.7861 52.8109 21.3746 52.9212 21.9198 53.2541C22.6484 53.6996 23.0865 54.4705 23.063 55.2669C23.0435 55.9069 22.8305 56.452 22.565 57.0064C21.4166 59.4032 19.5789 62.5382 16.9331 62.589C15.7803 62.611 14.6981 62.0608 13.8635 61.2431Z" fill="white"/>
<path d="M21.3504 54.1863C20.9796 53.9598 20.5367 53.8777 20.113 53.8134C17.92 53.4801 15.6861 54.03 14.0221 55.1453C12.6743 56.0483 12.4433 57.0334 13.0822 58.3075C13.382 58.906 14.0706 59.9161 14.6282 60.4627C15.2344 61.0567 16.0418 61.5132 16.9121 61.4966C19.0036 61.4565 20.6754 58.4216 21.5799 56.5342C21.7874 56.1009 21.9488 55.7143 21.9713 55.2343C21.9845 54.7944 21.7171 54.41 21.3504 54.1863ZM21.4151 56.5C20.6537 58.0857 19.2192 60.7014 17.5352 61.2292C16.7425 61.4779 15.9138 61.2384 15.2506 60.7731C14.5587 60.2876 14.0563 59.5762 13.6027 58.8755C13.1584 58.1891 12.6979 57.335 13.0068 56.5026C13.2739 55.7835 13.9985 55.3185 14.6374 54.9617C16.5215 53.9094 18.7586 53.6456 20.575 54.0653C20.9708 54.1565 21.3824 54.3125 21.6259 54.6561C21.7495 54.8304 21.8138 55.0199 21.8072 55.2339C21.7863 55.6853 21.6079 56.098 21.4151 56.4996V56.5Z" fill="black"/>
<path d="M18.052 53.8245C18.1135 55.6633 19.2298 57.1733 20.8483 57.8321C20.9458 57.8718 20.9884 57.7132 20.8917 57.6739C19.3902 57.0626 18.2753 55.6081 18.2157 53.8242C18.212 53.719 18.0484 53.7186 18.052 53.8242V53.8245Z" fill="black"/>
<path d="M14.9714 54.677C15.4375 57.1161 16.9599 59.3985 19.3748 60.0069C19.477 60.0327 19.5208 59.8749 19.4182 59.8488C17.0754 59.2584 15.5901 57.0462 15.1292 54.6333C15.1094 54.5299 14.9516 54.5737 14.9711 54.6767L14.9714 54.677Z" fill="black"/>
<path d="M119.997 118.427L119.766 116.899L118.735 116.807C118.244 116.763 117.828 116.415 117.701 115.941C117.574 115.467 117.759 114.958 118.162 114.674L119.521 113.715C119.426 113.027 119.348 112.337 119.289 111.657C119.194 110.564 120.546 109.958 121.304 110.748C121.429 110.877 121.552 111.009 121.675 111.143L122.209 110.183C122.767 109.18 124.282 109.5 124.403 110.64C124.43 110.896 124.459 111.154 124.489 111.412L125.067 111.101C126.065 110.561 127.153 111.605 126.693 112.623C126.537 112.969 126.396 113.281 126.23 113.647L126.668 113.841C127.665 114.283 127.548 115.728 126.518 116.036C126.076 116.169 125.625 116.293 125.17 116.408L125.217 117.432C125.266 118.491 123.995 119.045 123.24 118.337L122.751 117.879C122.551 118.201 122.356 118.523 122.165 118.843C121.61 119.773 120.162 119.518 119.997 118.427Z" fill="white"/>
<path d="M126.225 114.84C125.744 114.627 125.264 114.413 124.783 114.2C125.084 113.523 125.393 112.849 125.698 112.174C125.731 112.101 125.662 112.02 125.586 112.061C124.929 112.416 124.272 112.771 123.615 113.125C123.5 112.337 123.4 111.547 123.316 110.755C123.308 110.679 123.207 110.636 123.164 110.714C122.732 111.491 122.299 112.267 121.867 113.044C121.44 112.511 120.99 111.997 120.517 111.504C120.471 111.456 120.371 111.49 120.377 111.562C120.455 112.451 120.562 113.338 120.699 114.22C120.063 114.669 119.428 115.117 118.792 115.566C118.724 115.614 118.751 115.711 118.833 115.718C119.461 115.775 120.089 115.831 120.718 115.888C120.838 116.68 120.957 117.471 121.077 118.263C121.088 118.336 121.194 118.338 121.227 118.283C121.65 117.574 122.086 116.873 122.534 116.179C123.018 116.633 123.503 117.086 123.987 117.54C124.036 117.586 124.13 117.556 124.126 117.482C124.097 116.839 124.067 116.197 124.038 115.554C124.767 115.392 125.49 115.204 126.205 114.989C126.267 114.971 126.293 114.87 126.225 114.84ZM122.447 116.011C122.021 116.668 121.606 117.334 121.203 118.006C121.091 117.267 120.979 116.529 120.867 115.791C120.862 115.753 120.821 115.734 120.788 115.731C120.213 115.679 119.637 115.627 119.061 115.575C119.65 115.16 120.239 114.744 120.828 114.329C120.941 114.249 120.786 114.201 120.562 111.792C121.002 112.26 121.423 112.744 121.822 113.247C121.855 113.288 121.927 113.272 121.951 113.23C122.361 112.493 122.771 111.756 123.182 111.018C123.265 111.772 123.361 112.524 123.472 113.275C123.48 113.33 123.551 113.346 123.593 113.324C124.213 112.989 124.833 112.654 125.453 112.32C125.383 112.474 124.606 114.184 124.598 114.22C124.584 114.254 124.59 114.293 124.634 114.313C125.071 114.507 125.508 114.701 125.945 114.894C124.012 115.459 123.864 115.352 123.87 115.49C123.898 116.088 123.926 116.687 123.953 117.285C123.494 116.855 123.035 116.425 122.576 115.995C122.536 115.958 122.476 115.966 122.447 116.012L122.447 116.011Z" fill="black"/>
<path d="M111.955 144.279C111.694 144.174 111.462 144.055 111.236 143.94C110.641 143.637 110.558 143.598 109.777 143.508C109.092 143.43 108.238 143.333 107.254 142.678C106.527 142.194 105.936 141.531 105.543 140.763C105.124 139.943 104.955 139.007 105.025 137.902C105.104 136.666 105.435 134.562 106.128 132.367C107.306 128.638 108.361 127.619 110.858 125.853C111.367 125.493 111.954 125.11 112.615 124.836C112.677 123.394 112.597 122.702 112.56 122.382C112.524 122.07 112.475 121.643 112.811 121.248C112.932 121.105 113.202 120.863 113.655 120.84C114.349 120.805 115.053 120.757 115.773 120.738C116.348 120.722 116.865 121.144 116.958 121.714C117.15 122.893 117.27 124.088 117.315 125.275C118.347 125.989 118.922 127.051 119.519 128.123C121.37 131.446 122.984 134.934 122.648 138.743C122.429 141.225 121.7 142.38 119.648 143.497C117.31 144.77 114.432 145.282 111.955 144.28L111.955 144.279Z" fill="white"/>
<path d="M113.726 125.622C112.902 125.804 112.169 126.264 111.488 126.745C109.191 128.37 108.282 129.176 107.17 132.695C106.548 134.664 106.196 136.691 106.115 137.971C106.065 138.764 106.151 139.551 106.516 140.265C106.825 140.87 107.295 141.392 107.86 141.768C109.168 142.638 110.138 142.236 111.241 142.727C111.622 142.896 111.979 143.11 112.365 143.266C114.522 144.139 117.072 143.655 119.127 142.536C120.796 141.628 121.369 140.821 121.561 138.646C121.876 135.073 120.275 131.722 118.566 128.654C117.957 127.562 117.361 126.413 116.201 125.894C116.106 125.851 116.022 125.992 116.118 126.035C117.326 126.575 117.985 127.869 119.076 129.933C120.688 132.987 122.012 136.503 121.205 139.859C121.111 140.252 120.975 140.639 120.757 140.982C119.862 142.395 116.336 144.018 113.438 143.418C112.326 143.188 111.874 142.817 111.247 142.551C110.478 142.227 109.625 142.314 108.839 142.061C107.559 141.651 106.549 140.5 106.323 139.174C106.174 138.299 106.317 137.382 106.45 136.513C106.717 134.76 107.174 133.034 107.765 131.474C108.494 129.548 109.192 128.673 110.601 127.598C111.542 126.88 112.656 126.025 113.769 125.779C113.872 125.756 113.829 125.598 113.726 125.621L113.726 125.622Z" fill="black"/>
<path d="M115.881 121.89C115.876 121.856 115.835 121.829 115.802 121.83C115.104 121.848 114.406 121.895 113.709 121.93C113.417 121.945 114.022 122.357 113.529 127.251C113.518 127.356 113.682 127.355 113.692 127.251C113.868 125.51 113.992 123.806 113.8 122.089C114.444 122.056 115.088 122.015 115.732 121.996C116.02 123.787 116.129 125.588 116.06 127.405C116.056 127.511 116.22 127.51 116.224 127.405C116.296 125.505 116.171 123.674 115.881 121.89Z" fill="black"/>
<path d="M112.951 127.435C113.623 127.086 114.384 127.646 115.133 127.686C115.743 127.719 116.26 127.296 116.745 127.514C116.84 127.557 116.923 127.416 116.827 127.372C116.278 127.125 115.764 127.508 115.259 127.524C114.472 127.548 113.659 126.884 112.868 127.294C112.774 127.342 112.857 127.483 112.951 127.435V127.435Z" fill="black"/>
<path d="M114.214 121.983C114.409 123.754 114.391 125.567 114.145 127.367C114.127 127.496 114.291 127.496 114.303 127.411C114.561 125.523 114.568 123.715 114.378 121.983C114.367 121.879 114.203 121.878 114.214 121.983L114.214 121.983Z" fill="black"/>
<path d="M115.199 121.933C115.382 123.825 115.4 125.71 115.254 127.6C115.246 127.705 115.41 127.705 115.418 127.6C115.564 125.705 115.545 123.82 115.363 121.933C115.353 121.829 115.189 121.828 115.199 121.933Z" fill="black"/>
<path d="M117.799 133.138C117.675 133.388 117.373 133.43 117.29 133.128C117.16 132.662 117.529 132.48 117.62 132.54C117.849 132.494 117.911 132.91 117.799 133.138Z" fill="black"/>
<path d="M109.778 132.678C109.655 132.929 109.353 132.969 109.27 132.668C109.139 132.199 109.512 132.018 109.601 132.08C109.843 132.048 109.885 132.463 109.778 132.678V132.678Z" fill="black"/>
<path d="M112.389 133.161C112.388 133.715 112.393 134.309 112.597 134.826C112.659 134.981 112.735 135.137 112.856 135.255C113.096 135.491 113.463 135.486 113.745 135.331C114.299 135.025 114.661 133.941 114.778 133.328C114.798 133.225 114.64 133.181 114.62 133.285C114.516 133.828 114.223 134.727 113.805 135.09C113.591 135.276 113.24 135.367 113.003 135.168C112.791 134.992 112.674 134.587 112.622 134.315C112.55 133.936 112.552 133.546 112.553 133.161C112.553 133.056 112.389 133.056 112.389 133.161V133.161Z" fill="black"/>
<path d="M93.8549 127.783C92.0003 127.783 91.077 128.16 88.3168 126.756C87.3417 126.26 86.4994 125.832 85.8663 125.203C85.2079 124.549 84.7485 123.668 84.5373 122.653C84.1073 120.586 84.7761 118.65 85.4128 117.39C86.25 115.733 87.4322 114.359 88.4783 113.234C89.6885 111.932 90.6926 111.239 92.8551 111.566C92.9155 110.692 92.9695 109.621 93.0162 108.366C93.0401 107.73 93.5547 107.232 94.1878 107.232C94.2525 107.232 94.3677 107.238 94.6428 107.238C95.6797 107.238 96.2175 107.151 96.3952 107.151C97.0297 107.151 97.5535 107.671 97.563 108.31C97.577 109.248 97.584 110.214 97.584 111.192C102.133 111.633 107.024 118.481 103.871 124.093C102.812 125.976 101.161 126.925 99.685 127.605C99.0082 127.917 98.0809 128.344 97.0462 128.344C95.7305 128.344 95.3843 127.783 93.8545 127.783H93.8549Z" fill="white"/>
<path d="M93.9443 112.878C92.5454 112.619 91.3386 112.252 90.1714 113.131C89.8422 113.379 89.5582 113.677 89.2783 113.978C88.1767 115.163 87.121 116.431 86.3875 117.883C85.6864 119.271 85.2848 120.883 85.6066 122.431C85.7607 123.173 86.0936 123.891 86.6354 124.428C87.142 124.931 87.875 125.306 88.8115 125.783C91.3625 127.081 91.9995 126.671 94.0101 126.692C95.3523 126.706 95.8011 127.107 96.6931 127.229C97.5858 127.351 98.4351 126.979 99.2275 126.614C100.792 125.893 102.077 125.054 102.918 123.558C105.683 118.636 101.279 112.893 97.7738 112.318C97.321 112.244 96.8619 112.24 96.4066 112.288C96.3028 112.299 96.3017 112.463 96.4066 112.452C97.8632 112.296 99.2683 112.692 100.918 114.284C104.174 117.428 104.374 121.79 102.119 124.419C101.592 125.034 100.934 125.519 100.232 125.919C99.6556 126.248 98.5731 126.772 97.9047 126.962C96.7906 127.277 96.2072 126.933 95.3362 126.697C94.4622 126.461 93.5661 126.539 92.6727 126.57C91.7053 126.604 91.0653 126.552 90.0901 126.183C89.2978 125.884 88.5375 125.476 87.7996 125.062C87.0474 124.64 86.5233 124.227 86.1271 123.447C85.4323 122.079 85.5794 120.415 86.0774 119.01C86.727 117.179 88.0248 115.57 89.3523 114.137C89.9489 113.494 90.4646 112.948 91.3283 112.788C92.1371 112.638 93.0162 112.873 93.899 113.036C94.002 113.055 94.0462 112.897 93.9424 112.878L93.9443 112.878Z" fill="black"/>
<path d="M96.4709 108.326C96.4702 108.286 96.4338 108.24 96.3889 108.244C95.658 108.317 94.9238 108.344 94.1896 108.325C94.144 108.324 94.1094 108.364 94.1076 108.407C94.0627 109.608 93.9321 112.848 93.6835 114.027C93.6618 114.13 93.8196 114.174 93.8417 114.07C94.08 112.94 94.2246 109.637 94.2683 108.49C94.9492 108.504 95.6304 108.48 96.3083 108.416C96.3367 110.358 96.3356 112.239 96.3076 114.128C96.3061 114.234 96.4698 114.234 96.4713 114.128C96.5 112.18 96.4996 110.261 96.4709 108.326Z" fill="black"/>
<path d="M92.7109 114.095C93.3877 113.864 94.0543 114.285 94.7068 114.41C95.7658 114.614 96.6541 113.888 97.5487 114.185C97.6491 114.218 97.6921 114.059 97.5921 114.026C96.6659 113.719 95.7514 114.424 94.7998 114.261C94.1245 114.146 93.3999 113.687 92.6675 113.937C92.5682 113.97 92.6109 114.129 92.7109 114.095Z" fill="black"/>
<path d="M89.8099 117.684C89.8073 117.594 89.6149 117.487 89.4222 117.586C89.3063 117.645 89.2298 117.766 89.1742 117.88C89.1165 117.997 89.0716 118.153 89.1562 118.27C89.2338 118.378 89.3806 118.405 89.502 118.36C89.6304 118.311 89.7149 118.199 89.7904 118.089C89.875 117.966 89.9246 117.779 89.8099 117.684Z" fill="black"/>
<path d="M99.6589 118.761C99.5843 118.87 99.4989 118.983 99.3705 119.032C99.1355 119.121 98.8534 118.939 99.0428 118.552C99.0983 118.439 99.1749 118.317 99.2907 118.258C99.407 118.198 99.5622 118.201 99.6556 118.301C99.67 118.317 99.6781 118.337 99.6784 118.357C99.7943 118.453 99.7443 118.637 99.6589 118.761Z" fill="black"/>
<path d="M99.5927 122.095C99.1697 122.869 98.2041 123.055 97.6233 122.518C97.4475 122.356 97.3298 122.144 97.2423 121.924C97.2224 121.874 97.1477 121.834 97.1054 121.888C96.7648 122.321 96.333 122.71 95.7882 122.853C95.3163 122.978 94.7693 122.878 94.4342 122.504C94.2268 122.272 94.1462 121.96 94.08 121.663C94.0668 121.604 93.9836 121.583 93.9432 121.627C93.6269 121.971 93.2524 122.344 92.7897 122.473C92.1467 122.653 91.4151 122.408 91.0557 121.707C91.0314 121.66 90.9626 121.655 90.927 121.691C89.8562 122.771 88.5857 122.168 88.5114 121.179C88.5037 121.074 88.3396 121.074 88.3477 121.179C88.4345 122.334 89.8426 122.938 90.9652 121.882C91.4827 122.755 92.5848 122.932 93.3741 122.365C93.5838 122.214 93.7766 122.038 93.9561 121.851C94.0951 122.408 94.3294 122.789 94.8756 122.983C95.5072 123.206 96.3731 123.025 97.1415 122.102C97.2191 122.272 97.3147 122.433 97.4438 122.571C98.0765 123.247 99.24 123.082 99.7343 122.178C99.7851 122.086 99.6435 122.003 99.5927 122.096V122.095Z" fill="black"/>
<path d="M94.794 108.411C94.7748 110.392 94.6457 112.338 94.41 114.275C94.3971 114.38 94.5611 114.379 94.5736 114.275C94.8138 112.305 94.9389 110.359 94.9577 108.411C94.9588 108.306 94.7947 108.306 94.794 108.411Z" fill="black"/>
<path d="M95.5756 108.384C95.5098 110.369 95.4443 112.355 95.3785 114.341C95.3751 114.447 95.5388 114.446 95.5421 114.341C95.608 112.356 95.6734 110.37 95.7393 108.384C95.7426 108.278 95.5789 108.279 95.5756 108.384Z" fill="black"/>
<path d="M40.5074 141.11C39.8921 140.694 39.1376 140.568 38.42 140.45C36.9222 140.204 35.463 140.067 34.0112 140.021C32.2982 133.372 30.3306 126.542 28.0791 119.58C27.8717 118.938 27.6664 118.295 27.278 117.734C26.9848 117.309 26.5725 116.898 26.0351 116.835C24.9919 116.714 24.4383 117.877 24.0013 118.643C22.1578 121.869 20.3878 125.247 18.695 128.836C17.2454 131.911 15.9031 135.035 14.6709 138.202C14.5263 138.573 14.3844 138.945 14.2427 139.317C11.9714 139.433 9.69524 139.976 7.53349 141.014C7.19177 141.179 6.85741 141.36 6.5683 141.609C6.06547 142.042 5.77635 142.74 6.21702 143.326C6.60876 143.848 7.32566 144.037 7.93295 144.161C17.5437 146.12 27.6911 146.222 37.5092 144.403C38.5829 144.203 40.8308 143.936 41.174 142.615C41.3336 142.003 41.0051 141.447 40.5078 141.111L40.5074 141.11ZM40.2695 143.45C39.6478 143.829 38.9298 143.962 38.2258 144.1C28.767 145.955 18.6409 146.07 8.63625 144.133C7.88072 143.987 6.0662 143.749 6.16074 142.59C6.224 141.819 7.12409 141.388 7.73212 141.1C9.37817 140.324 11.1537 139.815 12.9597 139.592C14.2777 139.428 14.3347 139.536 14.3785 139.417C17.0077 132.488 20.1965 125.668 23.9462 119.069C24.5251 118.048 24.7771 117.564 25.1685 117.256C25.6864 116.846 26.3202 116.957 26.7774 117.391C27.5829 118.155 27.822 119.209 29.2709 123.891C30.9 129.155 32.4475 134.606 33.8677 140.122C33.8784 140.162 33.9107 140.182 33.9468 140.182C35.3497 140.225 38.1118 140.443 39.4558 140.825C40.0403 140.991 40.7539 141.292 40.9816 141.909C41.2207 142.557 40.8036 143.124 40.2687 143.45L40.2695 143.45Z" fill="black"/>
<path d="M16.0142 135.108C21.3224 136.947 27.2552 137.031 32.6678 135.273C32.7675 135.24 32.7248 135.082 32.6244 135.115C27.2416 136.863 21.3537 136.785 16.058 134.95C15.9583 134.915 15.9153 135.073 16.0146 135.108H16.0142Z" fill="black"/>
<path d="M14.2777 139.474C21.24 141.699 26.7564 141.547 33.9689 140.18C34.0722 140.16 34.0285 140.002 33.9255 140.021C26.7354 141.384 21.2463 141.529 14.3211 139.316C14.2203 139.284 14.1773 139.442 14.2777 139.474Z" fill="black"/>
<path d="M101.615 103.657C96.9377 99.5198 96.429 94.3234 98.4256 88.4315C99.6703 84.7579 101.771 81.7641 104.669 79.534C106.223 78.3381 107.846 77.6205 109.629 77.2479C109.801 76.6656 110.011 76.1234 110.254 75.6302C111.715 72.6695 114.928 72.8137 116.109 75.7916C116.25 76.1492 116.403 76.6696 116.524 77.1173C123.913 78.3495 128.642 84.3761 128.896 91.1405C128.901 91.1895 128.902 91.2391 128.901 91.288C129.29 105.282 111.088 112.037 101.615 103.658V103.657Z" fill="white"/>
<path d="M116.296 78.1859C113.664 77.7559 110.792 77.988 108.878 78.561C107.589 78.9473 106.4 79.5792 105.335 80.3987C102.652 82.4641 100.668 85.217 99.4599 88.7813C97.6039 94.2583 98.0066 99.0059 102.339 102.838C103.259 103.652 104.295 104.331 105.406 104.855C109.848 106.948 115.291 106.558 119.685 104.323C132.513 97.8001 129.241 80.3016 116.296 78.1859ZM121.12 103.308C114.947 107.307 106.038 107.212 101.127 101.359C98.5893 98.335 98.1516 95.2415 98.9133 91.4528C99.642 87.8297 101.268 84.4129 103.947 81.8256C106.647 79.2187 109.098 78.0972 113.878 78.1322C128.135 78.4327 132.631 95.8503 121.12 103.308H121.12Z" fill="black"/>
<path d="M123.918 91.4046C123.801 88.1132 121.931 84.6567 118.672 82.9345C117.142 82.126 115.446 81.7471 113.674 81.7096C111.265 81.692 109.284 82.0425 107.395 83.4958C105.296 85.1117 103.908 87.1999 103.075 89.6592C101.711 93.6844 102.008 97.1773 105.192 99.9942C111.671 105.725 124.263 101.074 123.917 91.4046H123.918ZM123.548 93.833C121.822 102.203 109.751 105.333 104.334 98.8786C102.483 96.6727 102.157 94.4109 102.716 91.6315C103.248 88.982 104.436 86.4771 106.404 84.5776C108.332 82.7153 110.111 81.8479 113.674 81.874C120.949 82.0274 124.701 88.2412 123.548 93.8334V93.833Z" fill="black"/>
<path d="M110.655 78.2867C110.799 77.6544 110.999 77.0324 111.262 76.4387C111.494 75.9131 111.798 75.3845 112.282 75.0527C113.337 74.3299 114.37 74.9361 114.884 76.1124C115.104 76.6164 115.374 77.6595 115.503 78.1892C115.528 78.2915 115.686 78.2481 115.661 78.1458C115.537 77.6327 115.29 76.6888 115.094 76.1941C114.256 74.0809 112.264 74.0261 111.234 76.1132C110.902 76.7863 110.664 77.5128 110.497 78.2433C110.473 78.3459 110.631 78.3897 110.655 78.2867H110.655Z" fill="black"/>
<path d="M111.814 78.1476C111.896 77.8327 112 77.5212 112.137 77.2254C112.681 76.0491 113.62 76.1326 114.048 77.0511C114.201 77.3788 114.284 77.7437 114.373 78.0932C114.399 78.1954 114.557 78.152 114.531 78.0498C114.444 77.708 114.359 77.3582 114.218 77.0334C113.742 75.9307 112.651 75.9123 112.078 76.9786C111.889 77.3306 111.757 77.7187 111.657 78.1042C111.63 78.2064 111.788 78.2499 111.815 78.1476H111.814Z" fill="black"/>
<path d="M109.288 102.051C109.088 103.369 108.857 104.614 108.596 105.822C108.574 105.925 108.732 105.968 108.754 105.865C109.036 104.562 109.261 103.316 109.446 102.094C109.462 101.991 109.304 101.947 109.288 102.051Z" fill="black"/>
<path d="M112.979 102.372C113.112 103.603 113.246 104.833 113.379 106.064C113.39 106.168 113.554 106.169 113.542 106.064C113.409 104.834 113.276 103.603 113.143 102.372C113.131 102.268 112.967 102.267 112.979 102.372Z" fill="black"/>
<path d="M116.984 101.451C117.629 102.503 118.275 103.556 118.92 104.608C118.975 104.698 119.117 104.616 119.062 104.526C118.417 103.473 117.771 102.421 117.126 101.368C117.071 101.278 116.929 101.36 116.984 101.451Z" fill="black"/>
<path d="M120.681 99.0734C121.704 99.8797 122.641 100.687 123.525 101.509C123.603 101.581 123.718 101.465 123.641 101.393C122.687 100.506 121.745 99.7046 120.797 98.9576C120.715 98.8928 120.598 99.0083 120.681 99.0734Z" fill="black"/>
<path d="M123.057 95.7142C124.334 96.1181 125.549 96.4874 126.74 96.8361C126.841 96.8659 126.884 96.7077 126.783 96.6779C125.498 96.3012 124.283 95.9301 123.101 95.556C123 95.524 122.957 95.6822 123.057 95.7142Z" fill="black"/>
<path d="M127.73 91.3361C127.836 91.3324 127.836 91.1687 127.73 91.1724C126.376 91.2173 125.092 91.2743 123.837 91.342C123.732 91.3475 123.731 91.5116 123.837 91.5057C125.189 91.4329 126.474 91.3777 127.73 91.3361Z" fill="black"/>
<path d="M123.046 87.885C124.226 87.2766 125.361 86.6506 126.485 85.9903C126.575 85.937 126.493 85.7954 126.402 85.8487C125.257 86.5211 124.122 87.1461 122.964 87.7434C122.87 87.7916 122.953 87.9332 123.046 87.885Z" fill="black"/>
<path d="M120.816 84.598C121.736 83.6799 122.657 82.7611 123.578 81.8426C123.652 81.7679 123.536 81.6521 123.462 81.7267C122.541 82.6449 121.621 83.5637 120.7 84.4822C120.625 84.5568 120.741 84.6727 120.816 84.598Z" fill="black"/>
<path d="M117.789 82.623C118.318 81.461 118.848 80.2983 119.377 79.1356C119.421 79.0403 119.279 78.9568 119.236 79.0528C118.706 80.2148 118.177 81.3775 117.647 82.5402C117.604 82.6355 117.745 82.719 117.789 82.623Z" fill="black"/>
<path d="M113.754 78.0502C113.805 79.3237 113.792 80.5603 113.722 81.7948C113.716 81.9 113.879 81.8996 113.885 81.7948C113.958 80.5224 113.967 79.2854 113.918 78.0502C113.914 77.945 113.749 77.9447 113.754 78.0502Z" fill="black"/>
<path d="M108.449 78.781C108.89 80.0117 109.254 81.1991 109.563 82.3706C109.59 82.4725 109.748 82.4291 109.721 82.3272C109.388 81.063 109.016 79.8778 108.607 78.7376C108.572 78.639 108.413 78.6816 108.449 78.781Z" fill="black"/>
<path d="M103.82 81.8373C104.697 82.7366 105.56 83.5915 106.437 84.4342C106.513 84.5074 106.629 84.3915 106.553 84.3183C105.647 83.448 104.785 82.5924 103.936 81.7214C103.862 81.6456 103.746 81.7619 103.82 81.8373Z" fill="black"/>
<path d="M100.839 85.8019C101.924 86.3974 102.989 86.9734 104.069 87.5494C104.162 87.5991 104.244 87.4575 104.151 87.4078C103.059 86.8252 101.995 86.2491 100.922 85.6602C100.83 85.6095 100.747 85.7507 100.839 85.8019Z" fill="black"/>
<path d="M99.0156 90.6941C100.249 90.8508 101.472 91.0825 102.691 91.3297C102.794 91.3507 102.838 91.1929 102.735 91.1716C101.471 90.9152 100.275 90.6901 99.0152 90.5301C98.9108 90.5168 98.9119 90.6809 99.0152 90.6937L99.0156 90.6941Z" fill="black"/>
<path d="M102.44 94.949C102.544 94.9372 102.545 94.7732 102.44 94.7853C101.081 94.9413 99.7825 95.1388 98.5043 95.3771C98.4009 95.3963 98.4447 95.5544 98.5477 95.5353C98.6007 95.5353 100.064 95.2223 102.44 94.9494V94.949Z" fill="black"/>
<path d="M100.101 100.112C101.329 99.5122 102.558 98.9122 103.787 98.3123C103.882 98.266 103.799 98.1247 103.704 98.1707C102.475 98.7703 101.247 99.3702 100.018 99.9701C99.923 100.016 100.006 100.158 100.101 100.112Z" fill="black"/>
<path d="M105.927 100.49C105.189 101.596 104.452 102.701 103.714 103.807C103.655 103.895 103.797 103.977 103.856 103.889C104.593 102.784 105.331 101.678 106.068 100.573C106.127 100.485 105.985 100.403 105.927 100.49Z" fill="black"/>
<path d="M113.313 93.3763C112.427 92.6498 111.014 92.3677 109.854 92.4376C111.363 91.3955 111.913 90.0974 111.817 88.9012C111.638 86.6505 108.912 85.5374 106.546 87.2968C106.513 87.3218 106.496 87.3479 106.509 87.3894C106.653 87.8625 106.828 88.3252 107.034 88.7754C107.051 88.8126 107.113 88.8295 107.146 88.8049C108.935 87.4457 110.908 89.3702 108.494 91.5989C108.082 91.9789 107.604 92.2824 107.09 92.5031C107.056 92.5178 107.046 92.563 107.053 92.5957C107.154 93.0828 107.275 93.565 107.414 94.0424C107.427 94.0866 107.471 94.109 107.515 94.0998C108.239 93.9449 108.985 93.7952 109.729 93.878C110.328 93.9446 110.934 94.1921 111.33 94.66C111.693 95.0885 111.839 95.7503 111.584 96.2682C111.342 96.7629 110.796 97.0005 110.266 97.0116C109.554 97.0263 108.923 96.6316 108.403 96.1817C108.368 96.1516 108.322 96.1505 108.287 96.1817C107.846 96.5786 107.405 96.9755 106.964 97.3724C106.933 97.4004 106.932 97.4607 106.964 97.4883C107.43 97.8874 107.917 98.2872 108.462 98.5745C109.905 99.3355 111.808 99.0939 112.94 98.214C114.332 97.1304 114.798 94.5923 113.314 93.3763H113.313ZM113.059 97.8929C112.205 98.7246 110.411 99.2072 108.861 98.5811C108.243 98.3314 107.665 97.8705 107.146 97.4287C107.546 97.0686 107.945 96.7085 108.346 96.348C108.836 96.7614 109.41 97.1182 110.063 97.1694C110.637 97.2142 111.255 97.02 111.607 96.5448C111.98 96.0416 111.934 95.328 111.63 94.8038C111.303 94.24 110.685 93.9012 110.063 93.7677C109.231 93.5889 108.371 93.7504 107.551 93.9247C107.427 93.494 107.318 93.0592 107.225 92.6208C107.695 92.4126 108.132 92.1352 108.518 91.7964C111.17 89.4695 109.094 87.2269 107.138 88.6084C106.963 88.2145 106.811 87.811 106.684 87.399C108.949 85.7585 111.317 86.8311 111.626 88.6761C111.834 89.9161 111.273 91.3668 109.501 92.4744C109.437 92.5137 109.456 92.6366 109.542 92.627C111.101 92.4552 113.214 92.9029 113.844 94.3312C114.306 95.3777 114.033 96.9439 113.059 97.8925V97.8929Z" fill="black"/>
<path d="M118.646 85.4951C118.641 85.4138 118.532 85.3796 118.491 85.4528C117.324 86.6836 115.932 87.6845 114.37 88.4028C114.336 88.4183 114.324 88.4624 114.332 88.4955C114.441 88.973 114.55 89.4501 114.658 89.9275C114.67 89.9794 114.735 90.0022 114.779 89.9764C115.548 89.5269 116.301 89.0499 117.037 88.5489C116.841 91.8969 116.394 95.1636 115.919 98.4965C115.912 98.5458 115.94 98.6032 115.998 98.6003C116.666 98.5672 117.331 98.4976 117.992 98.3932C118.028 98.3873 118.05 98.3472 118.052 98.3141C118.591 89.7587 118.774 87.4417 118.646 85.4951ZM117.893 98.2435C117.296 98.3362 116.695 98.3983 116.093 98.4311C116.462 95.8371 116.82 93.2362 117.049 90.6264C117.114 89.8812 117.169 89.1352 117.211 88.3885C117.214 88.3289 117.138 88.2833 117.088 88.3179C116.34 88.831 115.574 89.3173 114.792 89.7774C114.697 89.3581 114.601 88.9388 114.505 88.5194C115.983 87.8327 117.338 86.876 118.493 85.6868C118.597 87.5943 118.423 89.8146 117.893 98.2438V98.2435Z" fill="black"/>
<path d="M18.1933 95.437C17.5062 95.1722 16.602 94.5458 16.1967 93.0645C15.6464 91.0547 16.3982 89.4506 16.1463 88.0171C15.948 86.8882 15.0229 86.7341 13.8742 86.4939C12.7056 86.2497 11.2508 85.9455 10.3261 84.5621C9.15416 82.809 9.37449 80.4387 10.9153 78.2218C12.1336 76.4694 13.8216 74.9146 15.7965 73.7257C18.471 72.1194 20.3546 70.3134 22.299 67.4917C25.5562 62.7647 25.6614 59.2574 28.7353 56.4398C32.2077 53.257 36.6139 54.0386 39.2094 57.9465C41.7746 61.8091 40.8175 66.7097 40.9757 71.0766C41.2354 78.2427 43.2037 80.9639 42.1708 84.7589C41.8842 85.8116 41.4108 86.715 40.7631 87.4437C39.0534 89.3674 36.8707 89.082 35.6465 90.0906C34.07 91.3898 33.178 94.3019 30.5892 95.3256C28.0412 96.3331 26.5372 94.6819 25.2715 94.1956C24.1819 93.777 23.2763 94.2324 22.1758 94.7852C20.9803 95.3859 19.6878 96.0131 18.1929 95.437H18.1933Z" fill="white"/>
<path d="M39.8844 71.1161C39.7258 66.7459 40.6417 62.077 38.2997 58.5506C36.1071 55.249 32.4906 54.4794 29.4736 57.2448C26.6317 59.8494 26.5118 63.303 23.1987 68.1113C21.1021 71.154 19.0606 73.0395 16.36 74.6613C14.5974 75.7221 12.9899 77.1508 11.8125 78.8447C10.7925 80.3119 10.1514 82.3347 11.2343 83.9546C12.2406 85.4598 14.1604 85.231 15.6552 85.85C16.5163 86.2065 17.0611 86.912 17.2218 87.8275C17.3804 88.729 17.2307 89.6604 17.1295 90.5597C16.9794 91.892 17.1152 93.8504 18.5858 94.4172C20.8604 95.2938 22.7595 92.0598 25.6632 93.1754C27.122 93.7356 28.184 95.1017 30.1876 94.3094C32.3993 93.4347 33.2019 90.6892 34.9517 89.247C36.4396 88.0206 38.4737 88.3745 39.9465 86.7174C40.5133 86.0792 40.8937 85.2913 41.1166 84.4714C42.0571 81.0152 40.1459 78.3499 39.8836 71.1158L39.8844 71.1161ZM39.7939 86.6434C38.3744 88.2008 36.4205 87.8786 34.9116 89.0711C33.6746 90.0488 32.9702 91.533 31.9737 92.7252C31.1277 93.7375 29.8709 94.6232 28.4827 94.3333C27.4785 94.1237 26.6806 93.4009 25.7394 93.0308C22.8493 91.8942 20.9991 94.8987 18.844 94.3293C18.0818 94.1277 17.629 93.4789 17.4208 92.752C16.9496 91.1067 17.671 89.4423 17.3796 87.7848C17.2384 86.9815 16.8032 86.2837 16.0852 85.878C14.7055 85.0989 12.7148 85.4086 11.5988 84.1613C10.9996 83.4915 10.7719 82.5425 10.8447 81.6612C11.0617 79.0315 14.185 76.1617 16.442 74.8033C18.1918 73.7524 19.8165 72.4815 21.1764 70.9539C25.1549 66.4848 25.899 63.1342 27.5061 60.1507C30.0577 55.413 33.7441 54.8256 36.3881 56.7538C37.8168 57.7955 38.8018 59.3944 39.2682 61.0839C40.4872 65.5008 38.8419 69.5212 40.5155 77.871C40.7425 79.0032 41.0099 80.131 41.1342 81.2808C41.3351 83.1398 41.1063 85.203 39.7935 86.6434H39.7939Z" fill="black"/>
<path d="M31.841 58.7834C31.8358 58.6936 31.6519 58.5973 31.4728 58.6889C31.3646 58.7444 31.2925 58.8581 31.2407 58.964C31.0593 59.3337 31.3359 59.4988 31.5507 59.4179C31.7571 59.3399 32.0282 58.9438 31.8406 58.7834H31.841Z" fill="black"/>
<path d="M36.952 60.4298C36.8369 60.4736 36.6982 60.4468 36.6242 60.3441C36.4911 60.1584 36.7022 59.7887 36.8733 59.7012C37.0528 59.6088 37.2348 59.7045 37.2415 59.7957C37.4287 59.9579 37.1561 60.3526 36.952 60.4298Z" fill="black"/>
<path d="M33.4609 59.4754C33.3844 59.9495 33.3119 60.4008 33.3884 60.8639C33.4101 60.9949 33.4436 61.1325 33.5205 61.2428C33.6647 61.4503 33.9255 61.4793 34.1432 61.3763C34.5662 61.1759 34.941 60.3184 35.0874 59.8737C35.1206 59.7733 34.9624 59.7303 34.9293 59.8303C34.8013 60.2188 34.5122 60.8713 34.2028 61.1409C34.0571 61.2678 33.8089 61.3476 33.6683 61.1685C33.5974 61.078 33.5705 60.9566 33.5506 60.8455C33.4749 60.4214 33.5517 59.9344 33.6191 59.5188C33.6356 59.4158 33.4778 59.3713 33.4609 59.4754Z" fill="black"/>
<path d="M92.0569 78.2173C91.1613 78.2173 90.583 77.2503 91.0314 76.4624C91.994 74.7718 91.1642 72.4916 90.5028 70.6937C90.1255 69.6678 89.7348 68.607 89.545 67.4542C89.0164 64.243 90.5801 62.3376 90.4826 60.1597C90.4017 58.3489 89.1238 56.2379 89.2364 53.8966C89.0955 53.8705 88.9557 53.8411 88.8171 53.8083C88.194 53.6616 87.8096 53.0517 87.9416 52.4205L88.3503 50.4717C86.6027 49.1564 85.0909 47.7398 83.8374 46.2442C83.5085 46.65 83.1484 47.0292 82.7585 47.3801L83.0929 48.4888C83.2665 49.0655 82.9737 49.6776 82.4113 49.9126C82.2424 49.9833 82.0707 50.048 81.8963 50.1065C82.0449 52.4665 80.5817 54.5812 80.2591 56.3548C79.7699 59.0459 81.9813 61.627 82.9707 64.5071C83.78 66.8627 83.8094 69.4751 83.0535 71.8634C82.8983 72.3537 82.4484 72.6829 81.9346 72.6829C81.1437 72.6829 80.5717 71.9222 80.813 71.1605C81.4891 69.0252 81.3887 66.7796 80.5228 64.6664C79.4418 62.0283 77.1373 59.1154 78.0602 55.4235C78.4828 53.7326 79.526 52.0339 79.5573 50.5243C79.2178 50.5339 78.8628 50.5221 78.502 50.4842C77.8972 50.4206 77.4419 49.9185 77.4419 49.316V48.2886C71.7714 45.6428 67.4085 40.8544 66.4098 34.8179C64.9981 26.2868 71.1935 19.544 78.0153 19.544C81.6469 19.544 84.9254 21.5347 86.7072 24.2604C90.7563 22.5731 95.4976 23.1414 98.6606 25.7501C100.67 21.6528 104.751 19 109.271 19C116.167 19 122.316 25.4418 119.545 34.1242C117.874 39.3636 113.76 42.8694 109.061 45.7271C109.073 46.1652 109.089 46.6021 109.107 47.0321C109.132 47.603 108.729 48.1183 108.168 48.2294C107.704 48.3218 107.207 48.3582 106.694 48.324C105.8 49.8516 105.631 51.6896 106.256 53.3548C106.773 54.7305 107.72 56.1669 107.421 58.2426C107.171 59.9721 106.511 60.6901 106.954 62.6282C107.4 64.5799 108.961 67.4722 107.679 70.1427C107.275 70.9839 106.12 71.0251 105.632 70.2501C105.416 69.9062 105.392 69.4817 105.568 69.1146C106.479 67.2173 104.805 64.7742 104.499 62.2052C104.239 60.021 105.16 58.699 105.136 57.3623C105.115 56.157 104.18 54.8695 103.78 53.3059C103.302 51.4347 103.533 49.4076 104.388 47.6626C104.191 47.5559 104 47.4371 103.817 47.3065C103.348 46.9722 103.189 46.3733 103.429 45.8496L103.903 44.8159C102.869 44.0255 101.932 43.1265 101.1 42.1282C99.638 45.5468 97.0127 48.5851 93.4319 50.5232L93.8052 52.4275C93.927 53.0506 93.543 53.6531 92.9316 53.8003C92.488 53.9073 92.0352 53.9794 91.5791 54.0165C91.4728 55.9933 93.0291 58.2245 92.8136 60.9064C92.6723 62.6639 91.926 64.2114 91.7976 65.6632C91.603 67.8651 92.964 70.0253 93.5378 72.4714C94.016 74.5088 93.8593 76.2428 93.0722 77.6251C92.8643 77.99 92.4755 78.217 92.0577 78.217L92.0569 78.2173Z" fill="white"/>
<path d="M101.162 32.5518C100.764 30.312 99.8064 28.1459 98.0408 26.6558C93.3705 22.7148 84.7853 23.9062 81.7437 30.3871C79.2086 35.7891 80.6939 43.6298 89.5641 50.0084C89.3799 50.8871 89.1956 51.7659 89.0113 52.645C89.0025 52.6869 89.0234 52.7351 89.0687 52.7458C90.2542 53.0257 91.4916 53.0242 92.6756 52.7388C92.7253 52.7266 92.7415 52.6821 92.733 52.638C92.5557 51.7339 92.3784 50.8301 92.2011 49.926C98.9104 46.6953 102.393 39.4953 101.162 32.5521V32.5518ZM93.4841 49.0465C92.1592 49.8476 92.0003 49.7512 92.0301 49.9017C92.2063 50.8003 92.3825 51.6986 92.5587 52.5972C91.4504 52.8524 90.2965 52.8539 89.1871 52.6038C89.3696 51.7342 89.552 50.8647 89.7341 49.9951C89.7422 49.9565 89.7278 49.9252 89.6966 49.9024C87.7419 48.5017 85.92 46.8939 84.4222 45.0051C81.5035 41.3246 79.9262 36.5611 81.3037 31.9923C83.8241 23.6341 94.6057 22.3864 99.0237 27.8954C102.863 32.6827 102.189 43.7828 93.4841 49.0461V49.0465Z" fill="black"/>
<path d="M90.8604 50.1841C91.2871 50.1797 91.7299 50.1323 92.1287 49.9715C92.2254 49.9325 92.1831 49.774 92.0853 49.8134C91.4121 50.0844 90.3782 50.0679 89.6767 49.8939C89.5744 49.8685 89.5307 50.0263 89.6333 50.0521C89.6351 50.0521 90.1221 50.1915 90.8607 50.1841H90.8604Z" fill="black"/>
<path d="M90.519 52.8479C89.7481 55.3205 91.4684 57.7497 91.574 60.1104C91.684 62.5646 90.1398 64.3427 90.6228 67.2762C90.8924 68.9145 91.6317 70.4167 92.1084 71.9958C92.6149 73.6731 92.8448 75.4847 91.9808 77.0024C91.9286 77.094 92.0702 77.1767 92.1224 77.0851C92.8798 75.7551 92.8128 74.1668 92.4737 72.7212C91.9135 70.3343 90.487 68.0802 90.7088 65.5672C90.8497 63.9727 91.5935 62.4443 91.7241 60.8189C91.9499 58.0075 89.8426 55.5666 90.6768 52.8917C90.7085 52.7909 90.5503 52.7475 90.5187 52.8483L90.519 52.8479Z" fill="black"/>
<path d="M90.6522 24.4272C87.8647 25.7202 85.4878 28.5944 84.7643 32.4041C84.011 36.3711 85.0347 40.4199 86.7425 44.0938C87.7114 46.1783 88.8903 48.1568 90.0872 50.1049C90.1424 50.1946 90.284 50.1122 90.2288 50.0221C88.13 46.605 86.0793 43.0771 85.1682 39.167C83.4361 31.7339 86.5862 26.4926 90.7349 24.5685C90.8306 24.5244 90.7475 24.3827 90.6522 24.4269V24.4272Z" fill="black"/>
<path d="M93.6912 24.7629C96.3076 27.1259 96.5489 31.0602 96.465 34.5884C96.3238 40.5289 94.5707 45.6459 91.4136 50.0139C91.3518 50.0996 91.4938 50.1812 91.5552 50.0966C95.3696 44.819 96.8737 38.8237 96.6092 32.3428C96.4923 29.4785 95.9615 26.5925 93.8075 24.647C93.7295 24.5764 93.6132 24.6919 93.6916 24.7629H93.6912Z" fill="black"/>
<path d="M91.3235 50.0617C90.0784 43.5503 90.3325 36.4114 91.4092 29.8717C91.7101 28.0451 92.1114 26.2677 92.8132 24.5632C92.8533 24.4657 92.6948 24.4234 92.655 24.5198C90.831 28.9499 90.0272 38.223 90.4444 44.4379C90.576 46.4003 90.8155 48.2751 91.1653 50.1054C91.1852 50.2088 91.343 50.165 91.3235 50.062V50.0617Z" fill="black"/>
<path d="M83.7171 36.7712C83.6641 36.2805 83.2764 35.9043 82.7891 35.8494C82.366 35.8105 81.9456 36.0437 81.7643 36.4303C81.5803 36.8224 81.6591 37.2972 81.9669 37.6036C82.2752 37.9104 82.753 37.9869 83.1436 37.7993C83.5258 37.6158 83.7627 37.1928 83.7171 36.7709V36.7712ZM83.1709 37.5963C82.8667 37.7956 82.4606 37.785 82.17 37.5643C81.8809 37.3451 81.7602 36.9596 81.8676 36.6142C81.9905 36.2184 82.3826 35.9764 82.7894 36.0135C83.1462 36.0536 83.4467 36.3181 83.5339 36.666C83.6215 37.0166 83.4736 37.398 83.1712 37.5963H83.1709Z" fill="black"/>
<path d="M82.9196 36.9778C82.86 37.2492 82.5948 37.4265 82.27 37.353C81.8025 37.247 81.7253 36.7273 82.0258 36.4257C82.1715 36.2793 82.3826 36.2333 82.5768 36.3013C82.8446 36.4018 82.9796 36.7052 82.9196 36.9778Z" fill="black"/>
<path d="M99.7185 36.7712C99.6656 36.2805 99.2779 35.9043 98.7905 35.8494C98.3675 35.8105 97.947 36.0437 97.7657 36.4303C97.5818 36.8224 97.6605 37.2972 97.9684 37.6036C98.2766 37.9104 98.7544 37.9869 99.1451 37.7993C99.5272 37.6158 99.7641 37.1928 99.7185 36.7709V36.7712ZM99.1723 37.5963C98.8681 37.7956 98.462 37.785 98.1714 37.5643C97.8823 37.3451 97.7617 36.9596 97.8691 36.6142C97.9919 36.2184 98.384 35.9764 98.7908 36.0135C99.1476 36.0536 99.4482 36.3181 99.5353 36.666C99.6229 37.0166 99.475 37.398 99.1727 37.5963H99.1723Z" fill="black"/>
<path d="M98.9211 36.9778C98.7971 37.5439 97.9382 37.4589 97.8569 36.944C97.7922 36.5342 98.1666 36.1572 98.5782 36.3014C98.846 36.4018 98.981 36.7053 98.9211 36.9778Z" fill="black"/>
<path d="M96.7957 40.4408C96.7825 42.5415 94.6733 43.2201 93.8766 41.7069C93.8501 41.6565 93.76 41.6506 93.735 41.7069C93.5286 42.1762 93.2373 42.6507 92.7566 42.8762C92.0643 43.2003 91.084 42.8494 90.6963 41.9015C90.6688 41.8338 90.5904 41.8224 90.5466 41.882C90.2652 42.2638 89.8926 42.5525 89.4306 42.6757C88.717 42.8659 88.0218 42.6349 87.7629 41.9147C87.7434 41.8603 87.6702 41.8294 87.626 41.8786C87.1644 42.3892 86.5089 42.7486 85.8034 42.6371C84.896 42.4937 84.2821 41.6848 84.7467 40.2363C84.779 40.1355 84.6209 40.0925 84.5885 40.1929C83.7837 42.7019 86.1786 43.595 87.6562 42.0843C88.0777 43.0167 89.1978 43.1002 90.0192 42.6025C90.2443 42.4661 90.4344 42.2836 90.5989 42.0799C91.1407 43.1863 92.5024 43.5729 93.3646 42.6195C93.5507 42.4135 93.6945 42.1748 93.8141 41.925C94.7484 43.3908 96.9451 42.6515 96.9594 40.4412C96.9602 40.3356 96.7961 40.3356 96.7957 40.4412V40.4408Z" fill="black"/>
<path d="M115.255 22.0889C109.561 17.8379 101.282 20.6635 99.0031 27.8172C98.9711 27.9179 99.1292 27.961 99.1612 27.8606C101.252 21.2984 108.643 18.2524 114.324 21.6618C120.095 25.125 120.135 32.3992 116.325 37.7986C114.179 40.8403 111.023 43.105 107.828 45.0015C107.804 45.0163 107.787 45.0435 107.788 45.0722C107.801 45.7184 107.822 46.3644 107.849 47.0099C106.724 47.2159 105.538 46.9643 104.595 46.3165C104.878 45.7008 105.16 45.0854 105.443 44.4697C105.463 44.4274 105.453 44.3843 105.414 44.3575C103.605 43.1319 102.027 41.5285 100.801 39.5885C100.745 39.4995 100.604 39.5819 100.66 39.6713C101.853 41.5601 103.406 43.1811 105.269 44.4564C104.987 45.0725 104.704 45.6883 104.421 46.3044C104.401 46.3474 104.411 46.3886 104.45 46.4166C105.457 47.1339 106.746 47.3976 107.956 47.1574C107.99 47.1508 108.017 47.1122 108.016 47.0783C107.988 46.4251 107.967 45.7714 107.954 45.1178C110.893 43.3695 113.706 41.3688 115.829 38.7252C120.023 33.5042 120.621 26.095 115.255 22.0885L115.255 22.0889Z" fill="black"/>
<path d="M105.318 44.4915C106.123 44.9947 106.92 45.0807 107.87 45.1547C107.975 45.1628 107.974 44.9991 107.87 44.991C106.95 44.9193 106.178 44.8365 105.401 44.3502C105.311 44.2943 105.229 44.4359 105.318 44.4918V44.4915Z" fill="black"/>
<path d="M102.291 28.7634C102.09 28.8564 101.934 29.0437 101.927 29.2772C101.912 29.7451 102.488 30.1067 102.882 29.8194C103.047 29.6991 103.151 29.5068 103.163 29.303C103.188 28.8417 102.659 28.5408 102.291 28.7634ZM102.657 29.2522C102.639 29.257 102.623 29.2684 102.612 29.2886C102.571 29.3571 102.422 29.3298 102.409 29.2445C102.39 29.1121 102.678 29.0507 102.657 29.2526L102.657 29.2522ZM102.831 29.6506C102.664 29.8054 102.415 29.7959 102.236 29.6179C102.511 29.7996 102.891 29.6705 102.95 29.3821C102.985 29.2118 102.918 29.0216 102.78 28.9135C102.781 28.9135 102.783 28.9138 102.784 28.9142C103.067 29.0746 103.05 29.4468 102.831 29.6506H102.831Z" fill="black"/>
<path d="M115.322 30.7901C115.145 30.6893 114.922 30.6775 114.748 30.7827C114.548 30.8758 114.392 31.063 114.384 31.2966C114.369 31.7645 114.946 32.126 115.339 31.8388C115.694 31.5798 115.738 31.0266 115.322 30.7897L115.322 30.7901ZM115.114 31.2719C115.096 31.2767 115.08 31.2881 115.069 31.3083C115.028 31.3768 114.879 31.3495 114.866 31.2642C114.847 31.1318 115.135 31.0704 115.115 31.2723L115.114 31.2719ZM115.288 31.6703C115.121 31.8252 114.871 31.8156 114.693 31.6376C114.968 31.8193 115.348 31.6902 115.407 31.4018C115.442 31.2315 115.375 31.0413 115.238 30.9332C115.239 30.9332 115.24 30.9335 115.241 30.9339C115.524 31.0939 115.508 31.4665 115.288 31.6703Z" fill="black"/>
<path d="M103.189 32.5567C104.514 35.3312 107.919 36.9493 111.179 35.5736C112.005 35.2249 112.763 34.7037 113.376 34.0195C113.447 33.9412 113.331 33.8249 113.261 33.9037C112.735 34.4892 112.095 34.9619 111.386 35.3022C108.275 36.7959 104.73 35.4033 103.331 32.4743C103.286 32.379 103.144 32.4621 103.189 32.557V32.5567Z" fill="black"/>
<path d="M104.409 33.3308C104.537 33.3142 104.495 33.1557 104.409 33.1671C103.896 33.2337 103.384 33.3006 102.871 33.3672C102.743 33.3837 102.785 33.5423 102.871 33.5309C102.877 33.5309 102.789 33.5415 104.409 33.3308Z" fill="black"/>
<path d="M105.453 34.0175C105.195 34.5799 104.936 35.1423 104.677 35.7047C104.633 35.8 104.775 35.8831 104.819 35.7875C105.077 35.2251 105.336 34.6626 105.595 34.1002C105.639 34.005 105.498 33.9218 105.453 34.0175Z" fill="black"/>
<path d="M107.728 35.0357C107.403 35.5492 107.077 36.0627 106.75 36.5762C106.694 36.6655 106.835 36.7476 106.892 36.6589C107.218 36.1454 107.544 35.6319 107.87 35.1184C107.927 35.0291 107.785 34.947 107.728 35.0357Z" fill="black"/>
<path d="M109.911 35.0747C110.11 35.5426 110.308 36.0108 110.507 36.4787C110.54 36.5585 110.699 36.5158 110.648 36.3959C110.45 35.928 110.251 35.4598 110.053 34.9919C110.019 34.9121 109.86 34.9548 109.911 35.0747Z" fill="black"/>
<path d="M112.024 34.4065C112.429 34.6691 112.835 34.9314 113.24 35.194C113.329 35.2514 113.411 35.1098 113.323 35.0524C112.918 34.7898 112.512 34.5275 112.107 34.2649C112.018 34.2075 111.936 34.3491 112.024 34.4065Z" fill="black"/>
<path d="M106.052 47.0224C104.782 48.7195 104.316 50.9902 104.838 53.0353C105.217 54.5192 106.201 55.8411 106.228 57.343C106.256 58.9254 105.351 60.126 105.583 62.0763C105.879 64.5569 107.703 67.1899 106.552 69.587C106.507 69.6816 106.648 69.7647 106.694 69.6698C107.758 67.4525 106.346 64.8733 105.889 62.8715C105.379 60.6391 106.109 59.6824 106.339 58.0864C106.589 56.3565 105.77 55.1658 105.233 53.7386C104.365 51.4268 104.831 48.9263 106.193 47.1055C106.256 47.0209 106.114 46.9392 106.051 47.0227L106.052 47.0224Z" fill="black"/>
<path d="M86.3 25.7453C85.6427 24.4064 84.6271 23.2646 83.4151 22.4017C79.5345 19.6378 74.689 20.2241 71.1519 23.4269C64.379 29.5594 66.3554 42.3187 78.5336 47.5828C78.5336 48.1606 78.5336 48.7389 78.5336 49.3167C78.5336 49.3646 78.5715 49.394 78.6156 49.3988C79.7618 49.519 80.9267 49.3491 81.9905 48.9051C82.0306 48.8886 82.0618 48.8511 82.0479 48.8044C81.8669 48.2044 81.6863 47.6045 81.5053 47.0049C82.4547 46.2718 83.2481 45.3559 83.8366 44.3105C83.8885 44.2186 83.7469 44.1358 83.695 44.2278C83.1098 45.2669 82.3193 46.1828 81.3692 46.9049C81.3405 46.9269 81.3203 46.9597 81.3317 46.9976C81.5108 47.5912 81.6896 48.1849 81.8687 48.7786C80.8634 49.1836 79.7769 49.3425 78.6976 49.2424C78.6976 48.6716 78.6976 48.1007 78.6976 47.5302C78.6976 47.5041 78.6826 47.4706 78.6572 47.4596C72.4272 44.7799 67.7785 39.5482 67.4854 32.9482C67.1587 25.5938 72.8175 20.7652 78.0657 20.7947C81.3361 20.813 84.6635 22.7821 86.1591 25.8288C86.2055 25.9233 86.3471 25.8406 86.3007 25.746L86.3 25.7453Z" fill="black"/>
<path d="M81.4516 47.0457C81.5443 46.9957 81.4619 46.8541 81.3688 46.9041C80.5357 47.3532 79.5488 47.4672 78.6152 47.4474C78.5097 47.4452 78.5097 47.6089 78.6152 47.6111C79.6246 47.6111 80.5589 47.5268 81.4516 47.0453V47.0457Z" fill="black"/>
<path d="M80.4713 49.2682C81.172 51.4704 79.6216 53.6789 79.1192 55.6884C78.3088 58.9301 80.4283 61.5568 81.5329 64.2522C82.4933 66.5957 82.6077 69.1087 81.854 71.4901C81.822 71.5909 81.9802 71.6339 82.0122 71.5335C82.6982 69.3666 82.6717 66.9977 81.9379 64.8617C80.9657 62.0316 78.6138 59.299 79.1847 56.1588C79.5871 53.9459 81.3902 51.6157 80.6295 49.2245C80.5975 49.1244 80.4393 49.1671 80.4713 49.2679V49.2682Z" fill="black"/>
<path d="M72.2477 34.1726C74.5242 36.0669 77.8568 35.5302 79.4752 33.1761C79.5352 33.0889 79.3932 33.0069 79.3336 33.0934C77.7152 35.4475 74.4628 35.8039 72.3632 34.0567C72.2826 33.9898 72.166 34.1049 72.2473 34.1726H72.2477Z" fill="black"/>
<path d="M78.5454 34.7558C78.5369 34.563 78.5053 34.3721 78.4755 34.182C78.4685 34.1382 78.414 34.1139 78.3747 34.1246C78.328 34.1374 78.3107 34.1816 78.3173 34.2254C78.3493 34.4291 78.4361 34.9493 78.3467 35.1641C78.2908 35.099 78.1922 35.0909 77.9101 34.5391C77.8619 34.4453 77.7207 34.5281 77.7685 34.6219C78.2842 35.6301 78.5766 35.4723 78.5454 34.7554V34.7558ZM78.3511 35.1692C78.3541 35.1718 78.3537 35.1692 78.3511 35.1692Z" fill="black"/>
<path d="M74.4591 35.0597C74.4106 35.0597 74.3822 35.0976 74.3771 35.1417C74.3587 35.3014 74.291 35.7586 74.1773 35.8965C73.996 35.6596 73.9228 35.2043 73.8702 34.935C73.85 34.8317 73.6922 34.8754 73.712 34.9784C73.7702 35.276 73.8132 35.528 73.9294 35.7899C73.9644 35.8689 74.0056 35.9675 74.0721 36.0256C74.2568 36.1867 74.3819 35.884 74.4253 35.7468C74.4871 35.5519 74.5176 35.344 74.5408 35.1414C74.5459 35.0972 74.4996 35.0593 74.4587 35.0593L74.4591 35.0597Z" fill="black"/>
<path d="M70.6671 31.6352C70.6215 31.1383 70.0289 30.9452 69.7111 31.2254C69.5125 31.3663 69.3874 31.6109 69.457 31.8611C69.5739 32.2826 70.1404 32.4901 70.4681 32.1734C70.6086 32.0376 70.6852 31.8298 70.6671 31.6352ZM70.1168 31.6941C70.0911 31.7632 69.9396 31.7559 69.9131 31.6819C69.866 31.5513 70.147 31.4381 70.158 31.6477C70.1404 31.6565 70.1253 31.6713 70.1168 31.6941ZM69.8104 32.0792C70.0793 32.1951 70.4313 32.0453 70.4667 31.7485C70.4884 31.5664 70.3835 31.3788 70.2243 31.2906C70.2268 31.2906 70.2298 31.2906 70.232 31.2906C70.8058 31.512 70.3857 32.4713 69.8101 32.0792H69.8104Z" fill="black"/>
<path d="M80.9422 29.8242C80.8965 29.3272 80.304 29.1341 79.9862 29.4144C79.7875 29.5553 79.6625 29.7999 79.732 30.05C79.849 30.4716 80.4154 30.679 80.7432 30.3623C80.8837 30.2266 80.9602 30.0188 80.9422 29.8242ZM80.3919 29.883C80.3661 29.9522 80.2146 29.9448 80.1881 29.8709C80.1524 29.7719 80.3161 29.6734 80.3926 29.7436C80.4184 29.7675 80.4312 29.8014 80.4331 29.8367C80.4154 29.8455 80.4003 29.8602 80.3919 29.883ZM80.0855 30.2682C80.3544 30.384 80.7064 30.2343 80.7417 29.9375C80.7634 29.7554 80.6586 29.5678 80.4993 29.4795C80.5019 29.4795 80.5048 29.4795 80.507 29.4795C81.0808 29.701 80.6608 30.6603 80.0855 30.2682Z" fill="black"/>
<path d="M64.9102 107.069C63.5017 106.378 61.7924 106.067 60.2339 105.147C57.9548 103.801 57.4505 101.87 57.0985 99.843C56.7241 97.6867 56.5574 95.404 56.5883 92.8648C56.6472 88.0341 57.6503 80.7837 57.9607 79.1414C58.7427 75.004 60.8066 70.8637 64.9451 70.0063C64.9653 70.0022 64.9856 69.9985 65.0062 69.9952C65.9497 69.8551 66.8928 69.819 67.8245 69.9871C71.6562 70.6787 73.5152 74.8227 75.2396 77.7374C76.2269 79.4062 77.4224 80.7705 78.7922 81.7923C80.5776 83.1243 81.9335 83.5403 83.8094 84.1156C85.8292 84.735 88.0148 85.673 88.9094 87.9315C89.3313 88.996 89.2824 90.1535 88.7715 91.1908C87.9902 92.7773 86.4295 93.688 86.0708 94.9894C85.5029 97.0522 87.1467 99.9931 85.7317 102.573C84.7091 104.436 82.6952 104.89 81.2695 105.07C79.746 105.261 78.2213 105.224 77.0376 105.826C75.0616 106.831 73.8765 110.386 70.7256 110.386C68.128 110.386 66.8821 108.036 64.9098 107.068L64.9102 107.069Z" fill="white"/>
<path d="M87.8946 88.3345C87.1622 86.4861 85.2546 85.7019 83.4898 85.1605C81.4634 84.5388 80.0388 84.0853 78.1396 82.6684C76.5561 81.4869 75.3025 79.9884 74.2998 78.2938C72.7744 75.7156 70.9813 71.6669 67.6307 71.0622C66.8152 70.915 65.9832 70.9544 65.1669 71.0754C61.3768 71.8607 59.6781 75.9382 59.0344 79.3439C58.738 80.9124 57.7386 88.1546 57.6808 92.8779C57.6532 95.1456 57.7867 97.4196 58.1748 99.656C58.5276 101.688 58.9954 103.146 60.7894 104.206C62.2254 105.054 63.9016 105.357 65.3913 106.088C67.1407 106.946 68.061 108.399 69.5088 109.033C70.1875 109.331 70.9504 109.387 71.6522 109.134C73.5848 108.438 74.5518 105.866 76.5421 104.853C77.9487 104.137 79.604 104.178 81.1331 103.986C82.5533 103.808 84.0364 103.392 84.7739 102.048C85.9723 99.8634 84.3626 97.0786 85.0177 94.6998C85.472 93.0508 87.0883 92.1368 87.7916 90.7088C88.1616 89.9577 88.2032 89.1146 87.8938 88.3345H87.8946ZM87.5186 90.8703C86.7116 92.2449 85.2337 93.1409 84.8335 94.7587C84.239 97.1628 85.7552 99.9197 84.6326 101.966C84.2721 102.623 83.6854 103.102 82.9969 103.385C80.9782 104.215 78.5277 103.687 76.5024 104.691C74.5305 105.667 73.4943 108.232 71.689 108.946C70.9732 109.229 70.1889 109.175 69.4967 108.849C68.7235 108.485 68.0901 107.886 67.4526 107.33C65.9423 106.015 65.1901 105.755 63.1873 105.055C59.6881 103.832 58.8792 102.809 58.3197 99.5398C57.3663 93.9653 58.0122 88.2289 58.7096 82.6882C58.9745 80.5846 59.2305 78.4471 59.9882 76.4528C60.9299 73.975 62.5917 71.7765 65.21 71.234C66.8542 70.9897 68.3134 71.1299 69.6637 72.1186C72.5434 74.2274 73.4965 78.1794 76.0408 80.9826C77.2701 82.337 78.7683 83.4504 80.4206 84.235C82.4937 85.2197 84.4049 85.3793 85.9804 86.3691C86.751 86.8532 87.4326 87.5694 87.7566 88.4308C88.0674 89.257 87.9615 90.1159 87.5186 90.8703Z" fill="black"/>
<path d="M62.4531 75.2046C62.4475 75.2021 62.4417 75.1999 62.435 75.198C62.0381 75.1005 61.7181 75.4434 61.8388 75.7718C61.9635 76.1121 62.4292 76.1066 62.662 75.8888C62.936 75.6324 62.7459 75.2182 62.4534 75.2046H62.4531ZM62.4258 75.5272C62.4258 75.5272 62.4325 75.5272 62.4317 75.5272C62.4439 75.5287 62.4439 75.5283 62.4542 75.5353C62.4549 75.5353 62.4556 75.5357 62.4564 75.5364C62.456 75.5361 62.4553 75.5361 62.4549 75.5361C62.4538 75.5364 62.4659 75.5482 62.4637 75.5441C62.4641 75.5441 62.4648 75.5445 62.4648 75.5445C62.4726 75.5471 62.4601 75.5589 62.4659 75.5478C62.4501 75.5743 62.4472 75.592 62.4086 75.6184C62.4064 75.6148 62.4041 75.6126 62.4041 75.6129C62.4027 75.607 62.3983 75.5901 62.3983 75.5901C62.3949 75.5644 62.4012 75.5331 62.4262 75.5272H62.4258ZM61.9981 75.7325C61.9528 75.6273 61.9855 75.479 62.1106 75.3981C61.99 75.6173 62.1577 75.848 62.388 75.8024C62.5093 75.7785 62.6245 75.667 62.6278 75.5515C62.6282 75.5548 62.6289 75.5585 62.6293 75.5618C62.666 75.8642 62.118 76.0106 61.9981 75.7321V75.7325Z" fill="black"/>
<path d="M68.3711 74.6955C68.3656 74.6929 68.3597 74.6899 68.3531 74.6885C67.9529 74.5917 67.6362 74.9356 67.7561 75.263C67.8812 75.6029 68.3465 75.5977 68.5797 75.3793C68.8544 75.1214 68.6617 74.7083 68.3711 74.6955ZM68.3439 75.018C68.3439 75.018 68.3505 75.018 68.3498 75.0177C68.3612 75.0192 68.3619 75.0191 68.3715 75.0265C68.3704 75.0265 68.3836 75.0386 68.3814 75.0346C68.3818 75.035 68.3825 75.0357 68.3825 75.0357C68.3902 75.0383 68.3777 75.0493 68.3829 75.0383C68.3652 75.0736 68.359 75.0861 68.3262 75.1089C68.324 75.1056 68.3218 75.103 68.3218 75.1034C68.3034 75.053 68.3266 75.018 68.3435 75.018H68.3439ZM67.9161 75.2233C67.8712 75.1207 67.901 74.971 68.0287 74.8886C67.9632 75.0077 67.9841 75.1413 68.0592 75.2196C68.2317 75.401 68.5451 75.2395 68.5451 75.0427C68.597 75.3539 68.0367 75.5025 67.9161 75.2233Z" fill="black"/>
<path d="M64.1344 75.3358C64.3522 76.3672 64.428 77.0874 64.9882 77.3647C65.2721 77.5052 65.5932 77.4743 65.8309 77.2614C66.3249 76.8192 66.3955 75.8353 66.3977 75.1724C66.3977 75.0669 66.234 75.0669 66.234 75.1724C66.2322 75.7573 66.1844 76.5739 65.8195 77.0348C65.647 77.2525 65.3957 77.3478 65.1283 77.2477C64.5755 77.0414 64.5034 76.2881 64.293 75.292C64.2713 75.189 64.1131 75.2324 64.1348 75.3354L64.1344 75.3358Z" fill="black"/>
<path d="M15.1509 112.974C13.0896 111.184 11.6745 108.606 11.2688 105.899C11.1721 105.253 11.0923 104.563 11.271 103.845C11.516 102.86 12.2414 102.155 13.0616 101.948C13.8161 101.756 14.4598 101.819 15.2164 101.936C16.6116 102.151 18.1234 102.438 19.7246 103.067C21.112 103.613 23.0167 104.572 23.5305 106.599C23.9267 108.161 23.3624 109.599 22.8195 110.529C22.3089 111.405 21.2967 112.652 20.6096 113.253C19.8139 113.948 18.9727 114.3 18.109 114.3C16.9908 114.3 15.998 113.709 15.1509 112.974V112.974Z" fill="white"/>
<path d="M22.4719 106.868C22.1059 105.425 20.7056 104.627 19.3247 104.084C17.8972 103.523 16.5355 103.245 15.0494 103.016C14.4616 102.925 13.9279 102.855 13.3302 103.007C12.8104 103.146 12.4573 103.6 12.3308 104.109C12.1987 104.64 12.269 105.204 12.3488 105.737C12.7056 108.116 13.9316 110.469 15.8667 112.149C17.2524 113.353 18.5034 113.643 19.8908 112.43C20.472 111.923 21.4166 110.767 21.876 109.98C22.4171 109.052 22.743 107.936 22.4719 106.868ZM22.0982 109.164C21.734 110.069 20.9855 111.031 20.3374 111.753C18.6417 113.641 17.2645 113.363 15.4345 111.521C13.6572 109.731 12.6074 107.316 12.4367 105.089C12.3959 104.558 12.4301 103.981 12.7836 103.552C12.941 103.36 13.1341 103.229 13.3739 103.165C13.9411 103.021 14.5172 103.098 15.0858 103.186C17.2516 103.523 20.8932 104.308 22.0151 106.191C22.5543 107.096 22.4804 108.214 22.0985 109.164L22.0982 109.164Z" fill="black"/>
<path d="M13.0561 108.055C15.1686 107.338 16.5447 105.504 16.7403 103.384C16.7499 103.279 16.5862 103.28 16.5767 103.384C16.3865 105.444 15.027 107.214 13.0127 107.897C12.9134 107.931 12.9561 108.089 13.0561 108.055Z" fill="black"/>
<path d="M15.1399 111.358C17.8552 109.935 19.9489 107.34 19.8055 104.337C19.8003 104.232 19.6366 104.232 19.6418 104.337C19.7842 107.318 17.6853 109.84 15.0571 111.217C14.9637 111.266 15.0465 111.408 15.1399 111.359V111.358Z" fill="black"/>
<path d="M55.7699 38.1176C55.4613 37.5824 55.163 37.0354 54.8768 36.4814L53.5582 37.5323C53.3489 37.6993 53.0884 37.7909 52.8203 37.7909C51.9632 37.7909 51.4141 36.9155 51.7315 36.1669L52.4605 33.8809L51.4218 33.1209C50.5136 32.4566 50.9609 31.0118 52.0912 30.9945C52.6279 30.986 53.1708 30.9654 53.7137 30.9323C53.8278 30.2581 53.9624 29.586 54.1165 28.9254C54.3582 27.8878 55.7486 27.6972 56.2753 28.6065L56.5299 29.0461C56.7186 28.7919 56.9109 28.541 57.1066 28.2942C57.8239 27.389 59.3133 27.9904 59.1886 29.1476C59.1845 29.1836 59.1808 29.2197 59.1768 29.2561C60.171 28.7805 61.2024 29.8376 60.7346 30.8279C60.533 31.2542 60.3241 31.6831 60.1092 32.1108L60.9836 32.4893C61.9914 32.9252 61.8759 34.394 60.8295 34.6919L58.4639 35.3669C58.2977 36.1831 58.1182 36.9997 57.9287 37.8027C57.8037 38.3327 57.3343 38.7028 56.787 38.7028C56.368 38.7028 55.9781 38.4784 55.7699 38.1172V38.1176Z" fill="white"/>
<path d="M60.5499 33.4923C59.9014 33.2116 59.2525 32.931 58.6041 32.6503C59.0013 31.8959 59.3828 31.1326 59.7473 30.3617C59.7789 30.2947 59.709 30.1983 59.6351 30.2495C59.0094 30.6842 58.3837 31.1187 57.7584 31.5534C57.8964 30.7159 58.0119 29.8746 58.1031 29.0308C58.1104 28.9632 58.0063 28.9187 57.9633 28.9731C57.4259 29.6514 56.919 30.3532 56.4442 31.0764C56.073 30.4356 55.7019 29.7948 55.3304 29.1541C55.2961 29.0948 55.1968 29.104 55.1806 29.1736C54.9662 30.0939 54.7926 31.0234 54.6598 31.9588C53.8108 32.0305 52.96 32.0735 52.1081 32.0868C52.0213 32.0883 52.0037 32.1935 52.0669 32.2394C52.6249 32.6474 53.1826 33.0557 53.7406 33.4636C53.4095 34.5012 53.0789 35.5389 52.7478 36.5766C52.7324 36.596 52.7309 36.6181 52.7382 36.638C52.7485 36.6898 52.8159 36.7138 52.8615 36.6884C52.8622 36.6884 52.8629 36.6876 52.8637 36.6873C52.8662 36.6858 52.8688 36.6843 52.8714 36.6825C52.8736 36.681 52.8758 36.6799 52.878 36.6781C53.6707 36.0465 54.463 35.4149 55.2557 34.7834C55.7052 35.732 56.1926 36.6623 56.7167 37.5719C56.7509 37.6315 56.8502 37.6216 56.8664 37.5524C57.1055 36.5394 57.3244 35.5216 57.5237 34.5001C58.5261 34.214 59.5284 33.9282 60.5308 33.642C60.5922 33.6243 60.6183 33.5217 60.5503 33.4923H60.5499ZM57.374 34.4133C57.1857 35.3818 56.9786 36.347 56.7546 37.3078C56.254 36.4283 55.7868 35.5301 55.3557 34.6145C55.3311 34.5619 55.2645 34.5682 55.227 34.598C54.4777 35.195 53.7288 35.792 52.9795 36.389C53.2915 35.4109 53.6034 34.4328 53.9153 33.4548C53.9271 33.4176 53.9065 33.3834 53.8778 33.3621C53.3687 32.9898 52.8596 32.6172 52.3502 32.245C53.1447 32.2277 53.9388 32.1857 54.7308 32.1173C54.7632 32.1144 54.8047 32.0941 54.8099 32.057C54.9338 31.1705 55.0957 30.2896 55.2932 29.4167C55.6518 30.0354 56.0101 30.6541 56.3687 31.2731C56.4007 31.3283 56.4773 31.3239 56.5104 31.2731C56.9481 30.5989 57.4141 29.9431 57.907 29.3082C57.8154 30.1108 57.7032 30.9112 57.5682 31.7079C57.5576 31.7712 57.6242 31.8455 57.6885 31.8006C58.2822 31.3883 58.8755 30.9759 59.4692 30.5636C59.133 31.2651 58.7839 31.9606 58.4205 32.6485C58.4018 32.6842 58.408 32.7423 58.4499 32.7607C59.0554 33.0226 59.6612 33.2848 60.2667 33.5467C59.3217 33.8163 58.3764 34.086 57.4314 34.3559C57.4057 34.3633 57.3795 34.3857 57.374 34.4133Z" fill="black"/>
<path d="M135.988 52.7437C135.409 52.7437 134.91 52.3152 134.828 51.7465C134.498 49.4406 135.098 47.3329 135.435 45.3624C135.866 42.838 135.592 42.1516 135.163 40.0377C135.02 39.3333 134.884 38.5266 134.89 37.6799C134.746 37.5636 134.603 37.4183 134.467 37.2374C133.268 37.7917 131.915 37.351 131.429 36.1302C131.026 35.1175 131.283 33.0386 131.657 31.4311C132.483 27.8823 134.475 23.6816 138.102 23.6816C140.009 23.6816 142.028 25.0095 142.908 27.9448C143.536 30.0378 143.711 33.2526 143.316 35.4225C143.029 36.9997 141.889 37.7479 140.809 37.5853C140.433 37.9785 139.952 38.2114 139.432 38.2526C139.474 38.9323 139.589 39.625 139.728 40.5033C140.061 42.6118 140.145 43.2452 139.87 46.2412C139.715 47.9196 139.556 49.655 140.042 51.2253C140.275 51.9775 139.707 52.7444 138.92 52.7444H135.989L135.988 52.7437Z" fill="white"/>
<path d="M141.862 28.2577C140.709 24.412 137.276 23.6638 135.032 26.4384C132.79 29.21 131.973 34.5432 132.444 35.7258C132.808 36.6424 133.987 36.5291 134.573 35.8056C134.678 35.6757 134.765 35.5352 134.84 35.3877C135.27 37.2582 136.351 37.4594 137.238 36.4346C137.451 36.1885 137.635 35.9134 137.8 35.6309C137.923 36.1506 138.141 36.6663 138.608 36.9624C139.103 37.2762 139.665 37.2342 140.057 36.7877C140.221 36.6012 140.336 36.3812 140.434 36.1547C140.695 36.5218 141.095 36.6034 141.495 36.4132C141.956 36.1936 142.155 35.7 142.241 35.2259C142.592 33.301 142.46 30.2521 141.861 28.2577H141.862ZM141.952 35.6625C141.672 36.3647 140.881 36.642 140.505 35.9582C140.502 35.9413 140.493 35.9277 140.48 35.9178C140.439 35.8707 140.364 35.8994 140.342 35.9546C140.172 36.3787 139.924 36.8866 139.43 36.9874C138.921 37.0915 138.445 36.716 138.213 36.2955C138.056 36.013 137.975 35.6971 137.914 35.3822C137.9 35.3123 137.797 35.3035 137.764 35.3627C137.33 36.1502 136.569 37.2368 135.789 36.7807C135.3 36.4949 135.049 35.6695 134.949 35.1063C134.934 35.017 134.819 35.0412 134.791 35.1063C134.616 35.5293 134.342 35.9314 133.906 36.1131C133.559 36.258 133.11 36.2738 132.818 36.0024C132.476 35.6846 132.482 35.1608 132.493 34.73C132.569 31.8161 133.527 28.9856 134.725 27.1402C136.799 23.9448 140.066 24.3553 141.424 27.5227C142.497 30.0244 142.396 34.5527 141.952 35.6625H141.952Z" fill="black"/>
<path d="M138.842 24.9893C139.688 28.2704 140.174 32.0432 140.315 35.2441C140.325 35.4846 140.325 35.7263 140.339 35.9665C140.346 36.0919 140.504 36.075 140.503 35.9761C140.462 33.0584 139.929 28.5503 139.001 24.9459C138.975 24.844 138.817 24.887 138.843 24.9893H138.842Z" fill="black"/>
<path d="M137.916 35.404C137.636 32.443 137.517 27.9547 137.89 24.866C137.903 24.7616 137.739 24.7627 137.727 24.866C137.372 27.8021 137.467 31.6404 137.688 34.6139C137.708 34.874 137.724 35.1348 137.752 35.3941C137.752 35.3974 137.752 35.4011 137.753 35.4044C137.763 35.5085 137.927 35.5096 137.916 35.4044V35.404Z" fill="black"/>
<path d="M137.556 24.8488C135.732 27.2618 135.006 31.2292 134.823 34.2642C134.789 34.8365 134.792 34.6085 134.788 35.1279C134.788 35.2334 134.951 35.2334 134.952 35.1279C134.954 34.8991 134.965 34.6703 134.977 34.4422C135.138 31.3981 135.857 27.3666 137.696 24.9319C137.76 24.8477 137.618 24.766 137.555 24.8492L137.556 24.8488Z" fill="black"/>
<path d="M138.998 51.5475C138.399 49.6131 138.655 47.5801 138.824 45.674C139.078 42.81 138.896 42.3208 138.509 39.7824C138.352 38.7447 138.233 37.6725 138.41 36.6374C138.428 36.5344 138.27 36.4899 138.252 36.594C138.093 37.5202 138.162 38.4622 138.288 39.3881C138.605 41.7257 138.931 42.3958 138.691 45.3069C138.53 47.2626 138.203 49.4299 138.809 51.4876H136.059C135.803 49.5884 136.29 47.7048 136.623 45.8472C137.085 43.2742 136.948 42.401 136.47 40.1557C136.246 39.1078 136.052 38.0381 136.192 36.9644C136.206 36.8603 136.042 36.8611 136.028 36.9644C135.903 37.9204 136.042 38.8823 136.232 39.8199C136.661 41.9302 136.981 42.7935 136.511 45.5463C136.181 47.473 135.609 49.4994 135.908 51.5913C135.914 51.6262 135.955 51.6516 135.988 51.6516H138.919C138.971 51.6516 139.014 51.599 138.998 51.5479L138.998 51.5475Z" fill="black"/>
<path d="M28.8207 47.5121C26.7557 47.3978 25.8964 47.3628 24.236 47.408C21.5372 47.4816 18.9462 47.4676 16.9037 45.353C15.9911 44.4084 15.3749 43.1905 15.0719 41.7335C14.4182 38.5915 15.6615 35.544 16.818 33.2399C18.4088 30.0699 20.3157 28.0571 22.647 27.0853C24.3331 26.3828 26.0892 26.3419 27.6249 26.8933C28.5503 26.414 29.5887 26.2124 30.6275 26.3099C30.8224 24.8897 30.7823 23.4408 30.5061 22.0651C30.3748 21.4111 30.8085 20.7718 31.4665 20.67C32.8227 20.4599 34.2915 20.3584 34.7869 20.3584C35.2824 20.3584 35.7698 20.7086 35.9136 21.2096C36.3668 22.7887 36.668 24.413 36.8137 26.0546C41.6183 24.8191 47.4072 28.6214 47.7799 36.5548C47.8987 39.0833 47.5614 42.2382 46.2022 44.3613C45.4368 45.5571 44.3999 46.3914 43.1202 46.8405C41.6426 47.3588 40.1352 47.3543 38.6635 47.4445C36.8689 47.5544 34.8962 47.66 33.0894 47.66C33.0894 47.66 30.3005 47.5942 28.8211 47.5121H28.8207Z" fill="white"/>
<path d="M27.505 31.0502C29.2363 30.2531 31.173 31.837 32.89 32.0923C34.1646 32.2817 35.1643 31.7638 36.3109 31.4019C37.116 31.1477 38.0077 30.9789 38.8202 31.2959C38.9184 31.3342 38.9611 31.176 38.8636 31.1378C38.1368 30.8542 37.3342 30.9469 36.5985 31.1462C35.4483 31.4578 34.375 32.0614 33.1523 31.9591C31.3289 31.8069 29.3401 30.0254 27.4222 30.9086C27.3266 30.9528 27.4097 31.094 27.505 31.0502Z" fill="black"/>
<path d="M34.8634 21.511C34.8539 21.4776 34.8204 21.4496 34.7844 21.4507C33.7294 21.4871 32.677 21.5875 31.6339 21.749C31.5879 21.756 31.5688 21.8105 31.5765 21.8498C32.1955 24.93 31.728 28.2413 30.2273 31.0754C30.178 31.1685 30.3192 31.2516 30.3689 31.1582C31.8479 28.3649 32.367 25.0661 31.7516 21.8962C32.7355 21.7465 33.7279 21.6538 34.7226 21.617C35.6451 24.8638 35.8864 28.2479 35.4464 31.5838C35.435 31.6709 35.5932 31.7125 35.6101 31.5838C36.0571 28.1975 35.7948 24.7575 34.8631 21.5107L34.8634 21.511Z" fill="black"/>
<path d="M32.7536 21.6941C33.2185 25.0075 32.9772 28.4692 31.9855 31.7844C31.9554 31.8856 32.1132 31.929 32.1437 31.8278C33.0989 28.634 33.4042 25.162 32.9117 21.6507C32.897 21.5466 32.7392 21.5911 32.7536 21.6941Z" fill="black"/>
<path d="M33.7408 21.6053C34.5412 25 34.56 28.5746 33.7684 32.0083C33.7449 32.111 33.9027 32.1547 33.9266 32.0518C34.734 28.5496 34.6979 24.9504 33.899 21.5615C33.8747 21.4589 33.7169 21.5023 33.7408 21.6049V21.6053Z" fill="black"/>
<path d="M29.4397 29.5207C28.181 27.8059 25.6228 27.0286 23.0667 28.0939C20.5823 29.129 18.9631 31.4003 17.7938 33.7302C16.6028 36.1034 15.5813 38.8213 16.1408 41.5113C16.6521 43.9695 18.2117 45.7193 20.7784 46.1772C22.0673 46.4071 23.3849 46.3343 24.6863 46.3041C27.708 46.2339 30.175 46.626 33.935 46.5609C35.4902 46.534 37.0436 46.4498 38.5958 46.3549C39.9778 46.2703 41.4366 46.274 42.7579 45.8105C44.9968 45.0248 46.0205 42.9113 46.4428 40.5674C46.6767 39.2679 46.7503 37.9249 46.6885 36.607C46.3093 28.5331 39.9597 25.3315 35.6925 27.6631C35.5998 27.7135 35.6826 27.8551 35.7753 27.8048C37.9948 26.592 40.773 27.0191 42.749 28.5047C44.7327 29.9959 45.8907 32.3353 46.3199 34.7395C46.5649 36.1126 46.591 37.5188 46.484 38.907C46.3166 41.0798 45.7649 43.5347 44.071 44.9064C43.0484 45.7344 41.7331 45.9665 40.4567 46.0702C39.003 46.1883 37.5424 46.2633 36.0854 46.3288C31.5577 46.5322 30.0481 46.2876 27.1386 46.1669C23.5732 46.0194 21.3805 46.5226 19.3016 45.5567C16.8249 44.4061 15.0402 40.9599 17.0188 35.8559C18.4349 32.2033 20.9145 28.2612 24.7837 27.8033C26.5015 27.5999 28.2995 28.2425 29.2989 29.6042C29.3607 29.6884 29.503 29.6068 29.4405 29.5214L29.4397 29.5207Z" fill="black"/>
<path d="M27.7569 28.2741C28.8317 27.5428 30.2026 27.3122 31.5419 27.7911C31.6412 27.8268 31.6843 27.6682 31.5853 27.6329C30.3078 27.1764 28.8589 27.3269 27.6742 28.1324C27.5874 28.1913 27.6694 28.3333 27.7569 28.2741Z" fill="black"/>
<path d="M36.7916 36.0325C36.54 36.0604 36.3815 35.8379 36.3726 35.608C36.3579 35.2144 36.6632 34.5659 37.0094 34.2934C37.1605 34.1738 37.3956 34.119 37.5504 34.2503C38.2015 34.4813 37.4265 35.9619 36.7912 36.0325H36.7916Z" fill="black"/>
<path d="M27.1691 37.2596C26.9175 37.2876 26.7582 37.065 26.7502 36.8351C26.7354 36.446 27.0371 35.7971 27.3869 35.5205C27.538 35.4013 27.7731 35.3469 27.928 35.4775C28.5845 35.7162 27.7996 37.1893 27.1687 37.2596H27.1691Z" fill="black"/>
<path d="M41.7754 42.5778C41.5238 42.6057 41.3645 42.3832 41.3564 42.1529C41.3417 41.7604 41.647 41.1123 41.9931 40.8383C42.1443 40.7191 42.3793 40.6647 42.5342 40.7956C43.1794 41.0244 42.415 42.5064 41.775 42.5778H41.7754Z" fill="black"/>
<path d="M20.6371 39.556C20.1682 39.3121 19.7779 40.2894 19.8621 40.8026C19.8919 40.9835 20.0346 41.1505 20.2318 41.1248C20.7692 41.0538 21.2305 39.6428 20.6371 39.556Z" fill="black"/>
<path d="M21.7701 31.7887C21.6395 31.7001 21.4637 31.7379 21.3427 31.8358C21.0859 32.0432 20.8538 32.5954 20.8766 32.9441C20.8888 33.1317 21.0138 33.3259 21.2235 33.3119C21.766 33.2755 22.3457 31.9325 21.7704 31.7887H21.7701Z" fill="black"/>
<path d="M32.3923 43.0558C32.2618 42.9671 32.0859 43.005 31.9649 43.1029C31.7082 43.3103 31.4761 43.8624 31.4989 44.2112C31.511 44.3987 31.6361 44.593 31.8457 44.579C32.3883 44.5426 32.968 43.1996 32.3927 43.0558H32.3923Z" fill="black"/>
<path d="M44.0901 33.2008C43.9596 33.1122 43.7837 33.15 43.6627 33.2479C43.5108 33.3707 43.4041 33.5653 43.3287 33.7426C43.0392 34.4227 43.2754 34.7424 43.5435 34.7244C44.0861 34.688 44.6658 33.345 44.0905 33.2012L44.0901 33.2008Z" fill="black"/>
<path d="M75.7859 126.431C75.3665 126.431 74.977 126.207 74.7688 125.845C74.54 125.448 74.3175 125.043 74.1027 124.633C73.1103 125.424 73.1081 125.436 72.9767 125.508C71.999 126.047 70.8919 125.035 71.3204 124.029L71.8979 122.218L71.1159 121.646C70.2081 120.982 70.655 119.536 71.7853 119.519C72.1936 119.513 72.6071 119.498 73.0209 119.475C73.1132 118.943 73.221 118.413 73.3424 117.892C73.5837 116.857 74.9737 116.662 75.5012 117.573L75.5858 117.72C75.6965 117.573 75.8087 117.428 75.922 117.286C76.5936 116.438 77.9638 116.903 78.0094 117.967C78.9606 117.768 79.714 118.76 79.3038 119.628C79.1578 119.937 79.007 120.247 78.8525 120.558L79.4293 120.807C80.4338 121.242 80.3246 122.71 79.2755 123.01L77.3631 123.556C77.227 124.219 77.081 124.881 76.9276 125.531C76.8029 126.061 76.3332 126.431 75.7859 126.431V126.431Z" fill="white"/>
<path d="M78.9956 121.809C78.4468 121.572 77.898 121.334 77.3495 121.097C77.6854 120.458 78.0083 119.813 78.3166 119.16C78.3482 119.093 78.2783 118.997 78.2044 119.048C77.6791 119.413 77.1542 119.778 76.6289 120.142C76.7444 119.438 76.8416 118.731 76.9181 118.021C76.9254 117.953 76.8213 117.908 76.7783 117.963C76.3244 118.536 75.8962 119.129 75.4946 119.74C75.1815 119.2 74.8689 118.66 74.5558 118.12C74.5216 118.06 74.4223 118.07 74.4061 118.139C74.2241 118.92 74.0769 119.709 73.964 120.502C73.2449 120.563 72.5236 120.599 71.8019 120.61C71.7151 120.612 71.6974 120.717 71.7607 120.763C72.233 121.109 72.7053 121.454 73.1776 121.799C72.8969 122.679 72.6163 123.559 72.336 124.439C72.2889 124.498 72.3694 124.595 72.4496 124.55C72.4507 124.55 72.4566 124.546 72.4592 124.544C72.4614 124.543 72.4636 124.542 72.4658 124.54C73.1364 124.006 73.8069 123.471 74.4771 122.937C74.8582 123.74 75.2709 124.528 75.7149 125.299C75.7491 125.358 75.8484 125.348 75.8646 125.279C76.0676 124.419 76.2538 123.554 76.423 122.687C77.2741 122.444 78.1249 122.201 78.9761 121.958C79.0375 121.941 79.0636 121.838 78.9956 121.809V121.809ZM75.7531 125.035C75.3327 124.295 74.9402 123.539 74.5775 122.769C74.5529 122.716 74.4863 122.723 74.4488 122.752C73.8216 123.252 73.1945 123.752 72.5677 124.251C72.8292 123.431 73.0908 122.611 73.3523 121.791C73.3641 121.753 73.3435 121.719 73.3148 121.698C72.8914 121.388 72.4677 121.079 72.0439 120.769C72.7086 120.753 73.3725 120.718 74.035 120.661C74.2042 120.646 74.0354 120.529 74.5187 118.383C74.8188 118.9 75.119 119.418 75.4188 119.936C75.4508 119.991 75.5273 119.987 75.5604 119.936C75.9245 119.376 76.3126 118.831 76.7216 118.302C76.6444 118.969 76.551 119.635 76.4388 120.297C76.4281 120.36 76.4943 120.435 76.5591 120.39C77.052 120.047 77.5452 119.705 78.0381 119.362C77.7582 119.945 77.4676 120.523 77.1656 121.095C77.1469 121.131 77.1531 121.189 77.195 121.207C77.7008 121.426 78.2066 121.645 78.712 121.864C77.9182 122.09 77.1244 122.317 76.3306 122.543C76.2243 122.573 76.3306 122.553 75.7528 125.035L75.7531 125.035Z" fill="black"/>
<path d="M56.1241 144.866C52.3399 143.809 50.3543 140.718 51.1544 136.541C51.9926 132.163 55.9126 128.524 55.3793 125.976C55.234 125.432 54.6966 125.345 54.1371 125.378C53.0325 125.444 50.5677 126.01 48.4383 126.939C48.1098 127.082 47.8505 127.195 47.5136 127.195C46.3332 127.195 45.4695 125.755 46.4877 124.614C51.1496 119.388 60.0228 116.797 62.8897 121.846C63.6871 123.25 63.8681 125.087 63.3988 127.018C62.5594 130.474 59.2996 133.853 59.7995 136.116C60.0004 137.026 61.1903 137.301 62.1073 137.256C64.2426 137.151 66.7203 134.947 69.187 134.24C70.3578 133.905 71.6941 133.811 72.7432 134.42C72.8704 134.241 72.9481 134.059 72.9683 133.885C73.086 132.878 74.3499 132.48 75.0178 133.23C75.1547 133.384 75.2466 133.571 75.2867 133.77C75.819 133.857 76.2251 134.291 76.2633 134.847C76.3056 135.459 75.8661 136.005 75.2632 136.088C74.8946 136.139 74.5246 136.236 74.1796 136.373C74.7898 139.149 71.2317 141.807 68.7007 143.085C68.4149 143.25 67.0668 143.835 66.849 143.899C63.7099 145.09 59.3184 145.757 56.1241 144.865V144.866Z" fill="white"/>
<path d="M73.1482 136.84C73.0878 136.15 72.6475 135.562 72.0215 135.276C71.2376 134.938 70.2853 135.062 69.4871 135.291C67.1429 135.962 64.6472 138.225 62.1603 138.347C60.7533 138.417 59.073 137.896 58.7321 136.352C58.1023 133.501 61.5136 130.149 62.3368 126.76C62.6852 125.326 62.6855 123.7 61.9392 122.385C59.5634 118.202 51.5718 120.556 47.302 125.341C47.1939 125.463 47.1031 125.583 47.1303 125.755C47.1512 125.888 47.241 126.008 47.3627 126.066C47.5867 126.172 47.7015 126.049 48.51 125.723C50.7188 124.83 53.0667 124.347 54.0724 124.288C55.9318 124.177 56.7535 125.313 56.4813 127.105C56.0657 129.841 52.9269 133.094 52.2273 136.747C51.5582 140.24 53.0627 142.877 56.418 143.814C59.8569 144.774 66.1362 143.906 70.3979 140.776C71.601 139.892 73.2787 138.327 73.1485 136.84L73.1482 136.84ZM72.9834 137.172C72.9113 137.945 72.3021 138.8 71.7666 139.373C66.8825 144.595 52.3645 146.87 52.2358 138.425C52.1788 134.687 54.8301 131.829 56.2065 128.624C57.249 126.196 56.6932 123.969 54.0724 124.124C52.3693 124.225 49.7669 125.004 48.0267 125.748C47.6519 125.908 47.5514 125.984 47.4201 125.911C47.2406 125.812 47.2748 125.619 47.3907 125.488C51.2088 121.186 57.8191 118.988 60.8294 121.343C62.0462 122.295 62.4685 123.851 62.3865 125.341C62.1919 128.865 59.2047 131.742 58.6044 134.702C58.2789 136.307 58.6824 137.607 60.217 138.216C63.9829 139.71 67.2717 135.455 70.6454 135.25C71.0813 135.223 71.5337 135.243 71.9395 135.418C72.6244 135.73 73.0547 136.413 72.9837 137.172L72.9834 137.172Z" fill="black"/>
<path d="M49.5922 123.255C49.4656 123.904 49.4748 124.572 49.6223 125.216C49.6459 125.318 49.8037 125.275 49.7805 125.172C49.64 124.558 49.6297 123.918 49.7503 123.299C49.7706 123.196 49.6124 123.152 49.5922 123.255Z" fill="black"/>
<path d="M50.7343 122.473C50.5662 123.258 50.5883 124.078 50.8023 124.851C50.8303 124.953 50.9885 124.91 50.9605 124.808C50.7545 124.063 50.7306 123.273 50.8925 122.517C50.9145 122.414 50.7567 122.37 50.7343 122.473Z" fill="black"/>
<path d="M56.0292 120.378C55.0258 121.336 54.3806 122.72 54.3453 124.199C54.3427 124.304 54.5068 124.304 54.509 124.199C54.5414 122.835 55.1233 121.469 56.1451 120.494C56.2216 120.421 56.1058 120.305 56.0292 120.378Z" fill="black"/>
<path d="M55.6739 124.497C55.9601 122.827 56.8973 121.351 58.1594 120.39C58.2421 120.327 58.1605 120.185 58.0766 120.248C56.7307 121.273 55.7993 122.799 55.5157 124.453C55.4981 124.556 55.6559 124.601 55.6739 124.497V124.497Z" fill="black"/>
<path d="M56.5872 125.8C58.106 124.32 60.1276 123.413 62.2011 123.254C62.3056 123.246 62.3063 123.082 62.2011 123.09C60.0441 123.256 57.9994 124.195 56.4714 125.684C56.3956 125.758 56.5115 125.874 56.5872 125.8Z" fill="black"/>
<path d="M56.6494 126.714C58.3962 125.478 60.4429 124.839 62.474 124.803C62.5792 124.802 62.5796 124.638 62.474 124.64C60.3663 124.677 58.2907 125.353 56.5666 126.573C56.4813 126.633 56.563 126.775 56.6494 126.714V126.714Z" fill="black"/>
<path d="M56.1628 128.649C57.8338 128.089 59.7469 128.1 61.4982 128.814C61.5956 128.853 61.6383 128.695 61.5416 128.656C59.8749 127.976 57.9151 127.889 56.119 128.491C56.0197 128.525 56.0623 128.683 56.1624 128.649H56.1628Z" fill="black"/>
<path d="M55.3396 130.316C57.0673 129.775 58.941 129.919 60.5131 130.632C60.6084 130.675 60.6919 130.534 60.5959 130.491C58.9281 129.734 57.0095 129.621 55.2962 130.158C55.1957 130.189 55.2388 130.348 55.3396 130.316Z" fill="black"/>
<path d="M53.0491 134.607C54.8492 133.588 56.9937 133.111 59.1499 133.356C59.2544 133.368 59.2537 133.204 59.1499 133.192C57.0562 132.955 54.8625 133.392 52.9667 134.465C52.8751 134.517 52.9575 134.659 53.0494 134.607L53.0491 134.607Z" fill="black"/>
<path d="M52.3472 136.839C54.3236 135.572 56.5273 134.902 58.6879 134.781C58.7928 134.775 58.7935 134.611 58.6879 134.617C56.3198 134.75 54.1125 135.513 52.2645 136.698C52.1758 136.754 52.2582 136.896 52.3472 136.839V136.839Z" fill="black"/>
<path d="M58.9035 137C56.4449 137.499 54.2 139.112 52.9365 141.359C52.8846 141.451 53.0263 141.534 53.0781 141.442C54.2762 139.311 56.4305 137.669 58.9473 137.158C59.0506 137.137 59.0068 136.979 58.9039 137H58.9035Z" fill="black"/>
<path d="M59.5553 137.724C57.3575 138.809 55.742 140.959 55.2851 143.328C55.2652 143.431 55.4231 143.475 55.4433 143.371C55.8839 141.088 57.4252 138.958 59.6384 137.866C59.7329 137.819 59.6502 137.678 59.5556 137.724L59.5553 137.724Z" fill="black"/>
<path d="M61.1248 138.344C60.1236 140.042 59.758 142.119 60.1725 144.11C60.1938 144.213 60.352 144.169 60.3307 144.066C59.9393 142.186 60.2578 140.138 61.2664 138.427C61.3201 138.336 61.1785 138.253 61.1248 138.344V138.344Z" fill="black"/>
<path d="M62.2743 138.394C61.8311 140.166 61.848 142.071 62.3593 143.878C62.388 143.979 62.5461 143.936 62.5174 143.835C62.0323 142.119 61.9793 140.251 62.4325 138.438C62.4582 138.336 62.3 138.292 62.2743 138.394Z" fill="black"/>
<path d="M65.0227 137.498C64.6203 139.349 65.0963 141.338 66.468 142.829C66.5397 142.907 66.6552 142.791 66.5838 142.713C65.3339 141.355 64.7656 139.451 65.1805 137.541C65.203 137.439 65.0448 137.395 65.0224 137.498H65.0227Z" fill="black"/>
<path d="M66.3274 136.81C66.0317 138.708 66.6118 140.682 68.0592 142.127C68.1339 142.202 68.2497 142.086 68.1751 142.011C66.8645 140.703 66.1796 138.817 66.4856 136.853C66.5018 136.75 66.344 136.706 66.3274 136.81Z" fill="black"/>
<path d="M70.2507 136.355C70.0554 136.461 69.7935 136.307 69.8539 136.085C69.8402 135.847 70.1474 135.763 70.2945 135.926C70.4244 136.07 70.3924 136.278 70.2507 136.355Z" fill="black"/>
<path d="M71.9369 138.447C71.9196 138.752 71.4903 138.765 71.4149 138.512C71.4024 138.47 71.4035 138.426 71.4146 138.386C71.4072 138.254 71.5039 138.166 71.6073 138.148C71.8081 138.112 71.9461 138.284 71.9372 138.447L71.9369 138.447Z" fill="black"/>
<path d="M75.0697 134.849C74.6066 134.913 74.1553 135.035 73.7216 135.207C73.9813 134.858 74.1641 134.458 74.2163 134.013C74.2285 133.908 74.0644 133.909 74.0526 134.013C73.9596 134.809 73.3913 135.469 72.7218 135.922C72.635 135.981 72.717 136.123 72.8046 136.064C73.0525 135.896 73.2872 135.7 73.4928 135.48C73.9934 135.249 74.5488 135.086 75.1135 135.008C75.1988 134.996 75.2003 134.832 75.0701 134.849L75.0697 134.849Z" fill="black"/>
<path d="M135.447 65.1499C135.356 65.8411 134.677 66.3204 133.98 66.1335C133.436 65.9871 132.939 65.8473 132.407 65.6895C130.192 66.4851 128.266 67.9554 126.917 69.8791C127.016 70.2216 127.106 70.5295 127.193 70.8241C127.299 71.1824 127.233 71.5583 127.011 71.8551C126.444 72.6151 125.22 72.433 124.941 71.4891C124.829 71.1132 124.738 70.8005 124.634 70.4438C122.836 69.4193 121.094 69.366 119.173 70.1145C118.92 70.528 118.667 70.9414 118.415 71.356C118.201 71.7087 117.827 71.9195 117.416 71.9195C116.506 71.9195 115.929 70.926 116.408 70.1381C116.475 70.0277 117.05 69.082 117.111 68.9857C116.636 67.3698 115.525 66.0059 114.049 65.2308C112.514 65.7024 112.473 65.7252 112.246 65.7252C111.662 65.7252 111.176 65.3026 111.09 64.7203C111.005 64.1387 111.351 63.5936 111.914 63.4248C112.396 63.2802 112.81 63.1544 113.285 63.0088C114.229 60.7837 114.507 58.8607 114.152 57.0241C113.832 56.8053 113.516 56.586 113.212 56.3698C112.792 56.0722 112.615 55.5418 112.771 55.0503C113.014 54.2878 113.915 53.9899 114.558 54.4467C114.815 54.6292 115.058 54.7984 115.306 54.9694C117.274 53.9994 119.001 52.5947 120.349 50.8696C120.281 50.4245 120.221 50.0155 120.166 49.6289C120.118 49.2897 120.219 48.9473 120.442 48.6894C121.096 47.9365 122.344 48.2716 122.487 49.2765C122.548 49.7046 122.604 50.0909 122.667 50.5043C124.338 51.578 126.326 51.9319 128.106 51.5758C128.349 51.2028 128.593 50.8302 128.837 50.4583C129.055 50.1258 129.422 49.9268 129.818 49.9268C130.746 49.9268 131.321 50.9523 130.806 51.7387C130.689 51.9157 130.145 52.7462 130.072 52.8599C130.403 54.1859 130.878 54.8171 131.347 55.2968C131.727 55.6863 132.161 56.0192 132.641 56.2907C134.146 55.7066 134.208 55.6414 134.518 55.6414C135.074 55.6414 135.553 56.0416 135.658 56.5927C135.765 57.1496 135.46 57.705 134.934 57.9132C134.425 58.1148 133.985 58.2873 133.463 58.4899C132.832 60.1202 132.768 61.9001 133.281 63.498C133.722 63.6267 134.161 63.7496 134.589 63.8651C135.155 64.017 135.523 64.5691 135.447 65.1495V65.1499Z" fill="white"/>
<path d="M134.489 56.7401C133.853 56.9917 133.216 57.2404 132.578 57.4872C131.83 57.1348 131.144 56.653 130.565 56.0607C129.815 55.2931 129.253 54.3536 128.907 52.6572C128.913 52.6491 128.916 52.6403 128.918 52.6307C129.332 51.9962 129.362 51.9476 129.892 51.1399C129.95 51.0516 129.808 50.9692 129.75 51.0571C129.426 51.5508 129.104 52.0455 128.781 52.5399C126.436 53.16 123.768 52.6756 121.659 51.1369C121.561 50.5046 121.486 49.9978 121.405 49.4309C121.39 49.3268 121.232 49.3713 121.247 49.4743C121.327 50.0368 121.411 50.5988 121.498 51.1605C119.921 53.3138 117.758 55.0915 115.206 56.2215C114.742 55.9096 114.349 55.637 113.926 55.3372C113.84 55.2762 113.758 55.4181 113.844 55.4788C114.267 55.779 114.694 56.074 115.125 56.3638C115.765 58.9747 115.197 61.4583 114.083 63.9055C113.362 64.1277 112.839 64.2866 112.227 64.4705C112.127 64.5007 112.17 64.6588 112.271 64.6287C112.894 64.4414 113.516 64.252 114.137 64.0604C116.126 64.9443 117.754 66.765 118.283 69.1618C117.876 69.8269 117.834 69.8942 117.341 70.7049C117.286 70.7954 117.427 70.8778 117.482 70.7876C117.796 70.2712 118.112 69.7551 118.427 69.2394C119.331 68.8492 120.303 68.5777 121.289 68.5229C122.768 68.4409 124.31 68.9169 125.566 69.7323C125.727 70.2944 125.84 70.6802 125.987 71.1776C126.017 71.2783 126.175 71.2353 126.145 71.1341C126.003 70.6545 125.864 70.1734 125.726 69.6922C127.226 67.3466 129.562 65.4629 132.384 64.5426C133.075 64.7508 133.66 64.9163 134.263 65.0778C134.365 65.105 134.408 64.9472 134.306 64.9196C133.682 64.7523 133.061 64.575 132.442 64.3885C131.554 62.1951 131.69 59.7291 132.636 57.6387C133.405 57.3412 133.931 57.1352 134.532 56.8972C134.628 56.8589 134.586 56.7004 134.488 56.739L134.489 56.7401ZM131.289 56.9079C131.628 57.1602 131.991 57.3809 132.37 57.5685C131.226 58.0103 130.412 58.3174 129.549 58.64C128.373 57.8021 127.623 56.5231 127.301 55.1231C127.792 54.3625 128.285 53.6029 128.779 52.8441C129.162 54.6089 129.85 55.8389 131.289 56.9079H131.289ZM127.075 62.5085C125.917 62.0435 124.774 61.5466 123.564 60.9742C123.564 60.9731 123.565 60.972 123.566 60.9706C124.873 60.5159 125.821 60.1786 127.031 59.7402C126.769 60.6553 126.794 61.6338 127.075 62.5081V62.5085ZM123.474 60.8098C123.177 59.4665 122.956 58.3968 122.74 57.2996C123.614 57.6093 124.601 57.691 125.593 57.4773C125.048 58.3284 124.612 59.0075 123.474 60.8095V60.8098ZM125.738 57.5534C125.967 58.3343 126.434 59.0027 127.007 59.5761C125.909 59.9741 124.832 60.3574 123.706 60.7499C124.443 59.5835 124.858 58.9295 125.738 57.5538L125.738 57.5534ZM123.317 60.8573C122.291 60.3666 121.33 59.8763 120.315 59.323C121.265 59.0155 122.073 58.3847 122.597 57.418C122.799 58.4428 123.007 59.458 123.317 60.8573ZM123.131 60.9489C122.02 61.3329 121.266 61.5893 120.207 61.9424C120.558 61.0633 120.484 60.3927 120.233 59.465C121.151 59.9649 122.062 60.4357 123.131 60.9489ZM123.318 61.0574C122.564 62.2525 122.293 62.6828 121.44 64.0512C121.242 63.2967 120.927 62.6946 120.228 62.1079C121.166 61.7952 122.079 61.487 123.319 61.0574H123.318ZM123.4 61.2332C123.646 62.3268 123.897 63.3979 124.209 64.6493C123.461 64.1277 122.538 63.9151 121.585 64.128C122.036 63.4049 122.382 62.848 123.4 61.2332ZM124.372 64.6279C124.045 63.3159 123.816 62.3356 123.55 61.1482C124.651 61.6676 125.738 62.1436 126.89 62.6093C125.819 62.8134 124.914 63.6999 124.372 64.6279ZM127.177 59.5136C126.564 58.9129 126.069 58.2074 125.858 57.3658C126.312 56.6559 126.703 56.0471 127.178 55.3122C127.52 56.6596 128.249 57.8753 129.367 58.7077C128.638 58.9795 127.908 59.248 127.178 59.5136H127.177ZM125.719 57.2797C124.724 57.5284 123.664 57.4706 122.703 57.112C122.519 56.1693 122.343 55.2247 122.177 54.2786C123.57 55.1408 125.319 55.509 127.042 55.2206C126.6 55.9063 126.159 56.5926 125.719 57.2797H125.719ZM122.546 57.1598C122.009 58.2567 121.171 58.9162 120.113 59.2123C119.283 58.7566 118.571 58.3435 117.868 57.9194C119.673 57.3114 121.112 55.9743 122.025 54.3518C122.19 55.2894 122.363 56.2255 122.546 57.1598ZM120.033 59.3554C120.315 60.3592 120.425 61.0592 120.002 62.0101C118.785 62.415 117.868 62.7123 116.959 63.0032C117.627 61.4929 117.918 59.7957 117.768 58.05C118.514 58.5002 119.269 58.9357 120.033 59.3551V59.3554ZM120.045 62.1686C120.818 62.7906 121.122 63.4167 121.319 64.2435C120.52 65.5251 120.166 66.0996 119.864 66.5892C119.294 65.2569 118.325 64.053 116.995 63.1632C118.014 62.8373 119.03 62.5059 120.045 62.1686H120.045ZM121.46 64.3274C122.473 64.0482 123.484 64.27 124.271 64.8972C124.502 65.8219 124.699 66.5852 124.955 67.532C123.433 66.7058 121.713 66.2361 120.027 66.6367C120.504 65.8661 120.981 65.0962 121.461 64.3274H121.46ZM124.429 64.8608C124.997 63.8066 126.002 62.8116 127.2 62.7329C127.926 63.022 128.657 63.2978 129.394 63.5605C127.506 64.1943 125.838 65.5538 125.097 67.4279C124.891 66.6624 124.699 65.9359 124.429 64.8611V64.8608ZM127.275 62.5879C126.946 61.6507 126.925 60.6186 127.223 59.6703C127.941 59.4095 128.658 59.1458 129.374 58.8787C128.722 60.2772 128.702 61.9383 129.474 63.4152C128.736 63.1529 128.003 62.877 127.275 62.5879ZM128.649 52.7422C127.975 53.7776 127.588 54.3753 127.163 55.0327C125.505 55.3494 123.669 55.054 122.139 54.0608C121.983 53.163 121.834 52.2636 121.694 51.3632C123.655 52.7425 126.233 53.3222 128.649 52.7418V52.7422ZM121.533 51.3852C121.705 52.4957 121.833 53.2534 121.98 54.095C121.055 55.8275 119.551 57.2249 117.684 57.808C116.901 57.3316 116.128 56.8383 115.365 56.3282C117.734 55.2637 119.879 53.5919 121.533 51.3852ZM115.325 56.4977C116.086 57.0061 116.828 57.4787 117.596 57.9459C117.76 59.6684 117.501 61.4476 116.75 63.0698C115.931 63.3309 115.112 63.5884 114.291 63.8419C115.356 61.455 115.899 59.0479 115.325 56.4981L115.325 56.4977ZM114.371 63.9883C115.278 63.708 116 63.481 116.796 63.2269C118.095 64.0655 119.163 65.2911 119.759 66.7591C119.306 67.4926 118.855 68.2272 118.405 68.9621C117.85 66.6779 116.294 64.8964 114.371 63.9883ZM121.46 68.3519C120.474 68.3809 119.489 68.631 118.571 69.0033C119.023 68.2647 119.442 67.5827 119.903 66.8371C121.634 66.3652 123.457 66.8765 125.015 67.7523C125.173 68.3346 125.334 68.9158 125.499 69.4958C124.173 68.677 122.689 68.3158 121.46 68.3519ZM125.667 69.4833C125.498 68.8896 125.333 68.2945 125.171 67.6986C125.859 65.7208 127.628 64.266 129.648 63.6499C130.464 63.9368 131.287 64.2075 132.114 64.4609C129.496 65.3698 127.21 67.1329 125.667 69.4829V69.4833ZM132.244 64.3292C131.338 64.0534 130.524 63.7849 129.705 63.4968C128.909 62.0961 128.804 60.35 129.595 58.7963C130.495 58.4597 131.373 58.1269 132.422 57.7219C131.512 59.8417 131.429 62.2355 132.243 64.3289L132.244 64.3292Z" fill="black"/>
<path d="M49.0879 78.4462C48.8297 78.1144 48.7432 77.6903 48.8499 77.282L53.0557 61.2125C51.1886 60.3874 49.7732 58.9948 49.0077 57.2042C47.3425 53.3078 49.7136 48.8574 53.2459 47.1308C56.0351 45.7672 59.6263 46.0968 62.2246 47.9102C66.8019 51.1045 66.5294 57.6673 62.0532 60.5743C60.3215 61.6988 58.0163 62.2457 55.6769 61.9401L51.4828 77.9654C51.1974 79.056 49.7754 79.3293 49.0882 78.4462H49.0879Z" fill="white"/>
<path d="M64.1374 52.8979C63.1998 48.2849 57.608 46.3998 53.8042 48.2592C51.0944 49.5837 48.6958 53.2573 50.1722 56.7127C51.9478 60.8674 57.7363 61.8752 61.3606 59.5215C63.7026 58.0005 64.6332 55.337 64.1374 52.8979ZM61.9477 58.8487C58.8097 61.5387 53.0663 61.091 50.788 57.4796C48.4236 53.7322 51.2353 48.9753 55.1453 47.9642C59.2029 46.9147 63.8821 49.4624 64.0715 53.9109C64.148 55.7107 63.4554 57.5561 61.9477 58.8487Z" fill="black"/>
<path d="M57.1931 53.4364C56.4567 53.6089 56.119 54.6785 56.7505 55.3105C57.0518 55.6121 57.4976 55.7552 57.9203 55.7324C59.7521 55.6338 61.0571 52.4436 58.7924 51.2805C57.4866 50.6099 55.7206 51.1558 54.8805 52.1004C53.5592 53.5853 53.8094 56.4007 56.2352 57.4431C59.9584 59.0432 63.334 54.8176 62.2298 52.0515C61.2646 49.6337 58.0497 48.3974 55.5275 49.4925C54.6403 49.8776 53.6714 50.6798 53.0388 51.389C51.4313 53.1914 51.2231 55.0931 52.1876 56.905C53.2543 58.9097 55.7633 60.2332 57.925 60.704C58.0442 60.7297 58.095 60.548 57.9754 60.5219C57.1386 60.3398 56.325 60.043 55.5584 59.6645C53.7913 58.7916 52.3222 57.5013 51.8974 55.593C51.4641 53.6468 52.5253 51.9573 54.0562 50.6688C54.4678 50.3223 54.9081 50.0063 55.3903 49.7639C58.326 48.2896 62.1246 50.376 62.2541 53.0277C62.3523 55.0408 60.4929 57.5531 57.9817 57.5991C56.2639 57.6307 54.6322 56.5806 54.3284 54.8429C53.7557 51.5674 57.7168 50.2112 59.2937 51.8878C60.4425 53.109 59.474 55.1836 58.1741 55.505C57.3696 55.704 56.4688 55.1604 56.6236 54.3346C56.6858 54.0039 56.9025 53.6975 57.2442 53.6173C57.363 53.5894 57.3126 53.4077 57.1938 53.4352L57.1931 53.4364Z" fill="black"/>
<path d="M54.5921 60.3381C54.0433 62.4351 50.5633 75.7319 50.0748 77.5987C50.0439 77.7164 50.2271 77.7664 50.258 77.6487C51.8904 71.4114 53.8278 64.0095 54.7753 60.3882C54.8062 60.2705 54.623 60.2204 54.5921 60.3381Z" fill="black"/>
<path d="M35.6907 113.525C29.9599 106.836 38.1051 96.3917 47.2248 100.48C54.0922 103.609 54.1916 112.159 48.6619 115.589C47.1704 116.514 45.4066 117.003 43.5623 117.003C40.6005 117.003 37.5898 115.741 35.6907 113.525Z" fill="white"/>
<path d="M46.7389 101.546C44.8869 100.733 42.8527 100.466 40.8981 101.016C38.3468 101.736 35.541 104.171 35.0363 107.423C34.0259 113.937 42.5309 118.012 48.044 114.592C52.6908 111.71 52.8479 104.329 46.7389 101.546V101.546ZM50.035 112.445C46.1496 118.184 35.7598 115.696 35.1551 108.994C34.7913 104.962 38.4303 101.248 42.3771 100.929C43.3504 100.85 44.3318 100.955 45.2731 101.21C50.8362 102.718 52.7912 108.373 50.035 112.444V112.445Z" fill="black"/>
<path d="M38.4991 104.535C36.0964 106.912 37.1432 111.274 40.869 112.19C43.6903 112.883 46.6168 111.33 46.843 108.384C47.152 104.362 41.5856 101.482 38.4991 104.535ZM45.9874 110.342C44.5558 112.432 41.2277 112.761 39.1325 111.184C36.2663 109.027 37.0557 104.414 40.5891 103.556C43.2695 102.906 46.4229 104.943 46.6638 107.718C46.7433 108.635 46.5083 109.582 45.987 110.342H45.9874Z" fill="black"/>
<path d="M39.3984 105.764C38.5105 106.65 38.4329 108.2 39.4198 109.235C40.8793 110.705 43.801 110.104 43.9724 107.858C44.1413 105.647 41.0802 104.084 39.3981 105.764H39.3984ZM43.4361 108.893C42.6777 110.001 40.9036 110.171 39.7953 109.332C38.825 108.597 38.5682 107.171 39.2914 106.159C40.6053 104.319 43.6256 105.464 43.7959 107.507C43.8363 107.993 43.712 108.49 43.4361 108.893V108.893Z" fill="black"/>
<path d="M41.1427 109.942C41.1107 110.681 41.0783 111.42 41.0463 112.158C41.0415 112.272 41.2174 112.271 41.2222 112.158C41.2542 111.42 41.2865 110.681 41.3185 109.942C41.3233 109.829 41.1475 109.829 41.1427 109.942Z" fill="black"/>
<path d="M42.9899 103.516C42.7258 104.129 42.4617 104.742 42.1976 105.355C42.1535 105.458 42.3047 105.547 42.3496 105.443C42.6137 104.831 42.8778 104.217 43.1419 103.605C43.186 103.502 43.0348 103.412 42.9899 103.516Z" fill="black"/>
<path d="M40.318 109.716C40.0543 110.329 39.7905 110.94 39.5272 111.552C39.483 111.655 39.6342 111.745 39.6791 111.641C39.9428 111.029 40.2066 110.417 40.4699 109.805C40.5141 109.703 40.3629 109.613 40.318 109.716Z" fill="black"/>
<path d="M37.5839 106.06C38.0301 106.253 38.4766 106.445 38.9228 106.637C39.0258 106.681 39.1152 106.53 39.0115 106.485C38.5653 106.293 38.1187 106.1 37.6726 105.908C37.5699 105.864 37.4802 106.015 37.5839 106.06Z" fill="black"/>
<path d="M43.6554 108.676C44.5584 109.066 45.4614 109.454 46.3641 109.844C46.4671 109.888 46.5565 109.737 46.4527 109.692C45.5497 109.303 44.6467 108.914 43.744 108.525C43.6414 108.48 43.5516 108.632 43.6554 108.676Z" fill="black"/>
<path d="M37.5556 109.169C38.0507 108.973 38.5458 108.777 39.0413 108.581C39.1454 108.54 39.1001 108.37 38.9945 108.412C38.4994 108.607 38.0043 108.804 37.5089 108.999C37.4048 109.04 37.45 109.21 37.5556 109.169Z" fill="black"/>
<path d="M43.6653 106.753C44.4642 106.437 45.2631 106.121 46.0621 105.805C46.1662 105.764 46.1209 105.594 46.0154 105.636C45.2164 105.952 44.4175 106.268 43.6186 106.583C43.5145 106.625 43.5597 106.795 43.6653 106.753Z" fill="black"/>
<path d="M39.717 103.76C39.9182 104.264 40.1194 104.769 40.3202 105.274C40.3614 105.378 40.5317 105.333 40.4898 105.227C40.2886 104.723 40.0874 104.218 39.8865 103.713C39.8454 103.609 39.675 103.654 39.717 103.76Z" fill="black"/>
<path d="M42.1465 109.858C42.4573 110.638 42.7678 111.417 43.0786 112.197C43.1198 112.301 43.2901 112.256 43.2482 112.151C42.9374 111.371 42.6269 110.591 42.3161 109.811C42.2749 109.707 42.1046 109.753 42.1465 109.858Z" fill="black"/>
<path d="M44.7261 104.356C44.1655 104.869 43.605 105.383 43.0448 105.896C42.9613 105.972 43.0856 106.096 43.1691 106.02C43.7297 105.507 44.2902 104.994 44.8504 104.481C44.9339 104.404 44.8096 104.28 44.7261 104.356Z" fill="black"/>
<path d="M39.4742 109.164C39.0413 109.56 38.6083 109.957 38.1754 110.353C38.0919 110.429 38.2162 110.553 38.2997 110.477C38.7327 110.081 39.1656 109.684 39.5985 109.288C39.682 109.212 39.5577 109.088 39.4742 109.164Z" fill="black"/>
<path d="M38.5204 104.639C38.861 105.011 39.202 105.383 39.5426 105.756C39.6191 105.839 39.7431 105.715 39.667 105.631C39.3263 105.259 38.9854 104.887 38.6447 104.514C38.5682 104.431 38.4443 104.555 38.5204 104.639Z" fill="black"/>
<path d="M42.9708 109.5C43.5983 110.185 44.2259 110.871 44.8534 111.556C44.9299 111.64 45.0539 111.515 44.9777 111.432C44.3502 110.746 43.7227 110.061 43.0952 109.375C43.0186 109.292 42.8947 109.416 42.9708 109.5Z" fill="black"/>
<path d="M38.7878 107.551C38.9008 107.556 38.9008 107.38 38.7878 107.375C38.2938 107.352 37.8002 107.33 37.3062 107.307C37.1933 107.302 37.1933 107.477 37.3062 107.483C37.3467 107.483 37.0197 107.469 38.7878 107.551Z" fill="black"/>
<path d="M46.7602 107.919C46.8732 107.924 46.8732 107.749 46.7602 107.743C45.8039 107.699 44.8475 107.655 43.8911 107.611C43.7782 107.606 43.7782 107.782 43.8911 107.787C43.9691 107.787 43.3361 107.761 46.7602 107.919Z" fill="black"/>
<path d="M41.43 103.348C41.4035 103.953 41.3774 104.558 41.3509 105.163C41.3461 105.277 41.5219 105.276 41.5267 105.163C41.5532 104.558 41.5793 103.953 41.6058 103.348C41.6106 103.235 41.4348 103.235 41.43 103.348Z" fill="black"/>
</g>
</g>
<defs>
<clipPath id="clip0_112_1131">
<rect width="137.526" height="126.701" fill="white" transform="translate(6 19)"/>
</clipPath>
</defs>
</svg>
