<svg width="668" height="110" viewBox="0 0 668 110" fill="none" xmlns="http://www.w3.org/2000/svg">
<path d="M33.0838 75.5354L43.0279 54.5004L33.0838 33.4638C33.0838 33.4638 59.1673 31.3527 60.6731 54.4996C59.1673 77.6464 33.0838 75.5354 33.0838 75.5354ZM89.9999 54.4996C90.0059 51.2741 89.6298 48.0591 88.8793 44.9209C89.1952 46.2356 89.5033 47.4963 88.8662 44.8634C88.2308 42.2409 88.531 43.4842 88.8477 44.7954C85.5281 31.1889 76.1851 20.0027 62.7783 13.2766C52.6517 8.1945 42.6426 7.27532 31.4428 7H4L13.9423 54.5004L4 102H31.4428C42.6426 101.725 52.6525 100.806 62.7792 95.7234C76.1851 88.9981 85.5272 77.812 88.8477 64.2046C88.531 65.5158 88.2308 66.7582 88.8653 64.1366C89.5033 61.5028 89.1961 62.7644 88.8793 64.0791C89.6295 60.9408 90.0053 57.7259 89.9991 54.5004" fill="#1A63E8"/>
<path d="M140.315 93.015V32.85H162.785L165.62 18.255H100.73L98 32.85H122.99V93.015H140.315ZM188.72 93.015V60.045C188.72 58.155 188.86 56.563 189.14 55.268C189.42 53.972 189.927 52.94 190.662 52.17C191.397 51.4 192.395 50.84 193.655 50.49C194.915 50.14 196.49 49.965 198.38 49.965C200.27 49.965 201.793 50.123 202.947 50.437C204.102 50.753 204.995 51.26 205.625 51.96C206.255 52.66 206.675 53.535 206.885 54.585C207.095 55.635 207.2 56.895 207.2 58.365V93.015H223.895V54.9C223.895 48.39 222.022 43.683 218.278 40.777C214.532 37.872 209.37 36.42 202.79 36.42C199.08 36.42 196.14 36.787 193.97 37.522C191.8 38.257 190.05 39.15 188.72 40.2V15H172.025V93.015H188.72ZM250.67 93.015V60.255C250.67 58.715 250.757 57.367 250.933 56.212C251.108 55.057 251.51 54.13 252.14 53.43C252.77 52.73 253.662 52.205 254.818 51.855C255.973 51.505 257.495 51.33 259.385 51.33C260.995 51.33 262.64 51.347 264.32 51.382C266 51.417 267.155 51.47 267.785 51.54L270.305 37.995C267.785 37.855 265.562 37.785 263.637 37.785H257.705C253.785 37.785 250.338 38.117 247.363 38.782C244.388 39.447 241.903 40.585 239.908 42.195C237.913 43.805 236.425 45.94 235.445 48.6C234.465 51.26 233.975 54.55 233.975 58.47V93.015H250.67ZM283.64 31.065C287.28 31.065 289.765 30.435 291.095 29.175C292.425 27.915 293.09 25.85 293.09 22.98C293.09 20.25 292.425 18.237 291.095 16.942C289.765 15.647 287.28 15 283.64 15C279.93 15 277.41 15.647 276.08 16.942C274.75 18.237 274.085 20.25 274.085 22.98C274.085 25.85 274.75 27.915 276.08 29.175C277.41 30.435 279.93 31.065 283.64 31.065ZM291.935 93.015V38.1H275.24V93.015H291.935ZM336.455 93.015L355.46 38.1H338.24L327.005 76.215L316.085 38.1H297.815L317.03 93.015H336.455ZM395.885 93.225C398.895 93.225 402.15 93.155 405.65 93.015L408.065 79.995C403.935 80.065 400.208 80.1 396.883 80.1H387.59C385.56 80.1 383.88 79.978 382.55 79.733C381.22 79.488 380.152 79.015 379.347 78.315C378.542 77.615 377.982 76.705 377.667 75.585C377.352 74.465 377.16 72.995 377.09 71.175H401.87C403.62 71.175 405.09 71 406.28 70.65C407.47 70.3 408.433 69.67 409.168 68.76C409.903 67.85 410.41 66.66 410.69 65.19C410.97 63.72 411.11 61.83 411.11 59.52V57.315C411.11 50.735 409.22 45.608 405.44 41.932C401.66 38.257 395.36 36.42 386.54 36.42C381.64 36.42 377.528 36.962 374.203 38.047C370.878 39.132 368.183 40.76 366.118 42.93C364.053 45.1 362.583 47.812 361.708 51.067C360.833 54.322 360.395 58.155 360.395 62.565V68.34C360.395 72.54 360.798 76.197 361.603 79.313C362.408 82.427 363.79 85.017 365.75 87.083C367.71 89.147 370.335 90.687 373.625 91.703C376.915 92.717 381.045 93.225 386.015 93.225H395.885ZM395.255 59.625H377.09C377.09 57.385 377.212 55.565 377.457 54.165C377.702 52.765 378.157 51.662 378.822 50.857C379.487 50.052 380.397 49.492 381.552 49.177C382.708 48.862 384.23 48.705 386.12 48.705C388.01 48.705 389.533 48.862 390.687 49.177C391.842 49.492 392.77 50.052 393.47 50.857C394.17 51.662 394.643 52.765 394.888 54.165C395.133 55.565 395.255 57.385 395.255 59.625ZM452.06 93.015C458.43 93.015 463.715 92.315 467.915 90.915C472.115 89.515 475.475 87.415 477.995 84.615C480.515 81.815 482.282 78.368 483.298 74.273C484.313 70.178 484.82 65.435 484.82 60.045V51.12C484.82 45.59 484.313 40.778 483.298 36.683C482.283 32.588 480.515 29.175 477.995 26.445C475.475 23.715 472.08 21.668 467.81 20.303C463.54 18.938 458.185 18.255 451.745 18.255H420.875V93.015H452.06ZM450.38 78.525H437.885V32.745H450.38C453.46 32.745 456.05 33.008 458.15 33.532C460.25 34.057 461.947 35.002 463.243 36.367C464.537 37.733 465.465 39.605 466.025 41.985C466.585 44.365 466.865 47.445 466.865 51.225V59.94C466.865 63.72 466.585 66.818 466.025 69.233C465.465 71.647 464.537 73.537 463.242 74.903C461.947 76.267 460.25 77.213 458.15 77.737C456.05 78.263 453.46 78.525 450.38 78.525ZM528.815 93.225C531.825 93.225 535.08 93.155 538.58 93.015L540.995 79.995C536.865 80.065 533.138 80.1 529.813 80.1H520.52C518.49 80.1 516.81 79.978 515.48 79.733C514.15 79.488 513.082 79.015 512.278 78.315C511.473 77.615 510.913 76.705 510.598 75.585C510.283 74.465 510.09 72.995 510.02 71.175H534.8C536.55 71.175 538.02 71 539.21 70.65C540.4 70.3 541.362 69.67 542.098 68.76C542.833 67.85 543.34 66.66 543.62 65.19C543.9 63.72 544.04 61.83 544.04 59.52V57.315C544.04 50.735 542.15 45.608 538.37 41.932C534.59 38.257 528.29 36.42 519.47 36.42C514.57 36.42 510.458 36.962 507.133 38.047C503.808 39.132 501.113 40.76 499.048 42.93C496.983 45.1 495.513 47.812 494.638 51.067C493.763 54.322 493.325 58.155 493.325 62.565V68.34C493.325 72.54 493.728 76.197 494.533 79.313C495.338 82.427 496.72 85.017 498.68 87.083C500.64 89.147 503.265 90.687 506.555 91.703C509.845 92.717 513.975 93.225 518.945 93.225H528.815ZM528.185 59.625H510.02C510.02 57.385 510.143 55.565 510.388 54.165C510.633 52.765 511.088 51.663 511.753 50.858C512.418 50.053 513.328 49.493 514.483 49.178C515.638 48.863 517.16 48.705 519.05 48.705C520.94 48.705 522.463 48.863 523.618 49.178C524.773 49.493 525.7 50.053 526.4 50.858C527.1 51.663 527.573 52.765 527.818 54.165C528.063 55.565 528.185 57.385 528.185 59.625ZM575.435 93.225C583.695 93.225 589.75 91.86 593.6 89.13C597.45 86.4 599.375 82.13 599.375 76.32V74.535C599.375 72.365 599.112 70.352 598.588 68.498C598.081 66.6755 597.145 65.0011 595.858 63.615C594.563 62.215 592.83 61.06 590.66 60.15C588.49 59.24 585.795 58.645 582.575 58.365L572.915 57.525C570.465 57.315 568.89 56.947 568.19 56.422C567.49 55.897 567.14 55.075 567.14 53.955C567.14 52.555 567.63 51.68 568.61 51.33C569.59 50.98 571.34 50.805 573.86 50.805H581.42C583.17 50.805 585.217 50.822 587.563 50.857C589.908 50.892 592.69 50.945 595.91 51.015L598.325 38.1C595.315 38.03 592.637 37.977 590.292 37.942C588.21 37.9093 586.127 37.892 584.045 37.89H574.91C570.57 37.89 566.895 38.257 563.885 38.992C560.875 39.727 558.443 40.795 556.587 42.195C554.732 43.595 553.385 45.292 552.545 47.287C551.705 49.282 551.285 51.575 551.285 54.165V56.16C551.285 60.43 552.51 64.035 554.96 66.975C557.41 69.915 561.54 71.595 567.35 72.015L577.64 72.75C580.09 72.89 581.665 73.257 582.365 73.853C583.065 74.448 583.415 75.34 583.415 76.53C583.415 78.07 582.907 79.085 581.892 79.575C580.877 80.065 578.9 80.31 575.96 80.31C572.6 80.31 568.82 80.292 564.62 80.258C560.42 80.223 556.57 80.17 553.07 80.1L550.76 93.015C552.93 93.085 555.205 93.137 557.585 93.173C559.965 93.209 562.292 93.225 564.567 93.225H575.435ZM624.68 93.015V68.97L644.315 93.015H664.58L639.17 62.775L662.48 38.1H642.74L624.68 58.05V15H607.985V93.015H624.68Z" fill="#263642"/>
</svg>
