<svg width="127" height="27" viewBox="0 0 127 27" fill="none" xmlns="http://www.w3.org/2000/svg">
<path fill-rule="evenodd" clip-rule="evenodd" d="M123.738 21.9417C123.237 21.9417 122.792 21.821 122.401 21.5794C122.01 21.338 121.695 21.0164 121.455 20.6135C121.214 20.2111 121.094 19.7682 121.094 19.2853C121.094 18.8025 121.214 18.3598 121.455 17.9571C121.695 17.5546 122.01 17.2327 122.401 16.9911C122.792 16.7497 123.237 16.6289 123.738 16.6289C124.239 16.6289 124.685 16.7497 125.076 16.9911C125.466 17.2327 125.782 17.5546 126.022 17.9571C126.263 18.3598 126.383 18.8025 126.383 19.2853C126.383 19.7682 126.263 20.2111 126.022 20.6135C125.782 21.0164 125.466 21.338 125.076 21.5794C124.685 21.821 124.239 21.9417 123.738 21.9417Z" fill="black"/>
<path fill-rule="evenodd" clip-rule="evenodd" d="M0.701993 10.2445C0.657942 10.2445 0.612678 10.2433 0.568453 10.2414C0.363808 10.2327 0.198704 10.071 0.187084 9.8657L0.000648444 6.52464C-0.0123587 6.29313 0.171996 6.10029 0.402482 6.10394C1.69886 6.12537 5.6702 6.02973 8.40759 4.19712C11.6977 1.99503 14.5116 0.76516 15.5064 0.36118C15.7138 0.27669 15.9481 0.38244 16.0254 0.59357L17.1219 3.58585C17.1954 3.78652 17.0991 4.00968 16.9025 4.09121C16.0043 4.46296 13.4986 5.57558 10.6063 7.51132C6.8183 10.0472 2.08214 10.2445 0.701993 10.2445Z" fill="black"/>
<path fill-rule="evenodd" clip-rule="evenodd" d="M10.7046 26.584L9.88086 23.5042C9.82588 23.2982 9.94139 23.0849 10.1441 23.0213C11.1853 22.6944 14.2885 21.6211 17.1504 19.6371C21.7076 16.4782 25.3225 16.6186 26.5653 16.7954C26.7958 16.828 26.9465 17.0552 26.8919 17.2823L26.062 20.7457L26.0971 20.7537C25.9838 20.7305 23.2839 20.2249 19.4022 22.9152C15.9867 25.2827 12.3804 26.5021 11.2013 26.8622C10.9869 26.9278 10.7627 26.8014 10.7046 26.584Z" fill="black"/>
<path fill-rule="evenodd" clip-rule="evenodd" d="M0.872419 16.7449C0.65043 16.7689 0.454109 16.604 0.436246 16.3805L0.152344 12.8144L0.310337 14.7991L0.181653 13.2023C0.164484 12.9883 0.317448 12.7992 0.529897 12.7748C2.06664 12.5982 7.92471 11.7646 11.8118 8.98433C17.2776 5.07558 25.0633 4.47354 27.1079 4.37546C27.363 4.36326 27.5615 4.59322 27.5154 4.84529L26.971 7.81892C26.9384 7.99678 26.792 8.13022 26.6122 8.14381C25.1547 8.25321 18.75 8.91152 14.1116 12.2289C9.34683 15.6366 2.59907 16.5589 0.872419 16.7449Z" fill="black"/>
<path fill-rule="evenodd" clip-rule="evenodd" d="M1.35366 23.0283C1.13497 23.0645 0.930318 22.9138 0.897887 22.6937L0.375 19.152L0.66584 21.1218L0.431885 19.5406C0.400147 19.3262 0.543746 19.1258 0.756543 19.0898C2.59055 18.7783 10.5528 17.2875 14.5598 14.2842C20.066 10.1575 25.3556 10.5913 26.8629 10.8248C27.0906 10.8602 27.2387 11.0826 27.187 11.3079L26.3891 14.7827C26.3891 14.7827 25.2233 14.5399 23.4791 14.7544C21.1643 15.0386 18.9613 15.9547 16.931 17.4761C12.1273 21.0765 3.34965 22.6973 1.35366 23.0283Z" fill="black"/>
<path d="M32 9.2784V6.09131H44.642V9.2784H40.267V20.661H36.375V9.2784H32Z" fill="black"/>
<path d="M46.1855 20.6608V9.7335H50.106V20.6608H46.1855ZM48.1457 8.59527C47.6154 8.59527 47.1609 8.41979 46.7821 8.06883C46.4033 7.71786 46.2139 7.29576 46.2139 6.80252C46.2139 6.30927 46.4033 5.88717 46.7821 5.53621C47.1609 5.18525 47.6154 5.00977 48.1457 5.00977C48.6808 5.00977 49.1353 5.18525 49.5094 5.53621C49.8882 5.88717 50.0776 6.30927 50.0776 6.80252C50.0776 7.29576 49.8882 7.71786 49.5094 8.06883C49.1353 8.41979 48.6808 8.59527 48.1457 8.59527Z" fill="black"/>
<path d="M56.0239 14.5143V20.6609H52.1035V9.73361H55.8251V11.8109H55.9387C56.1755 11.1185 56.5921 10.5755 57.1887 10.1818C57.79 9.78821 58.4908 9.59131 59.291 9.59131C60.0628 9.59131 60.7327 9.76921 61.3009 10.1249C61.8738 10.4759 62.3166 10.9596 62.6291 11.5762C62.9463 12.1927 63.1025 12.897 63.0978 13.6891V20.6609H59.1773V14.5143C59.1821 13.9736 59.0448 13.5491 58.7654 13.2409C58.4908 12.9326 58.1073 12.7785 57.6148 12.7785C57.2929 12.7785 57.0112 12.8496 56.7697 12.9919C56.5329 13.1294 56.3506 13.3286 56.2228 13.5895C56.095 13.8456 56.0287 14.1538 56.0239 14.5143Z" fill="black"/>
<path d="M67.0287 24.7584C66.5789 24.7584 66.1504 24.7228 65.7432 24.6517C65.336 24.5853 64.9785 24.4928 64.6708 24.3742L65.523 21.5855C65.845 21.6993 66.1386 21.7728 66.4037 21.806C66.6736 21.8392 66.9032 21.8203 67.0926 21.7491C67.2868 21.678 67.4264 21.5428 67.5117 21.3436L67.5969 21.1444L63.7617 9.7334H67.8526L69.6139 17.3028H69.7276L71.5173 9.7334H75.6367L71.6594 21.5713C71.4605 22.1736 71.1717 22.7143 70.7929 23.1933C70.4189 23.677 69.9264 24.0588 69.3156 24.3387C68.7048 24.6185 67.9425 24.7584 67.0287 24.7584Z" fill="black"/>
<path d="M83.2855 9.73355V12.5793H75.9844V9.73355H83.2855ZM77.3764 20.6609V9.42055C77.3764 8.51943 77.5374 7.77245 77.8594 7.17961C78.1813 6.58677 78.6359 6.14333 79.223 5.84928C79.8101 5.55523 80.5014 5.4082 81.2969 5.4082C81.794 5.4082 82.277 5.44615 82.7457 5.52203C83.2192 5.59791 83.5696 5.66431 83.7969 5.72122L83.2287 8.53841C83.0867 8.49572 82.9209 8.46252 82.7315 8.43881C82.5421 8.41035 82.3764 8.39612 82.2344 8.39612C81.8651 8.39612 81.6165 8.47438 81.4886 8.63089C81.3608 8.7874 81.2969 8.99371 81.2969 9.24985V20.6609H77.3764Z" fill="black"/>
<path d="M88.7193 6.09131V20.661H84.7988V6.09131H88.7193Z" fill="black"/>
<path d="M95.9718 20.8601C94.7881 20.8601 93.7749 20.6253 92.9321 20.1558C92.0893 19.6815 91.443 19.0223 90.9932 18.178C90.5433 17.3291 90.3184 16.345 90.3184 15.2257C90.3184 14.1064 90.5433 13.1247 90.9932 12.2805C91.443 11.4315 92.0893 10.7723 92.9321 10.3027C93.7749 9.82851 94.7881 9.59131 95.9718 9.59131C97.1556 9.59131 98.1688 9.82851 99.0116 10.3027C99.8544 10.7723 100.501 11.4315 100.951 12.2805C101.4 13.1247 101.625 14.1064 101.625 15.2257C101.625 16.345 101.4 17.3291 100.951 18.178C100.501 19.0223 99.8544 19.6815 99.0116 20.1558C98.1688 20.6253 97.1556 20.8601 95.9718 20.8601ZM96.0003 17.9575C96.3317 17.9575 96.6182 17.8461 96.8596 17.6231C97.1011 17.4002 97.2881 17.0825 97.4207 16.6699C97.5533 16.2572 97.6196 15.7664 97.6196 15.1972C97.6196 14.6234 97.5533 14.1325 97.4207 13.7246C97.2881 13.312 97.1011 12.9942 96.8596 12.7713C96.6182 12.5484 96.3317 12.437 96.0003 12.437C95.6499 12.437 95.3492 12.5484 95.0983 12.7713C94.8473 12.9942 94.6556 13.312 94.523 13.7246C94.3904 14.1325 94.3241 14.6234 94.3241 15.1972C94.3241 15.7664 94.3904 16.2572 94.523 16.6699C94.6556 17.0825 94.8473 17.4002 95.0983 17.6231C95.3492 17.8461 95.6499 17.9575 96.0003 17.9575Z" fill="black"/>
<path d="M104.953 20.6607L102.225 9.7334H106.146L107.396 16.3922H107.481L108.873 9.7334H112.68L114.129 16.3353H114.214L115.407 9.7334H119.328L116.6 20.6607H112.368L110.833 14.7987H110.72L109.186 20.6607H104.953Z" fill="black"/>
</svg>
