<svg width="150" height="165" viewBox="0 0 150 165" fill="none" xmlns="http://www.w3.org/2000/svg">
<mask id="mask0_112_1075" style="mask-type:alpha" maskUnits="userSpaceOnUse" x="0" y="0" width="150" height="165">
<rect width="150" height="165" fill="#D9D9D9"/>
</mask>
<g mask="url(#mask0_112_1075)">
</g>
<g clip-path="url(#clip0_112_1075)">
<g filter="url(#filter0_b_112_1075)">
<path d="M119.527 61.1368C119.527 61.1368 118.348 83.0611 118.501 92.9689C118.775 110.628 119.527 149.797 119.527 149.797H30.4728C30.4728 149.797 31.2268 110.628 31.5005 92.9689C31.6525 83.0611 30.4728 61.1368 30.4728 61.1368C30.4728 61.1368 34.1182 50.8653 33.4047 41.6327C32.6892 32.4006 27.4321 24.1183 27.4321 24.1183L54.3065 15.8218C54.3065 15.8218 54.8236 39.668 74.9997 39.668C95.1758 39.668 95.973 17.9046 96.0702 15.94L122.568 24.119C122.568 24.119 117.311 32.4013 116.597 41.6333C115.884 50.8653 119.527 61.1375 119.527 61.1375L119.527 61.1368Z" fill="white" fill-opacity="0.4"/>
</g>
<path d="M119.734 150H30.2661L30.2699 149.793C30.2777 149.401 31.0272 110.423 31.2977 92.9657C31.4477 83.1787 30.2822 61.3668 30.2699 61.1478L30.268 61.1071L30.2815 61.069C30.3176 60.9669 33.9037 50.7303 33.2018 41.6488C32.498 32.5725 27.3129 24.3102 27.2601 24.2275L27.1172 24.0027L54.5035 15.5479L54.5093 15.8173C54.5106 15.8767 54.6697 21.8165 57.277 27.6729C60.7608 35.4972 66.7237 39.4652 74.9997 39.4652C83.2757 39.4652 88.9888 35.7594 92.6161 28.4507C95.3979 22.845 95.8126 17.0376 95.8674 15.9303L95.8803 15.6693L122.882 24.0033L122.739 24.2281C122.686 24.3108 117.5 32.5764 116.799 41.6495C116.097 50.7309 119.681 60.9669 119.717 61.0696L119.731 61.1084L119.729 61.1491C119.717 61.3681 118.551 83.18 118.703 92.9669C118.973 110.424 119.721 149.402 119.729 149.794L119.733 150.001L119.734 150ZM30.6795 149.593H119.321C119.261 146.485 118.559 109.768 118.299 92.9721C118.149 83.3712 119.266 62.2325 119.322 61.1659C119.079 60.4604 115.709 50.501 116.396 41.6172C117.04 33.2838 121.42 25.6339 122.259 24.2353L96.2582 16.2107C96.1565 17.7961 95.624 23.3037 92.9799 28.6316C91.3462 31.9226 89.2032 34.5371 86.6087 36.4023C83.407 38.7041 79.5015 39.8715 75.0003 39.8715C70.4991 39.8715 66.3592 38.604 63.1311 36.1031C60.5508 34.1043 58.4554 31.3205 56.9022 27.8279C54.5808 22.6079 54.179 17.3258 54.1152 16.0938L27.7412 24.2359C28.5802 25.6339 32.9603 33.2844 33.6062 41.6178C34.2927 50.5016 30.921 60.4617 30.6769 61.1666C30.7336 62.2332 31.8502 83.3719 31.7027 92.9728C31.4426 109.769 30.7387 146.486 30.6789 149.594L30.6795 149.593Z" fill="black"/>
<g filter="url(#filter1_b_112_1075)">
<path d="M30.4728 61.1372L13.6458 67.4426L0.264648 40.1871L27.4314 24.1187C27.4314 24.1187 32.6886 32.401 33.404 41.633C34.1175 50.865 30.4721 61.1372 30.4721 61.1372H30.4728Z" fill="white" fill-opacity="0.4"/>
</g>
<path d="M13.5447 67.6976L0 40.1075L27.4978 23.8433L27.6027 24.0093C27.6555 24.0926 32.8953 32.4409 33.6062 41.6173C34.3152 50.7867 30.7001 61.1021 30.6634 61.2055L30.6318 61.2946L13.5447 67.6976ZM0.529967 40.2664L13.7463 67.1879L30.3124 60.98C30.664 59.9521 33.8696 50.2789 33.2025 41.649C32.554 33.2852 28.1005 25.6134 27.3638 24.395L0.529967 40.2664Z" fill="black"/>
<path d="M95.9961 15.9166C96.0399 15.9301 96.0689 15.9708 96.0663 16.0174C95.935 18.4142 94.2356 39.6685 74.9997 39.6685C55.7637 39.6685 54.3619 17.367 54.3091 15.8972C54.3071 15.852 54.3361 15.8119 54.3792 15.799L56.2473 15.2227C56.3355 15.1956 56.4257 15.2576 56.4302 15.35C56.4489 15.7551 56.5152 16.812 56.7316 18.254C57.6376 24.3171 61.1877 37.2025 75.0003 37.2025C88.8129 37.2025 92.5935 24.1401 93.3502 18.1299C93.5324 16.688 93.5685 15.6523 93.5756 15.3002C93.5768 15.2337 93.6412 15.1878 93.7043 15.2079L95.9968 15.9166H95.9961Z" fill="white"/>
<path d="M74.9997 39.8714C70.4914 39.8714 66.5962 38.6781 63.4222 36.3239C60.8599 34.4239 58.7575 31.7648 57.174 28.4208C54.4218 22.6083 54.1301 16.5736 54.1062 15.9043C54.1011 15.768 54.1887 15.6446 54.3194 15.6045L56.1881 15.0283C56.2911 14.9966 56.4 15.0141 56.4882 15.0754C56.5751 15.1368 56.6279 15.2337 56.6331 15.3403C56.6511 15.7279 56.7161 16.7842 56.9325 18.2236C57.7761 23.8688 61.2257 36.9991 75.0003 36.9991C88.775 36.9991 92.4345 23.7854 93.1487 18.1041C93.3283 16.6841 93.365 15.6672 93.3721 15.2957C93.374 15.2001 93.4191 15.1129 93.4964 15.0567C93.5737 15.0005 93.6709 14.9843 93.763 15.0128L96.0554 15.7215C96.1881 15.7628 96.2756 15.8882 96.2679 16.0277C96.1346 18.4678 94.4024 39.8707 74.9991 39.8707L74.9997 39.8714ZM54.5145 15.9702C54.5564 16.9341 54.9105 22.693 57.5404 28.2464C61.0654 35.6902 66.9394 39.4644 74.9997 39.4644C93.8312 39.4644 95.6948 18.8438 95.859 16.0865L93.7739 15.4417C93.7604 15.8998 93.7134 16.8643 93.5505 18.1551C92.8222 23.9431 89.5567 37.4054 74.9997 37.4054C68.9311 37.4054 64.1737 34.953 60.8586 30.1167C58.1534 26.1694 57.0117 21.503 56.5307 18.2837C56.3259 16.916 56.2544 15.8869 56.2313 15.4398L54.5145 15.9696V15.9702Z" fill="black"/>
<path d="M93.5756 15.2867C93.5692 15.6239 93.535 16.6634 93.3515 18.1189C93.3509 18.126 93.3483 18.1325 93.3438 18.1383C93.1397 18.4019 87.9288 24.9645 75.144 24.9645C63.5883 24.9645 57.3504 18.8884 56.74 18.263C56.7335 18.2565 56.731 18.2494 56.7297 18.241C56.4998 16.7054 56.4406 15.609 56.427 15.275C56.4257 15.2376 56.4708 15.2182 56.4972 15.2447C57.2493 16.0051 63.7403 22.2123 75.1768 22.2123C87.3461 22.2123 92.8222 16.0839 93.5041 15.2595C93.5292 15.2298 93.5769 15.2473 93.5762 15.286L93.5756 15.2867Z" fill="white"/>
<path d="M75.1439 25.168C63.5362 25.168 57.2712 19.0977 56.5951 18.4051C56.559 18.3683 56.5365 18.3218 56.5288 18.2701C56.2957 16.7125 56.2371 15.5903 56.2242 15.2828C56.2203 15.1807 56.2776 15.089 56.3704 15.0489C56.4631 15.0082 56.5693 15.0289 56.6408 15.1013C57.3401 15.808 63.8028 22.0088 75.1761 22.0088C87.3094 22.0088 92.7649 15.8339 93.347 15.1297C93.4127 15.0502 93.5221 15.0205 93.6187 15.0567C93.7153 15.0929 93.7791 15.1865 93.7772 15.2906C93.7701 15.6678 93.7334 16.7002 93.5511 18.1448C93.5453 18.19 93.5286 18.2301 93.5015 18.265C93.2839 18.546 88.0061 25.1686 75.1427 25.1686L75.1439 25.168ZM56.9222 18.1584C57.7529 18.9943 63.8904 24.7603 75.1439 24.7603C87.4729 24.7603 92.6889 18.63 93.1557 18.0479C93.282 17.0375 93.3354 16.2364 93.3579 15.7305C91.9561 17.2397 86.3344 22.4145 75.1761 22.4145C64.5981 22.4145 58.1927 17.1118 56.6518 15.6756C56.6852 16.184 56.7593 17.0575 56.9222 18.1577V18.1584Z" fill="black"/>
<g filter="url(#filter2_b_112_1075)">
<path d="M93.3496 18.1299C92.5936 24.1401 89.303 37.2025 74.9997 37.2025C60.6964 37.2025 57.6377 24.3177 56.7316 18.2539C57.2912 18.8296 63.5336 24.9638 75.144 24.9638C88.1903 24.9638 93.3496 18.1299 93.3496 18.1299Z" fill="white" fill-opacity="0.4"/>
</g>
<path d="M74.9997 37.4062C68.9311 37.4062 64.1737 34.9538 60.8586 30.1175C58.1534 26.1702 57.0117 21.5038 56.5307 18.2845L56.4373 17.6611L56.8765 18.1127C57.5378 18.793 63.6701 24.7612 75.1439 24.7612C87.9256 24.7612 93.1371 18.0752 93.1879 18.0074L93.6451 17.4033L93.5505 18.1553C92.8222 23.9433 89.5567 37.4062 74.9997 37.4062ZM57.0265 18.8201C58.0201 24.7398 61.6893 36.9999 75.0003 36.9999C88.3113 36.9999 92.1782 24.7599 93.0572 18.7755C92.4506 19.4183 91.2187 20.5664 89.2412 21.7228C86.5546 23.294 81.9285 25.1675 75.1439 25.1675C64.8163 25.1675 58.7368 20.3822 57.0265 18.8195V18.8201Z" fill="white" fill-opacity="0.2"/>
<g filter="url(#filter3_b_112_1075)">
<path d="M149.735 40.1871L136.354 67.4426L119.527 61.1372C119.527 61.1372 115.884 50.8657 116.598 41.633C117.311 32.401 122.569 24.1187 122.569 24.1187L149.735 40.1871H149.735Z" fill="white" fill-opacity="0.4"/>
</g>
<path d="M136.455 67.6976L119.368 61.2946L119.337 61.2055C119.3 61.1021 115.687 50.7867 116.396 41.6173C117.105 32.4402 122.344 24.0926 122.397 24.0093L122.502 23.8433L122.671 23.9428L150 40.1069L136.455 67.6963V67.6976ZM119.688 60.98L136.254 67.1879L149.47 40.2664L122.637 24.395C121.9 25.6134 117.447 33.2885 116.8 41.649C116.133 50.2815 119.337 59.9528 119.688 60.98H119.688Z" fill="black"/>
<path d="M3.1354 39.2809C3.06005 39.2809 2.98793 39.2389 2.95252 39.1659L2.73164 38.7085C2.6827 38.6077 2.7252 38.4856 2.82566 38.4365C2.92611 38.3874 3.04782 38.4294 3.09676 38.5309L3.31763 38.9883C3.36657 39.0897 3.32407 39.2111 3.22362 39.2602C3.19528 39.2738 3.16502 39.2809 3.1354 39.2809Z" fill="black"/>
<path d="M15.6846 65.2462C15.6093 65.2462 15.5371 65.2042 15.5017 65.1312L15.0535 64.2041C15.0046 64.1034 15.0471 63.9812 15.1476 63.9321C15.248 63.8831 15.3697 63.925 15.4187 64.0265L15.8668 64.9536C15.9158 65.0543 15.8739 65.1764 15.7728 65.2255C15.7445 65.2391 15.7142 65.2462 15.6846 65.2462ZM14.7882 63.3914C14.7129 63.3914 14.6408 63.3494 14.6054 63.2764L14.1572 62.3493C14.1082 62.2486 14.1501 62.1264 14.2512 62.0774C14.3516 62.0283 14.4734 62.0709 14.5223 62.1717L14.9705 63.0988C15.0194 63.2002 14.9776 63.3216 14.8765 63.3707C14.8481 63.3843 14.8179 63.3914 14.7882 63.3914ZM13.8919 61.5366C13.8165 61.5366 13.7444 61.4946 13.709 61.4216L13.2608 60.4945C13.2119 60.3938 13.2537 60.2716 13.3548 60.2225C13.4553 60.1734 13.577 60.2161 13.6259 60.3169L14.0741 61.2439C14.123 61.3447 14.0805 61.4668 13.9801 61.5159C13.9518 61.5295 13.9215 61.5366 13.8919 61.5366ZM12.9955 59.6818C12.9202 59.6818 12.848 59.6398 12.8126 59.5668L12.3644 58.6397C12.3155 58.5383 12.3573 58.4168 12.4584 58.3677C12.5589 58.3186 12.6806 58.3613 12.7295 58.4621L13.1777 59.3891C13.2267 59.4899 13.1842 59.612 13.0837 59.6611C13.0554 59.6747 13.0251 59.6818 12.9955 59.6818ZM12.0991 57.827C12.0238 57.827 11.9517 57.785 11.9162 57.712L11.4681 56.7849C11.4191 56.6841 11.461 56.562 11.5621 56.5129C11.6625 56.4638 11.7842 56.5065 11.8332 56.6073L12.2814 57.5343C12.3303 57.6358 12.2878 57.7572 12.1873 57.8063C12.159 57.8199 12.1287 57.827 12.0991 57.827ZM11.2028 55.9722C11.1274 55.9722 11.0553 55.9302 11.0199 55.8572L10.5717 54.9301C10.5227 54.8293 10.5646 54.7072 10.6657 54.6581C10.7662 54.609 10.8879 54.651 10.9368 54.7525L11.385 55.6795C11.4339 55.7803 11.3914 55.9024 11.291 55.9515C11.2626 55.9651 11.2324 55.9722 11.2028 55.9722ZM10.3064 54.1174C10.231 54.1174 10.1589 54.0754 10.1235 54.0024L9.67531 53.0753C9.62637 52.9745 9.66823 52.8524 9.76933 52.8033C9.86979 52.7542 9.99149 52.7969 10.0404 52.8977L10.4886 53.8247C10.5376 53.9255 10.4957 54.0476 10.3946 54.0967C10.3663 54.1103 10.336 54.1174 10.3064 54.1174ZM9.41001 52.2626C9.33467 52.2626 9.26254 52.2206 9.22713 52.1476L8.77894 51.2205C8.73 51.1197 8.7725 50.9976 8.87296 50.9485C8.97406 50.8994 9.09512 50.9421 9.14406 51.0429L9.59225 51.9699C9.64119 52.0707 9.59868 52.1928 9.49823 52.2419C9.4699 52.2555 9.43963 52.2626 9.41001 52.2626ZM8.51364 50.4078C8.4383 50.4078 8.36617 50.3658 8.33076 50.2928L7.88257 49.3657C7.83363 49.2649 7.87549 49.1428 7.97659 49.0937C8.07704 49.0446 8.19875 49.0873 8.24769 49.1881L8.69587 50.1151C8.74481 50.2166 8.70296 50.338 8.60186 50.3871C8.57352 50.4007 8.54326 50.4078 8.51364 50.4078ZM7.61726 48.553C7.54192 48.553 7.4698 48.511 7.43438 48.438L6.9862 47.5109C6.93726 47.4101 6.97976 47.288 7.08021 47.2389C7.18067 47.1898 7.30238 47.2325 7.35132 47.3333L7.7995 48.2603C7.84844 48.3611 7.80594 48.4832 7.70549 48.5323C7.67715 48.5459 7.64689 48.553 7.61726 48.553ZM6.72089 46.6982C6.64555 46.6982 6.57343 46.6562 6.53801 46.5832L6.08983 45.6561C6.04089 45.5553 6.08339 45.4332 6.18384 45.3841C6.2843 45.335 6.406 45.3777 6.45494 45.4785L6.90313 46.4055C6.95207 46.5063 6.90957 46.6284 6.80911 46.6775C6.78078 46.6911 6.75051 46.6982 6.72089 46.6982ZM5.82452 44.8434C5.74918 44.8434 5.67706 44.8014 5.64164 44.7284L5.19345 43.8013C5.14451 43.7005 5.18701 43.5784 5.28747 43.5293C5.38793 43.4802 5.50963 43.5229 5.55857 43.6236L6.00676 44.5507C6.0557 44.6522 6.01384 44.7736 5.91274 44.8227C5.88441 44.8363 5.85414 44.8434 5.82452 44.8434ZM4.92815 42.9886C4.85281 42.9886 4.78069 42.9466 4.74527 42.8736L4.29708 41.9465C4.24814 41.8457 4.29064 41.7236 4.3911 41.6745C4.49155 41.6254 4.61326 41.6674 4.6622 41.7688L5.11039 42.6959C5.15932 42.7967 5.11747 42.9188 5.01637 42.9679C4.98804 42.9815 4.95777 42.9886 4.92815 42.9886ZM4.03178 41.1338C3.95643 41.1338 3.88431 41.0918 3.8489 41.0188L3.40071 40.0917C3.35177 39.9909 3.39427 39.8688 3.49473 39.8197C3.59518 39.7706 3.71689 39.8133 3.76583 39.914L4.21401 40.8411C4.26295 40.9426 4.2211 41.064 4.12 41.1131C4.09166 41.1267 4.0614 41.1338 4.03178 41.1338Z" fill="black"/>
<path d="M16.3536 66.6309C16.2783 66.6309 16.2062 66.5889 16.1708 66.5159L15.9499 66.0585C15.901 65.9577 15.9428 65.8356 16.0439 65.7865C16.1444 65.7374 16.2661 65.7801 16.315 65.8808L16.5359 66.3382C16.5848 66.4397 16.5423 66.5611 16.4419 66.6102C16.4135 66.6238 16.3833 66.6309 16.3536 66.6309Z" fill="black"/>
<path d="M146.865 39.2808C146.836 39.2808 146.805 39.2743 146.777 39.2601C146.677 39.211 146.634 39.0896 146.683 38.9881L146.904 38.5307C146.953 38.43 147.074 38.3873 147.175 38.4364C147.275 38.4855 147.318 38.607 147.269 38.7084L147.048 39.1658C147.013 39.2382 146.941 39.2808 146.865 39.2808Z" fill="black"/>
<path d="M134.317 65.2463C134.287 65.2463 134.257 65.2399 134.228 65.2256C134.128 65.1765 134.086 65.0551 134.134 64.9537L134.583 64.0266C134.632 63.9258 134.753 63.8832 134.854 63.9323C134.954 63.9814 134.997 64.1028 134.948 64.2042L134.5 65.1313C134.465 65.2037 134.392 65.2463 134.317 65.2463ZM135.213 63.3915C135.183 63.3915 135.153 63.3851 135.125 63.3708C135.024 63.3217 134.982 63.2003 135.031 63.0989L135.479 62.1718C135.528 62.0703 135.649 62.0284 135.75 62.0775C135.851 62.1266 135.893 62.248 135.844 62.3494L135.396 63.2765C135.361 63.3489 135.288 63.3915 135.213 63.3915ZM136.109 61.5367C136.08 61.5367 136.05 61.5303 136.021 61.516C135.921 61.4669 135.878 61.3455 135.927 61.2441L136.375 60.317C136.424 60.2162 136.545 60.1736 136.647 60.2227C136.747 60.2718 136.789 60.3932 136.741 60.4946L136.292 61.4217C136.258 61.4941 136.185 61.5367 136.109 61.5367ZM137.006 59.6819C136.976 59.6819 136.946 59.6755 136.918 59.6612C136.817 59.6121 136.775 59.4907 136.824 59.3893L137.272 58.4622C137.321 58.3614 137.442 58.3188 137.543 58.3679C137.644 58.417 137.686 58.5384 137.637 58.6398L137.189 59.5669C137.154 59.6393 137.081 59.6819 137.006 59.6819ZM137.902 57.8271C137.873 57.8271 137.842 57.8207 137.814 57.8064C137.714 57.7573 137.671 57.6359 137.72 57.5345L138.168 56.6074C138.217 56.5066 138.338 56.464 138.439 56.5131C138.54 56.5622 138.582 56.6836 138.533 56.785L138.085 57.7121C138.05 57.7845 137.978 57.8271 137.902 57.8271ZM138.799 55.9723C138.769 55.9723 138.739 55.9658 138.71 55.9516C138.61 55.9025 138.567 55.7811 138.616 55.6796L139.065 54.7526C139.113 54.6518 139.235 54.6098 139.336 54.6582C139.436 54.7073 139.479 54.8288 139.43 54.9302L138.981 55.8573C138.947 55.9297 138.874 55.9723 138.799 55.9723ZM139.695 54.1175C139.665 54.1175 139.635 54.111 139.607 54.0968C139.506 54.0477 139.464 53.9263 139.513 53.8248L139.961 52.8978C140.01 52.797 140.132 52.7543 140.232 52.8034C140.332 52.8525 140.375 52.974 140.326 53.0754L139.878 54.0025C139.843 54.0749 139.77 54.1175 139.695 54.1175ZM140.591 52.2627C140.562 52.2627 140.531 52.2562 140.503 52.242C140.403 52.1929 140.36 52.0715 140.409 51.97L140.857 51.043C140.906 50.9422 141.027 50.8995 141.128 50.9486C141.229 50.9977 141.271 51.1192 141.222 51.2206L140.774 52.1477C140.739 52.2201 140.667 52.2627 140.591 52.2627ZM141.488 50.4079C141.458 50.4079 141.428 50.4014 141.399 50.3872C141.299 50.3381 141.257 50.2167 141.305 50.1152L141.754 49.1882C141.803 49.0874 141.924 49.0447 142.025 49.0938C142.125 49.1429 142.168 49.2644 142.119 49.3658L141.671 50.2929C141.636 50.3653 141.563 50.4079 141.488 50.4079ZM142.384 48.5531C142.354 48.5531 142.324 48.5466 142.296 48.5324C142.195 48.4833 142.153 48.3619 142.202 48.2604L142.65 47.3334C142.699 47.2326 142.82 47.1899 142.921 47.239C143.022 47.2881 143.064 47.4096 143.015 47.511L142.567 48.4381C142.532 48.5105 142.459 48.5531 142.384 48.5531ZM143.28 46.6983C143.251 46.6983 143.221 46.6918 143.192 46.6776C143.092 46.6285 143.049 46.5071 143.098 46.4056L143.546 45.4786C143.595 45.3778 143.717 45.3351 143.817 45.3842C143.918 45.4333 143.96 45.5548 143.912 45.6562L143.463 46.5833C143.429 46.6557 143.356 46.6983 143.28 46.6983ZM144.177 44.8435C144.147 44.8435 144.117 44.837 144.089 44.8228C143.988 44.7737 143.946 44.6523 143.995 44.5508L144.443 43.6238C144.492 43.523 144.613 43.4803 144.714 43.5294C144.814 43.5785 144.857 43.7 144.808 43.8014L144.36 44.7285C144.325 44.8009 144.252 44.8435 144.177 44.8435ZM145.073 42.9887C145.044 42.9887 145.013 42.9822 144.985 42.968C144.885 42.9189 144.842 42.7975 144.891 42.696L145.339 41.769C145.388 41.6682 145.509 41.6262 145.61 41.6746C145.711 41.7237 145.753 41.8452 145.704 41.9466L145.256 42.8737C145.221 42.9461 145.149 42.9887 145.073 42.9887ZM145.97 41.1339C145.94 41.1339 145.91 41.1274 145.881 41.1132C145.781 41.0641 145.738 40.9427 145.787 40.8412L146.235 39.9142C146.284 39.8127 146.405 39.7707 146.507 39.8198C146.607 39.8689 146.65 39.9904 146.601 40.0918L146.152 41.0189C146.118 41.0913 146.045 41.1339 145.97 41.1339Z" fill="black"/>
<path d="M133.647 66.6304C133.617 66.6304 133.587 66.624 133.559 66.6097C133.458 66.5606 133.416 66.4392 133.465 66.3378L133.686 65.8804C133.735 65.7796 133.856 65.7369 133.957 65.786C134.057 65.8351 134.1 65.9566 134.051 66.058L133.83 66.5154C133.795 66.5878 133.722 66.6304 133.647 66.6304Z" fill="black"/>
<path d="M31.1541 146.717H30.6473C30.5353 146.717 30.4445 146.626 30.4445 146.514C30.4445 146.401 30.5353 146.31 30.6473 146.31H31.1541C31.2661 146.31 31.3569 146.401 31.3569 146.514C31.3569 146.626 31.2661 146.717 31.1541 146.717Z" fill="black"/>
<path d="M117.937 146.795L116.928 146.794C116.816 146.794 116.725 146.703 116.725 146.591C116.725 146.478 116.816 146.387 116.928 146.387L117.937 146.388C118.049 146.388 118.14 146.479 118.14 146.591C118.14 146.704 118.049 146.795 117.937 146.795ZM115.919 146.793L114.909 146.792C114.797 146.792 114.707 146.701 114.707 146.589C114.707 146.476 114.797 146.385 114.909 146.385L115.919 146.386C116.031 146.386 116.121 146.477 116.121 146.589C116.121 146.702 116.031 146.793 115.919 146.793ZM113.9 146.791L112.891 146.79C112.779 146.79 112.689 146.698 112.689 146.586C112.689 146.474 112.779 146.383 112.891 146.383L113.9 146.383C114.012 146.383 114.103 146.474 114.103 146.587C114.103 146.699 114.012 146.79 113.9 146.79V146.791ZM111.882 146.789L110.873 146.788C110.761 146.788 110.67 146.697 110.67 146.585C110.67 146.472 110.761 146.381 110.873 146.381L111.882 146.382C111.994 146.382 112.085 146.473 112.085 146.585C112.085 146.698 111.994 146.789 111.882 146.789ZM109.864 146.787L108.855 146.786C108.743 146.786 108.652 146.695 108.652 146.583C108.652 146.47 108.743 146.379 108.855 146.379L109.864 146.38C109.976 146.38 110.067 146.471 110.067 146.583C110.067 146.696 109.976 146.787 109.864 146.787ZM107.846 146.785L106.837 146.784C106.725 146.784 106.634 146.693 106.634 146.581C106.634 146.468 106.725 146.377 106.837 146.377L107.846 146.378C107.958 146.378 108.049 146.469 108.049 146.582C108.049 146.694 107.958 146.785 107.846 146.785ZM105.828 146.783L104.819 146.782C104.707 146.782 104.616 146.691 104.616 146.579C104.616 146.467 104.707 146.375 104.819 146.375L105.828 146.376C105.94 146.376 106.031 146.467 106.031 146.58C106.031 146.692 105.94 146.783 105.828 146.783ZM103.81 146.781L102.801 146.781C102.689 146.781 102.598 146.689 102.598 146.577C102.598 146.465 102.689 146.374 102.801 146.374L103.81 146.374C103.922 146.374 104.013 146.465 104.013 146.578C104.013 146.69 103.922 146.781 103.81 146.781ZM101.792 146.779L100.783 146.778C100.671 146.778 100.58 146.687 100.58 146.574C100.58 146.462 100.671 146.371 100.783 146.371L101.792 146.372C101.904 146.372 101.995 146.463 101.995 146.575C101.995 146.687 101.904 146.779 101.792 146.779V146.779ZM99.7735 146.777L98.7645 146.777C98.6524 146.777 98.5616 146.686 98.5616 146.573C98.5616 146.461 98.6524 146.37 98.7645 146.37L99.7735 146.37C99.8856 146.37 99.9764 146.461 99.9764 146.574C99.9764 146.686 99.8856 146.777 99.7735 146.777ZM97.7554 146.775L96.7464 146.775C96.6343 146.775 96.5435 146.684 96.5435 146.571C96.5435 146.459 96.6343 146.368 96.7464 146.368L97.7554 146.368C97.8675 146.368 97.9583 146.459 97.9583 146.572C97.9583 146.684 97.8675 146.775 97.7554 146.775ZM95.7373 146.773L94.7282 146.772C94.6162 146.772 94.5254 146.681 94.5254 146.569C94.5254 146.456 94.6162 146.365 94.7282 146.365L95.7373 146.366C95.8493 146.366 95.9401 146.457 95.9401 146.569C95.9401 146.682 95.8493 146.773 95.7373 146.773V146.773ZM93.7192 146.771L92.7101 146.77C92.5981 146.77 92.5073 146.679 92.5073 146.567C92.5073 146.454 92.5981 146.363 92.7101 146.363L93.7192 146.364C93.8312 146.364 93.922 146.455 93.922 146.567C93.922 146.68 93.8312 146.771 93.7192 146.771V146.771ZM91.701 146.77L90.692 146.769C90.5799 146.769 90.4891 146.678 90.4891 146.565C90.4891 146.453 90.5799 146.362 90.692 146.362L91.701 146.363C91.8131 146.363 91.9039 146.454 91.9039 146.566C91.9039 146.678 91.8131 146.77 91.701 146.77ZM89.6829 146.768L88.6739 146.767C88.5618 146.767 88.471 146.676 88.471 146.563C88.471 146.451 88.5618 146.36 88.6739 146.36L89.6829 146.361C89.795 146.361 89.8858 146.452 89.8858 146.564C89.8858 146.676 89.795 146.768 89.6829 146.768ZM87.6648 146.766L86.6557 146.764C86.5437 146.764 86.4529 146.673 86.4529 146.561C86.4529 146.448 86.5437 146.357 86.6557 146.357L87.6648 146.358C87.7768 146.358 87.8676 146.449 87.8676 146.562C87.8676 146.674 87.7768 146.765 87.6648 146.765V146.766ZM85.6467 146.764L84.6376 146.763C84.5256 146.763 84.4348 146.672 84.4348 146.56C84.4348 146.447 84.5256 146.356 84.6376 146.356L85.6467 146.357C85.7587 146.357 85.8495 146.448 85.8495 146.56C85.8495 146.673 85.7587 146.764 85.6467 146.764ZM83.6285 146.762L82.6195 146.761C82.5074 146.761 82.4166 146.67 82.4166 146.558C82.4166 146.445 82.5074 146.354 82.6195 146.354L83.6285 146.355C83.7406 146.355 83.8314 146.446 83.8314 146.558C83.8314 146.671 83.7406 146.762 83.6285 146.762ZM81.6104 146.76L80.6014 146.759C80.4893 146.759 80.3985 146.668 80.3985 146.556C80.3985 146.443 80.4893 146.352 80.6014 146.352L81.6104 146.353C81.7225 146.353 81.8133 146.444 81.8133 146.556C81.8133 146.669 81.7225 146.76 81.6104 146.76ZM79.5923 146.758L78.5832 146.757C78.4712 146.757 78.3804 146.666 78.3804 146.553C78.3804 146.441 78.4712 146.35 78.5832 146.35L79.5923 146.35C79.7043 146.35 79.7951 146.441 79.7951 146.554C79.7951 146.666 79.7043 146.757 79.5923 146.757V146.758ZM77.5742 146.756L76.5651 146.755C76.4531 146.755 76.3623 146.664 76.3623 146.552C76.3623 146.439 76.4531 146.348 76.5651 146.348L77.5742 146.349C77.6862 146.349 77.777 146.44 77.777 146.552C77.777 146.665 77.6862 146.756 77.5742 146.756ZM75.556 146.754L74.547 146.753C74.4349 146.753 74.3441 146.662 74.3441 146.549C74.3441 146.437 74.4349 146.346 74.547 146.346L75.556 146.346C75.6681 146.346 75.7589 146.437 75.7589 146.55C75.7589 146.662 75.6681 146.753 75.556 146.753V146.754ZM73.5379 146.752L72.5288 146.751C72.4168 146.751 72.326 146.66 72.326 146.548C72.326 146.436 72.4168 146.344 72.5288 146.344L73.5379 146.345C73.65 146.345 73.7408 146.436 73.7408 146.549C73.7408 146.661 73.65 146.752 73.5379 146.752ZM71.5198 146.75L70.5107 146.749C70.3987 146.749 70.3079 146.658 70.3079 146.546C70.3079 146.434 70.3987 146.342 70.5107 146.342L71.5198 146.343C71.6318 146.343 71.7226 146.434 71.7226 146.547C71.7226 146.659 71.6318 146.75 71.5198 146.75ZM69.5017 146.748L68.4926 146.748C68.3806 146.748 68.2898 146.656 68.2898 146.544C68.2898 146.432 68.3806 146.341 68.4926 146.341L69.5017 146.341C69.6137 146.341 69.7045 146.432 69.7045 146.545C69.7045 146.657 69.6137 146.748 69.5017 146.748ZM67.4835 146.746L66.4745 146.746C66.3624 146.746 66.2716 146.655 66.2716 146.542C66.2716 146.43 66.3624 146.339 66.4745 146.339L67.4835 146.339C67.5956 146.339 67.6864 146.43 67.6864 146.543C67.6864 146.655 67.5956 146.746 67.4835 146.746ZM65.4654 146.744L64.4563 146.744C64.3443 146.744 64.2535 146.653 64.2535 146.54C64.2535 146.428 64.3443 146.337 64.4563 146.337L65.4654 146.337C65.5775 146.337 65.6683 146.428 65.6683 146.541C65.6683 146.653 65.5775 146.744 65.4654 146.744ZM63.4473 146.742L62.4382 146.742C62.3262 146.742 62.2354 146.651 62.2354 146.538C62.2354 146.426 62.3262 146.335 62.4382 146.335L63.4473 146.335C63.5593 146.335 63.6501 146.426 63.6501 146.539C63.6501 146.651 63.5593 146.742 63.4473 146.742ZM61.4292 146.74L60.4201 146.739C60.3081 146.739 60.2173 146.648 60.2173 146.536C60.2173 146.423 60.3081 146.332 60.4201 146.332L61.4292 146.333C61.5412 146.333 61.632 146.424 61.632 146.536C61.632 146.649 61.5412 146.74 61.4292 146.74V146.74ZM59.411 146.739L58.402 146.738C58.2899 146.738 58.1991 146.647 58.1991 146.534C58.1991 146.422 58.2899 146.331 58.402 146.331L59.411 146.332C59.5231 146.332 59.6139 146.423 59.6139 146.535C59.6139 146.647 59.5231 146.739 59.411 146.739ZM57.3929 146.737L56.3838 146.736C56.2718 146.736 56.181 146.645 56.181 146.532C56.181 146.42 56.2718 146.329 56.3838 146.329L57.3929 146.33C57.505 146.33 57.5958 146.421 57.5958 146.533C57.5958 146.645 57.505 146.737 57.3929 146.737ZM55.3748 146.735L54.3657 146.734C54.2537 146.734 54.1629 146.643 54.1629 146.53C54.1629 146.418 54.2537 146.327 54.3657 146.327L55.3748 146.328C55.4868 146.328 55.5776 146.419 55.5776 146.531C55.5776 146.644 55.4868 146.735 55.3748 146.735ZM53.3567 146.733L52.3476 146.732C52.2355 146.732 52.1448 146.641 52.1448 146.529C52.1448 146.416 52.2355 146.325 52.3476 146.325L53.3567 146.326C53.4687 146.326 53.5595 146.417 53.5595 146.529C53.5595 146.642 53.4687 146.733 53.3567 146.733ZM51.3385 146.731L50.3295 146.73C50.2174 146.73 50.1266 146.639 50.1266 146.527C50.1266 146.414 50.2174 146.323 50.3295 146.323L51.3385 146.324C51.4506 146.324 51.5414 146.415 51.5414 146.527C51.5414 146.64 51.4506 146.731 51.3385 146.731ZM49.3204 146.729L48.3113 146.728C48.1993 146.728 48.1085 146.637 48.1085 146.525C48.1085 146.412 48.1993 146.321 48.3113 146.321L49.3204 146.322C49.4325 146.322 49.5233 146.413 49.5233 146.525C49.5233 146.638 49.4325 146.729 49.3204 146.729ZM47.3023 146.727L46.2932 146.726C46.1812 146.726 46.0904 146.635 46.0904 146.523C46.0904 146.41 46.1812 146.319 46.2932 146.319L47.3023 146.32C47.4143 146.32 47.5051 146.411 47.5051 146.523C47.5051 146.636 47.4143 146.727 47.3023 146.727ZM45.2842 146.725L44.2751 146.724C44.163 146.724 44.0723 146.633 44.0723 146.521C44.0723 146.408 44.163 146.317 44.2751 146.317L45.2842 146.318C45.3962 146.318 45.487 146.409 45.487 146.521C45.487 146.634 45.3962 146.725 45.2842 146.725ZM43.266 146.723L42.257 146.722C42.1449 146.722 42.0541 146.631 42.0541 146.519C42.0541 146.406 42.1449 146.315 42.257 146.315L43.266 146.316C43.3781 146.316 43.4689 146.407 43.4689 146.52C43.4689 146.632 43.3781 146.723 43.266 146.723ZM41.2479 146.721L40.2388 146.72C40.1268 146.72 40.036 146.629 40.036 146.517C40.036 146.405 40.1268 146.313 40.2388 146.313L41.2479 146.314C41.36 146.314 41.4508 146.405 41.4508 146.518C41.4508 146.63 41.36 146.721 41.2479 146.721ZM39.2298 146.719L38.2207 146.718C38.1087 146.718 38.0179 146.627 38.0179 146.515C38.0179 146.403 38.1087 146.311 38.2207 146.311L39.2298 146.312C39.3418 146.312 39.4326 146.403 39.4326 146.516C39.4326 146.628 39.3418 146.719 39.2298 146.719ZM37.2117 146.717L36.2026 146.717C36.0905 146.717 35.9998 146.625 35.9998 146.513C35.9998 146.401 36.0905 146.31 36.2026 146.31L37.2117 146.31C37.3237 146.31 37.4145 146.401 37.4145 146.514C37.4145 146.626 37.3237 146.717 37.2117 146.717ZM35.1935 146.715L34.1845 146.715C34.0724 146.715 33.9816 146.624 33.9816 146.511C33.9816 146.399 34.0724 146.308 34.1845 146.308L35.1935 146.308C35.3056 146.308 35.3964 146.399 35.3964 146.512C35.3964 146.624 35.3056 146.715 35.1935 146.715ZM33.1754 146.713L32.1663 146.713C32.0543 146.713 31.9635 146.622 31.9635 146.509C31.9635 146.397 32.0543 146.306 32.1663 146.306L33.1754 146.306C33.2875 146.306 33.3783 146.397 33.3783 146.51C33.3783 146.622 33.2875 146.713 33.1754 146.713Z" fill="black"/>
<path d="M119.453 146.796H118.946C118.834 146.796 118.743 146.705 118.743 146.593C118.743 146.48 118.834 146.389 118.946 146.389H119.453C119.565 146.389 119.655 146.48 119.655 146.593C119.655 146.705 119.565 146.796 119.453 146.796Z" fill="black"/>
</g>
<defs>
<filter id="filter0_b_112_1075" x="-76.5679" y="-88.1782" width="303.136" height="341.975" filterUnits="userSpaceOnUse" color-interpolation-filters="sRGB">
<feFlood flood-opacity="0" result="BackgroundImageFix"/>
<feGaussianBlur in="BackgroundImageFix" stdDeviation="52"/>
<feComposite in2="SourceAlpha" operator="in" result="effect1_backgroundBlur_112_1075"/>
<feBlend mode="normal" in="SourceGraphic" in2="effect1_backgroundBlur_112_1075" result="shape"/>
</filter>
<filter id="filter1_b_112_1075" x="-103.735" y="-79.8813" width="241.232" height="251.324" filterUnits="userSpaceOnUse" color-interpolation-filters="sRGB">
<feFlood flood-opacity="0" result="BackgroundImageFix"/>
<feGaussianBlur in="BackgroundImageFix" stdDeviation="52"/>
<feComposite in2="SourceAlpha" operator="in" result="effect1_backgroundBlur_112_1075"/>
<feBlend mode="normal" in="SourceGraphic" in2="effect1_backgroundBlur_112_1075" result="shape"/>
</filter>
<filter id="filter2_b_112_1075" x="-47.2684" y="-85.8701" width="244.618" height="227.073" filterUnits="userSpaceOnUse" color-interpolation-filters="sRGB">
<feFlood flood-opacity="0" result="BackgroundImageFix"/>
<feGaussianBlur in="BackgroundImageFix" stdDeviation="52"/>
<feComposite in2="SourceAlpha" operator="in" result="effect1_backgroundBlur_112_1075"/>
<feBlend mode="normal" in="SourceGraphic" in2="effect1_backgroundBlur_112_1075" result="shape"/>
</filter>
<filter id="filter3_b_112_1075" x="12.5052" y="-79.8813" width="241.23" height="251.324" filterUnits="userSpaceOnUse" color-interpolation-filters="sRGB">
<feFlood flood-opacity="0" result="BackgroundImageFix"/>
<feGaussianBlur in="BackgroundImageFix" stdDeviation="52"/>
<feComposite in2="SourceAlpha" operator="in" result="effect1_backgroundBlur_112_1075"/>
<feBlend mode="normal" in="SourceGraphic" in2="effect1_backgroundBlur_112_1075" result="shape"/>
</filter>
<clipPath id="clip0_112_1075">
<rect width="150" height="135" fill="white" transform="translate(0 15)"/>
</clipPath>
</defs>
</svg>
