<svg width="21" height="15" viewBox="0 0 21 15" fill="none" xmlns="http://www.w3.org/2000/svg">
<path d="M15.5777 4.38475C15.5777 4.38475 13.8711 9.89601 13.745 10.364C13.6946 9.90468 12.4504 0 12.4504 0C9.54163 0 7.9948 2.13172 7.17094 4.38475C7.17094 4.38475 5.09448 9.91334 4.92634 10.3726C4.91793 9.93934 4.60689 4.43674 4.60689 4.43674C4.43034 1.67244 1.98399 0 0 0L2.38751 15C5.43074 14.9913 7.07006 12.8683 7.92754 10.6066C7.92754 10.6066 9.7518 5.7279 9.82746 5.51127C9.84428 5.71924 11.1389 15 11.1389 15C14.1906 15 15.8383 13.0156 16.721 10.8406L21 0C17.982 0 16.3931 2.12305 15.5777 4.38475Z" fill="black"/>
</svg>
