<svg width="1736" height="254" viewBox="0 0 1736 254" fill="none" xmlns="http://www.w3.org/2000/svg">
<path d="M261 104.5C261 90 246.9 74.6 222.5 74.6C195.1 74.6 165 94.7 160.4 134.8C155.7 175.3 180.9 193.3 206.3 193.3C231.7 193.3 245 183.4 258.6 170.2C246.9 155.5 231.8 162.3 228.9 163.8C225.7 165.4 221.6 167.6 213.2 167.6C203.4 167.6 193.4 163.2 193.4 144.9C256.2 138.7 261 119 261 104.5ZM229.9 106.9C229.5 111.4 227.7 119.1 195.9 123.4C202.6 99.6 215.4 97.8 221.3 97.8C226.8 97.8 230.3 102.1 229.9 106.9ZM123.5 110.8C123.5 110.8 110 153.2 108.9 156.7C108.5 153.1 98.6 77 98.6 77C75.6 77 63.3 93.4 56.8 110.7C56.8 110.7 40.4 153.2 39 156.8C38.9 153.5 36.5 111.2 36.5 111.2C35.1 90 15.7 77.1 0 77.1L19 192.4C43.1 192.3 56.1 176 62.9 158.7C62.9 158.7 77.4 121.2 78 119.5C78.1 121.1 88.4 192.4 88.4 192.4C112.6 192.4 125.6 177.1 132.6 160.4L166.5 77.1C142.6 77.1 130 93.4 123.5 110.8ZM349.8 74.4C334.9 74.4 323.5 82.5 313.9 94.4V94.3L322.5 25C302.7 25 286.6 42.2 283.5 67.8L268.5 191.5C279.9 191.5 292 188.2 298.5 179.8C304.3 187.3 313 193.3 325.9 193.3C359.3 193.3 382.2 154.5 382.2 118.1C382 84.9 365.9 74.4 349.8 74.4ZM346.7 133.9C343.2 154.2 331.9 168 321 168C310 168 305.3 163.1 305.3 163.1C307.4 145.3 308.7 134.4 312.7 125C316.7 115.6 326.2 100.6 336.1 100.6C345.8 100.6 350.2 113.5 346.7 133.9ZM465.6 77.1H442.3L442.4 75.9C444 60.7 447.6 52.7 459.5 51.4C467.6 50.6 471.2 46.4 472.1 41.8C472.8 38.2 475 25.7 475 25.7C428.2 25.4 413.5 45.6 409.7 76.4L409.6 77.1H409.1C401.5 77.1 393.1 85.7 391.7 96.6L391.2 100.6H406.8L393.7 208.8L389.7 228.2C390.2 228.2 390.8 228.3 391.3 228.3C413.2 227.5 427.2 210.2 430.3 185.1L440.5 100.6H447.8C455 100.6 463.4 93.4 464.9 81.4L465.6 77.1ZM586.8 75.1C559.9 75.1 534.5 94.9 526.7 126C518.9 157.1 530.7 193.9 570.3 193.9C609.8 193.9 632.6 155.6 632.6 123.7C632.6 92 611.1 75.1 586.8 75.1ZM597.7 132.9C596.3 147 590.1 168.4 573.1 168.4C556 168.4 558.4 143.4 560.1 131.5C561.9 118.8 569 100.7 584.3 100.7C598 100.7 599.3 117 597.7 132.9ZM765.5 110.8C765.5 110.8 752 153.2 750.9 156.7C750.5 153.1 740.6 77 740.6 77C717.6 77 705.3 93.4 698.8 110.7C698.8 110.7 682.4 153.2 681 156.8C680.9 153.5 678.5 111.2 678.5 111.2C677.1 90 657.7 77.1 642 77.1L660.9 192.4C685 192.3 698 176 704.8 158.7C704.8 158.7 719.3 121.2 719.8 119.5C719.9 121.1 730.2 192.4 730.2 192.4C754.4 192.4 767.4 177.1 774.4 160.4L808.3 77.1C784.5 77.1 771.9 93.4 765.5 110.8ZM487.6 25.7L468 183.8L464 203.3C464.5 203.3 465.1 203.4 465.6 203.4C486.7 203.1 501.7 184.6 504.5 161.3L515.8 70.6C519.2 42.9 502.7 25.7 487.6 25.7Z" fill="#175FFF"/>
<path d="M958.375 151.616C958.375 156.223 957.495 160.544 955.735 164.582C953.976 168.619 951.569 172.164 948.515 175.218C945.513 178.22 941.994 180.601 937.957 182.36C933.919 184.12 929.598 185 924.991 185H869.326V73.6689H924.991C929.598 73.6689 933.919 74.5488 937.957 76.3086C941.994 78.0684 945.513 80.4751 948.515 83.5288C951.569 86.5308 953.976 90.0503 955.735 94.0874C957.495 98.1245 958.375 102.446 958.375 107.053C958.375 109.123 958.09 111.245 957.521 113.419C956.952 115.593 956.149 117.689 955.114 119.708C954.079 121.726 952.837 123.563 951.388 125.22C949.938 126.876 948.334 128.248 946.574 129.334C948.386 130.318 950.016 131.664 951.465 133.372C952.915 135.028 954.157 136.865 955.192 138.884C956.227 140.902 957.003 143.024 957.521 145.25C958.09 147.424 958.375 149.546 958.375 151.616ZM891.607 162.718H924.991C926.544 162.718 927.993 162.434 929.339 161.864C930.685 161.295 931.849 160.519 932.833 159.535C933.868 158.5 934.67 157.31 935.239 155.964C935.809 154.618 936.093 153.169 936.093 151.616C936.093 150.063 935.809 148.614 935.239 147.269C934.67 145.923 933.868 144.758 932.833 143.775C931.849 142.74 930.685 141.938 929.339 141.368C927.993 140.799 926.544 140.514 924.991 140.514H891.607V162.718ZM891.607 118.232H924.991C926.544 118.232 927.993 117.948 929.339 117.378C930.685 116.809 931.849 116.033 932.833 115.049C933.868 114.014 934.67 112.824 935.239 111.478C935.809 110.081 936.093 108.605 936.093 107.053C936.093 105.5 935.809 104.051 935.239 102.705C934.67 101.359 933.868 100.195 932.833 99.2114C931.849 98.1763 930.685 97.374 929.339 96.8047C927.993 96.2354 926.544 95.9507 924.991 95.9507H891.607V118.232ZM1053.48 185H1048.36L1040.13 173.587C1038.11 175.399 1035.96 177.107 1033.68 178.711C1031.46 180.264 1029.1 181.636 1026.62 182.826C1024.13 183.965 1021.57 184.871 1018.93 185.543C1016.34 186.216 1013.7 186.553 1011.01 186.553C1005.16 186.553 999.652 185.569 994.476 183.603C989.352 181.636 984.849 178.789 980.967 175.062C977.137 171.284 974.109 166.678 971.884 161.243C969.658 155.809 968.545 149.624 968.545 142.688C968.545 136.218 969.658 130.292 971.884 124.909C974.109 119.475 977.137 114.816 980.967 110.935C984.849 107.053 989.352 104.051 994.476 101.929C999.652 99.7549 1005.16 98.668 1011.01 98.668C1013.7 98.668 1016.37 99.0044 1019.01 99.6772C1021.65 100.35 1024.21 101.282 1026.7 102.472C1029.18 103.663 1031.53 105.06 1033.76 106.665C1036.04 108.269 1038.16 110.003 1040.13 111.866L1048.36 102.006H1053.48V185ZM1032.13 142.688C1032.13 139.79 1031.56 136.995 1030.42 134.303C1029.33 131.56 1027.83 129.153 1025.92 127.083C1024 124.961 1021.75 123.279 1019.16 122.037C1016.63 120.743 1013.91 120.096 1011.01 120.096C1008.11 120.096 1005.37 120.587 1002.78 121.571C1000.25 122.554 998.021 124.003 996.106 125.918C994.243 127.833 992.768 130.214 991.681 133.061C990.594 135.856 990.051 139.065 990.051 142.688C990.051 146.311 990.594 149.546 991.681 152.393C992.768 155.188 994.243 157.542 996.106 159.458C998.021 161.373 1000.25 162.822 1002.78 163.805C1005.37 164.789 1008.11 165.28 1011.01 165.28C1013.91 165.28 1016.63 164.659 1019.16 163.417C1021.75 162.123 1024 160.441 1025.92 158.371C1027.83 156.249 1029.33 153.842 1030.42 151.15C1031.56 148.407 1032.13 145.586 1032.13 142.688ZM1090.9 185H1069.71V101.851H1074.83L1081.82 109.925C1085.23 106.82 1089.09 104.439 1093.39 102.783C1097.73 101.075 1102.26 100.221 1106.97 100.221C1112.04 100.221 1116.83 101.204 1121.33 103.171C1125.84 105.086 1129.77 107.751 1133.14 111.167C1136.5 114.532 1139.14 118.491 1141.05 123.046C1143.02 127.549 1144 132.362 1144 137.486V185H1122.81V137.486C1122.81 135.312 1122.4 133.268 1121.57 131.353C1120.74 129.386 1119.6 127.678 1118.15 126.229C1116.7 124.78 1115.02 123.641 1113.1 122.813C1111.19 121.985 1109.15 121.571 1106.97 121.571C1104.75 121.571 1102.65 121.985 1100.68 122.813C1098.72 123.641 1097.01 124.78 1095.56 126.229C1094.11 127.678 1092.97 129.386 1092.14 131.353C1091.31 133.268 1090.9 135.312 1090.9 137.486V185ZM1218.3 142.688C1218.3 139.79 1217.73 136.995 1216.59 134.303C1215.51 131.56 1214.01 129.153 1212.09 127.083C1210.18 124.961 1207.93 123.279 1205.34 122.037C1202.8 120.743 1200.08 120.096 1197.19 120.096C1194.29 120.096 1191.54 120.587 1188.96 121.571C1186.42 122.554 1184.19 124.003 1182.28 125.918C1180.42 127.833 1178.94 130.214 1177.85 133.061C1176.77 135.856 1176.22 139.065 1176.22 142.688C1176.22 146.156 1176.77 149.287 1177.85 152.082C1178.94 154.825 1180.42 157.18 1182.28 159.147C1184.19 161.114 1186.42 162.641 1188.96 163.728C1191.54 164.763 1194.29 165.28 1197.19 165.28C1200.08 165.28 1202.8 164.659 1205.34 163.417C1207.93 162.123 1210.18 160.441 1212.09 158.371C1214.01 156.249 1215.51 153.842 1216.59 151.15C1217.73 148.407 1218.3 145.586 1218.3 142.688ZM1239.65 174.519C1239.65 180.368 1238.54 185.854 1236.31 190.978C1234.09 196.102 1231.04 200.579 1227.15 204.409C1223.32 208.239 1218.82 211.267 1213.64 213.493C1208.52 215.718 1203.03 216.831 1197.19 216.831L1186.55 216.676V195.481L1197.03 195.636C1200.34 195.636 1203.16 195.196 1205.49 194.316C1207.82 193.488 1209.79 192.324 1211.39 190.823C1213 189.374 1214.27 187.691 1215.2 185.776C1216.18 183.861 1216.96 181.843 1217.53 179.721C1216.7 181.066 1215.51 182.179 1213.96 183.059C1212.4 183.887 1210.67 184.56 1208.75 185.078C1206.89 185.647 1204.92 186.035 1202.85 186.242C1200.83 186.449 1198.95 186.553 1197.19 186.553C1191.34 186.553 1185.82 185.543 1180.65 183.525C1175.52 181.506 1171.02 178.634 1167.14 174.907C1163.31 171.129 1160.28 166.522 1158.06 161.088C1155.83 155.653 1154.72 149.52 1154.72 142.688C1154.72 136.425 1155.83 130.603 1158.06 125.22C1160.28 119.837 1163.31 115.179 1167.14 111.245C1171.02 107.312 1175.52 104.232 1180.65 102.006C1185.82 99.7808 1191.34 98.668 1197.19 98.668C1199.88 98.668 1202.54 99.0044 1205.18 99.6772C1207.82 100.35 1210.38 101.282 1212.87 102.472C1215.35 103.663 1217.71 105.06 1219.93 106.665C1222.21 108.269 1224.33 110.003 1226.3 111.866L1234.53 102.006H1239.65V174.519ZM1277.23 185H1255.88V68.7778H1277.23V185ZM1373.96 185H1368.84L1360.61 173.587C1358.59 175.399 1356.44 177.107 1354.17 178.711C1351.94 180.264 1349.59 181.636 1347.1 182.826C1344.62 183.965 1342.06 184.871 1339.42 185.543C1336.83 186.216 1334.19 186.553 1331.5 186.553C1325.65 186.553 1320.14 185.569 1314.96 183.603C1309.84 181.636 1305.33 178.789 1301.45 175.062C1297.62 171.284 1294.59 166.678 1292.37 161.243C1290.14 155.809 1289.03 149.624 1289.03 142.688C1289.03 136.218 1290.14 130.292 1292.37 124.909C1294.59 119.475 1297.62 114.816 1301.45 110.935C1305.33 107.053 1309.84 104.051 1314.96 101.929C1320.14 99.7549 1325.65 98.668 1331.5 98.668C1334.19 98.668 1336.85 99.0044 1339.49 99.6772C1342.13 100.35 1344.7 101.282 1347.18 102.472C1349.66 103.663 1352.02 105.06 1354.24 106.665C1356.52 108.269 1358.64 110.003 1360.61 111.866L1368.84 102.006H1373.96V185ZM1352.61 142.688C1352.61 139.79 1352.04 136.995 1350.91 134.303C1349.82 131.56 1348.32 129.153 1346.4 127.083C1344.49 124.961 1342.24 123.279 1339.65 122.037C1337.11 120.743 1334.4 120.096 1331.5 120.096C1328.6 120.096 1325.86 120.587 1323.27 121.571C1320.73 122.554 1318.51 124.003 1316.59 125.918C1314.73 127.833 1313.25 130.214 1312.17 133.061C1311.08 135.856 1310.54 139.065 1310.54 142.688C1310.54 146.311 1311.08 149.546 1312.17 152.393C1313.25 155.188 1314.73 157.542 1316.59 159.458C1318.51 161.373 1320.73 162.822 1323.27 163.805C1325.86 164.789 1328.6 165.28 1331.5 165.28C1334.4 165.28 1337.11 164.659 1339.65 163.417C1342.24 162.123 1344.49 160.441 1346.4 158.371C1348.32 156.249 1349.82 153.842 1350.91 151.15C1352.04 148.407 1352.61 145.586 1352.61 142.688ZM1470.54 185H1465.42L1457.19 173.587C1455.17 175.399 1453.02 177.107 1450.75 178.711C1448.52 180.264 1446.17 181.636 1443.68 182.826C1441.2 183.965 1438.64 184.871 1436 185.543C1433.41 186.216 1430.77 186.553 1428.08 186.553C1422.23 186.553 1416.72 185.466 1411.54 183.292C1406.42 181.066 1401.91 178.013 1398.03 174.131C1394.2 170.197 1391.17 165.565 1388.95 160.234C1386.72 154.851 1385.61 149.002 1385.61 142.688C1385.61 136.425 1386.72 130.603 1388.95 125.22C1391.17 119.837 1394.2 115.179 1398.03 111.245C1401.91 107.312 1406.42 104.232 1411.54 102.006C1416.72 99.7808 1422.23 98.668 1428.08 98.668C1429.94 98.668 1431.86 98.8232 1433.82 99.1338C1435.84 99.4443 1437.78 99.9619 1439.65 100.687C1441.56 101.359 1443.35 102.265 1445 103.404C1446.66 104.542 1448.06 105.94 1449.19 107.596V68.7778H1470.54V185ZM1449.19 142.688C1449.19 139.79 1448.62 136.995 1447.49 134.303C1446.4 131.56 1444.9 129.153 1442.98 127.083C1441.07 124.961 1438.82 123.279 1436.23 122.037C1433.69 120.743 1430.98 120.096 1428.08 120.096C1425.18 120.096 1422.44 120.613 1419.85 121.648C1417.31 122.684 1415.09 124.185 1413.17 126.151C1411.31 128.066 1409.83 130.421 1408.75 133.216C1407.66 136.011 1407.12 139.168 1407.12 142.688C1407.12 145.742 1407.66 148.64 1408.75 151.383C1409.83 154.126 1411.31 156.533 1413.17 158.604C1415.09 160.674 1417.31 162.304 1419.85 163.495C1422.44 164.685 1425.18 165.28 1428.08 165.28C1430.98 165.28 1433.69 164.659 1436.23 163.417C1438.82 162.123 1441.07 160.441 1442.98 158.371C1444.9 156.249 1446.4 153.842 1447.49 151.15C1448.62 148.407 1449.19 145.586 1449.19 142.688ZM1519.84 164.659C1520.67 164.918 1521.5 165.099 1522.33 165.203C1523.16 165.254 1523.98 165.28 1524.81 165.28C1526.88 165.28 1528.88 164.996 1530.79 164.426C1532.71 163.857 1534.49 163.055 1536.15 162.02C1537.86 160.933 1539.36 159.639 1540.65 158.138C1542 156.585 1543.08 154.877 1543.91 153.014L1559.44 168.619C1557.47 171.414 1555.19 173.924 1552.61 176.149C1550.07 178.375 1547.3 180.264 1544.3 181.817C1541.35 183.37 1538.22 184.534 1534.91 185.311C1531.64 186.139 1528.28 186.553 1524.81 186.553C1518.96 186.553 1513.45 185.466 1508.28 183.292C1503.15 181.118 1498.65 178.09 1494.77 174.208C1490.94 170.327 1487.91 165.72 1485.68 160.389C1483.46 155.006 1482.35 149.106 1482.35 142.688C1482.35 136.115 1483.46 130.111 1485.68 124.676C1487.91 119.242 1490.94 114.609 1494.77 110.779C1498.65 106.949 1503.15 103.973 1508.28 101.851C1513.45 99.729 1518.96 98.668 1524.81 98.668C1528.28 98.668 1531.67 99.082 1534.98 99.9102C1538.3 100.738 1541.43 101.929 1544.38 103.481C1547.38 105.034 1550.17 106.949 1552.76 109.227C1555.35 111.452 1557.63 113.962 1559.59 116.757L1519.84 164.659ZM1530.71 120.95C1529.73 120.587 1528.75 120.354 1527.76 120.251C1526.83 120.147 1525.85 120.096 1524.81 120.096C1521.91 120.096 1519.17 120.639 1516.58 121.726C1514.05 122.761 1511.82 124.262 1509.91 126.229C1508.04 128.196 1506.57 130.577 1505.48 133.372C1504.39 136.115 1503.85 139.22 1503.85 142.688C1503.85 143.464 1503.88 144.344 1503.93 145.328C1504.03 146.311 1504.16 147.32 1504.32 148.355C1504.52 149.339 1504.76 150.296 1505.02 151.228C1505.27 152.16 1505.61 152.988 1506.02 153.712L1530.71 120.95ZM1615.96 185H1567.51V163.883H1615.96C1617.41 163.883 1618.65 163.365 1619.68 162.33C1620.72 161.295 1621.24 160.053 1621.24 158.604C1621.24 157.103 1620.72 156.119 1619.68 155.653C1618.65 155.188 1617.41 154.955 1615.96 154.955H1593.91C1590.23 154.955 1586.79 154.256 1583.58 152.858C1580.37 151.461 1577.58 149.572 1575.2 147.191C1572.82 144.758 1570.93 141.938 1569.53 138.729C1568.19 135.52 1567.51 132.078 1567.51 128.403C1567.51 124.728 1568.19 121.286 1569.53 118.077C1570.93 114.868 1572.82 112.073 1575.2 109.692C1577.58 107.312 1580.37 105.448 1583.58 104.103C1586.79 102.705 1590.23 102.006 1593.91 102.006H1636.84V123.124H1593.91C1592.46 123.124 1591.22 123.641 1590.18 124.676C1589.15 125.711 1588.63 126.954 1588.63 128.403C1588.63 129.904 1589.15 131.198 1590.18 132.285C1591.22 133.32 1592.46 133.837 1593.91 133.837H1615.96C1619.58 133.837 1623 134.458 1626.21 135.701C1629.42 136.891 1632.21 138.573 1634.59 140.747C1636.97 142.921 1638.86 145.535 1640.26 148.588C1641.66 151.642 1642.35 154.98 1642.35 158.604C1642.35 162.278 1641.66 165.72 1640.26 168.929C1638.86 172.086 1636.97 174.881 1634.59 177.314C1632.21 179.695 1629.42 181.584 1626.21 182.981C1623 184.327 1619.58 185 1615.96 185ZM1674.88 185H1653.69V68.7778H1674.88V105.5C1677.42 103.585 1680.03 102.239 1682.73 101.463C1685.42 100.635 1688.16 100.221 1690.96 100.221C1696.08 100.221 1700.89 101.204 1705.4 103.171C1709.9 105.086 1713.81 107.751 1717.12 111.167C1720.48 114.532 1723.12 118.491 1725.04 123.046C1727 127.549 1727.99 132.362 1727.99 137.486V185H1706.64V137.486H1706.79C1706.79 135.312 1706.38 133.268 1705.55 131.353C1704.72 129.386 1703.58 127.678 1702.13 126.229C1700.69 124.78 1699 123.641 1697.09 122.813C1695.17 121.985 1693.13 121.571 1690.96 121.571C1688.73 121.571 1686.63 121.985 1684.67 122.813C1682.7 123.641 1680.99 124.78 1679.54 126.229C1678.09 127.678 1676.95 129.386 1676.13 131.353C1675.3 133.268 1674.88 135.312 1674.88 137.486V185Z" fill="#175FFF"/>
</svg>
