<svg width="753" height="126" viewBox="0 0 753 126" fill="none" xmlns="http://www.w3.org/2000/svg">
<g clip-path="url(#clip0_48_56)">
<path d="M171.781 32.9686V17.1741H238.076V32.9686L190.685 92.0137H240.278V107.808H170.095V92.2678L217.748 32.9609H171.781V32.9686Z" fill="#302E2E"/>
<path d="M323.392 34.2615V17.166H341.265V34.2615H323.392ZM324.17 107.808V43.5828H340.488V107.808H324.17Z" fill="#302E2E"/>
<path d="M415.204 64.0426V107.809H398.886V70.7776C398.886 61.6257 394.53 57.0536 385.809 57.0536C381.491 57.0536 377.927 58.7393 375.125 62.1029C372.315 65.4666 370.915 69.8309 370.915 75.1805V107.809H354.597V43.5835H370.915V53.9439C376.179 45.8311 383.43 41.7747 392.667 41.7747C399.487 41.7747 404.944 43.8067 409.046 47.8632C413.157 51.9119 415.204 57.3076 415.204 64.0426Z" fill="#302E2E"/>
<path d="M430.09 34.2615V17.166H447.963V34.2615H430.09ZM430.868 107.808V43.5828H447.186V107.808H430.868Z" fill="#302E2E"/>
<path d="M479.16 17.166V63.0028L498.711 43.5828H518.908L495.47 66.505L522.018 107.808H503.244L484.078 77.766L479.16 82.5536V107.8H462.842V17.166H479.16Z" fill="#302E2E"/>
<path d="M548.881 107.808V17.166H565.976V92.0134H603.731V107.808H548.881Z" fill="#302E2E"/>
<path d="M664.677 47.5934C659.89 43.714 652.916 41.7666 643.764 41.7666C635.559 41.7666 629.009 43.7371 624.082 47.6626C619.164 51.5882 616.701 56.1834 616.701 61.456C616.701 63.3572 617.086 65.166 617.871 66.8979L632.503 61.9794C632.326 61.4637 632.241 60.9403 632.241 60.4246C632.241 58.354 633.25 56.6298 635.289 55.2444C637.314 53.8666 640.146 53.1738 643.764 53.1738C651.615 53.1738 655.556 56.4143 655.556 62.8877V65.3508L636.259 68.3296C629.532 69.361 624.021 71.6317 619.757 75.1262C615.477 78.6207 613.345 83.4392 613.345 89.5661C613.345 95.6084 615.354 100.465 619.372 104.137C623.382 107.808 628.585 109.633 634.974 109.633C644.819 109.633 651.977 105.622 656.472 97.5943V107.824H671.882V65.0891C671.867 57.3072 669.465 51.4804 664.677 47.5934ZM655.556 77.774C655.556 83.7316 654.001 88.3268 650.892 91.5597C647.782 94.7925 643.764 96.4243 638.846 96.4243C635.913 96.4243 633.581 95.7546 631.857 94.4076C630.125 93.0683 629.263 91.1517 629.263 88.6501C629.263 83.5546 632.842 80.3987 640.008 79.1903L655.548 76.604V77.774H655.556Z" fill="#302E2E"/>
<path d="M303.064 47.5934C298.276 43.714 291.303 41.7666 282.151 41.7666C273.945 41.7666 267.395 43.7371 262.469 47.6626C257.55 51.5882 255.087 56.1834 255.087 61.456C255.087 63.3572 255.472 65.166 256.257 66.8979L270.89 61.9794C270.713 61.4637 270.628 60.9403 270.628 60.4246C270.628 58.354 271.636 56.6298 273.676 55.2444C275.7 53.8666 278.533 53.1738 282.151 53.1738C290.002 53.1738 293.943 56.4143 293.943 62.8877V65.3508L274.646 68.3296C267.919 69.361 262.407 71.6317 258.143 75.1262C253.864 78.6207 251.731 83.4392 251.731 89.5661C251.731 95.6084 253.74 100.465 257.758 104.137C261.769 107.808 266.972 109.633 273.36 109.633C283.205 109.633 290.364 105.622 294.859 97.5943V107.824H310.268V65.0891C310.253 57.3072 307.852 51.4804 303.064 47.5934ZM293.935 77.774C293.935 83.7316 292.38 88.3268 289.271 91.5597C286.161 94.7925 282.143 96.4243 277.224 96.4243C274.292 96.4243 271.96 95.7546 270.235 94.4076C268.504 93.0683 267.641 91.1517 267.641 88.6501C267.641 83.5546 271.221 80.3987 278.387 79.1903L293.927 76.604V77.774H293.935Z" fill="#302E2E"/>
<path d="M684.713 107.808V17.166H701.031V51.48C706.127 45.0067 713.154 41.7662 722.137 41.7662C731.027 41.7662 738.362 44.8066 744.151 50.8951C749.931 56.9836 752.825 65.2503 752.825 75.6954C752.825 86.0558 749.847 94.2995 743.889 100.427C737.931 106.554 730.596 109.617 721.875 109.617C712.723 109.617 705.773 106.376 701.031 99.9031V107.8H684.713V107.808ZM705.111 89.0962C708.521 92.5908 712.854 94.338 718.127 94.338C723.391 94.338 727.733 92.5908 731.143 89.0962C734.552 85.6017 736.261 81.1296 736.261 75.6954C736.261 70.2612 734.552 65.7891 731.143 62.2946C727.733 58.8001 723.391 57.0528 718.127 57.0528C712.862 57.0528 708.521 58.8001 705.111 62.2946C701.701 65.7891 699.992 70.2612 699.992 75.6954C699.992 81.1296 701.701 85.6017 705.111 89.0962Z" fill="#302E2E"/>
<path d="M82.9808 81.4728L78.2987 92.46H54.4221C53.1097 92.4614 51.8409 91.9892 50.8499 91.1304C49.8589 90.2715 49.2125 89.084 49.0298 87.7868L53.1449 81.4702L82.9808 81.4728Z" fill="url(#paint0_linear_48_56)"/>
<path d="M77.5443 11.1392C78.1198 11.1315 78.6878 11.2705 79.1944 11.5431C79.7011 11.8157 80.1296 12.2128 80.4395 12.6969C80.7552 13.1767 80.9412 13.7298 80.9795 14.3025C81.0178 14.8753 80.907 15.4481 80.658 15.9655L50.9677 81.473L49.4642 84.7909C49.032 85.7275 48.8811 86.7691 49.0298 87.7895C49.2125 89.0867 49.8589 90.2742 50.8499 91.1331C51.841 91.9919 53.1097 92.4642 54.4222 92.4627H58.1731L63.1414 81.4756L90.6544 20.6075C91.6804 18.4025 92.1306 15.9741 91.963 13.5486C91.7955 11.1231 91.0156 8.77944 89.6961 6.7358C88.3765 4.69216 86.5603 3.01506 84.4164 1.86071C82.2726 0.706353 79.8709 0.1123 77.4351 0.133868H4.54133L0.418413 26.1712C0.0461995 28.4359 0.174746 30.7545 0.795043 32.9644C1.41534 35.1743 2.51238 37.2221 4.00926 38.9642C5.50615 40.7062 7.36666 42.1005 9.46039 43.0493C11.5541 43.998 13.8304 44.4782 16.1297 44.4563H37.7848L10.1573 105.324C9.13158 107.529 8.68177 109.958 8.84983 112.383C9.01789 114.809 9.79835 117.152 11.1185 119.196C12.4386 121.239 14.2555 122.915 16.3998 124.069C18.5441 125.222 20.9461 125.816 23.3819 125.793H121.791L125.914 99.758C126.286 97.4933 126.158 95.1747 125.537 92.9648C124.917 90.7549 123.82 88.7072 122.323 86.9651C120.826 85.223 118.966 83.8287 116.872 82.88C114.778 81.9312 112.502 81.451 110.203 81.473H81.5892C81.0487 82.6547 80.8139 83.9529 80.9063 85.2486C80.9987 86.5444 81.4153 87.7963 82.118 88.8898C82.8207 89.9832 83.787 90.8833 84.9284 91.5075C86.0699 92.1317 87.35 92.4601 88.6515 92.4627H110.299C110.992 92.4576 111.677 92.6034 112.308 92.89C112.939 93.1766 113.499 93.5971 113.95 94.1221C114.401 94.6472 114.732 95.2641 114.919 95.9299C115.107 96.5957 115.146 97.2943 115.036 97.977L112.401 114.798H23.2675C22.6914 114.809 22.1221 114.673 21.6134 114.403C21.1048 114.133 20.6737 113.738 20.361 113.255C20.0483 112.772 19.8644 112.218 19.8268 111.644C19.7892 111.07 19.899 110.496 20.146 109.977L49.9819 44.4407C50.5202 43.2583 50.7527 41.9599 50.6581 40.6646C50.5635 39.3693 50.1447 38.1184 49.4402 37.0264C48.7357 35.9345 47.7679 35.0364 46.6255 34.4144C45.4831 33.7925 44.2027 33.4666 42.9014 33.4665H16.0335C15.3406 33.4712 14.6551 33.325 14.0246 33.0383C13.3941 32.7515 12.8338 32.3311 12.3827 31.8062C11.9315 31.2813 11.6005 30.6646 11.4125 29.999C11.2245 29.3334 11.1841 28.635 11.2941 27.9522L13.9291 11.1314L77.5443 11.1392Z" fill="#01C08D"/>
<path d="M96.1612 49.2852C96.4105 48.7675 96.5214 48.1941 96.4831 47.6209C96.4448 47.0477 96.2586 46.4942 95.9427 46.014C95.6331 45.5303 95.2049 45.1334 94.6988 44.8608C94.1926 44.5882 93.6252 44.449 93.0501 44.4563H79.7007L84.7029 33.4562H92.9383C95.3741 33.4334 97.7761 34.0265 99.9204 35.18C102.065 36.3335 103.882 38.01 105.202 40.0533C106.522 42.0966 107.303 44.4401 107.471 46.8655C107.639 49.291 107.189 51.7195 106.163 53.9247L88.7529 92.4627H88.6151C87.3143 92.4627 86.0342 92.137 84.8921 91.5156C83.75 90.8941 82.7824 89.9966 82.0777 88.9053C81.373 87.814 80.9538 86.5638 80.8584 85.2689C80.7631 83.9741 80.9947 82.6761 81.532 81.4937L96.1612 49.2852Z" fill="url(#paint1_linear_48_56)"/>
</g>
<defs>
<linearGradient id="paint0_linear_48_56" x1="46.4" y1="79.8761" x2="82.7619" y2="91.7145" gradientUnits="userSpaceOnUse">
<stop offset="0.5" stop-color="#01C08D"/>
<stop offset="0.81" stop-color="#01C08D" stop-opacity="0.12"/>
<stop offset="0.85" stop-color="#01C08D" stop-opacity="0"/>
</linearGradient>
<linearGradient id="paint1_linear_48_56" x1="71.7696" y1="55.0073" x2="111.508" y2="71.092" gradientUnits="userSpaceOnUse">
<stop offset="0.16" stop-color="#01C08D" stop-opacity="0"/>
<stop offset="0.23" stop-color="#01C08D" stop-opacity="0.28"/>
<stop offset="0.31" stop-color="#01C08D" stop-opacity="0.59"/>
<stop offset="0.38" stop-color="#01C08D" stop-opacity="0.81"/>
<stop offset="0.43" stop-color="#01C08D" stop-opacity="0.95"/>
<stop offset="0.47" stop-color="#01C08D"/>
</linearGradient>
<clipPath id="clip0_48_56">
<rect width="753" height="126" fill="white"/>
</clipPath>
</defs>
</svg>
