<svg width="1265" height="136" viewBox="0 0 1265 136" fill="none" xmlns="http://www.w3.org/2000/svg">
<path d="M104.131 18.65L25.5309 116.65V117.25H105.531V134.65H0.130859V117.05L78.3308 19.25V18.65H2.93085V1.25H104.131V18.65Z" fill="black"/>
<path d="M142.13 58.25H207.13V74.05H142.13V117.45H210.53V134.65H121.73V1.25H210.13V18.45H142.13V58.25Z" fill="black"/>
<path d="M229.52 1.25H294.12C324.72 1.25 335.32 11.45 335.32 40.25C335.32 65.85 330.319 73.45 311.719 76.85V77.45C326.319 78.25 333.919 87.25 333.719 103.25V134.65H313.12V107.65C313.52 91.85 306.52 85.25 290.52 85.85H249.919V134.65H229.52V1.25ZM289.52 68.25C298.52 68.25 304.32 67.05 308.12 64.25C313.32 60.65 314.719 56.25 314.719 44.65C314.719 29.05 313.32 24.45 307.52 21.25C304.52 19.65 299.519 18.85 292.919 18.85H249.919V68.25H289.52Z" fill="black"/>
<path d="M446.32 4.45004C457.92 9.45004 464.319 19.25 466.719 35.45C467.719 41.45 467.919 47.65 467.919 65.45C467.919 92.25 467.52 97.6501 465.52 107.45C462.92 119.05 456.519 127.05 446.719 131.25C438.119 134.85 429.919 135.85 410.719 135.85C388.719 135.85 381.12 134.85 372.32 131.05C362.72 126.85 356.72 119.05 354.12 107.65C351.92 98.25 351.52 93.05 351.52 68.05C351.52 35.85 352.719 27.25 358.719 17.25C363.519 9.25005 371.719 3.85004 382.919 1.65004C387.719 0.65004 398.72 0.0500488 410.52 0.0500488C430.12 0.0500488 438.52 1.05004 446.32 4.45004ZM447.32 67.65V49.05C447.32 34.45 444.12 24.85 438.12 21.25C433.12 18.25 427.52 17.65 407.52 17.65C384.12 17.65 378.32 19.85 374.52 30.65C372.32 37.25 372.12 39.65 372.12 68.05C372.12 92.85 372.12 92.85 373.12 99.65C374.52 108.25 377.72 113.45 383.52 115.65C388.52 117.65 393.919 118.25 409.919 118.25C428.119 118.25 434.119 117.45 438.719 114.05C444.119 110.25 447.32 100.05 447.32 86.25V67.65Z" fill="black"/>
<path d="M597.319 66.05C597.719 72.45 597.719 74.25 597.719 82.25C597.719 106.45 596.919 112.85 592.719 120.25C589.119 126.65 583.519 131.05 575.519 133.25C569.719 135.05 558.519 135.85 540.719 135.85C521.919 135.85 514.119 134.85 506.119 131.65C495.719 127.45 490.119 121.05 486.719 109.45C484.719 103.05 484.119 95.85 484.119 80.65C484.119 43.25 484.319 39.85 486.519 29.45C489.719 14.85 497.719 6.05004 510.919 2.45004C516.919 0.650043 525.119 0.0500488 541.919 0.0500488C570.519 0.0500488 576.319 0.850043 585.519 6.45004C590.519 9.65004 594.519 15.65 595.919 22.25C596.919 27.45 597.319 31.25 597.319 40.65H576.919C576.319 19.05 573.719 17.45 540.119 17.45C519.119 17.45 511.719 19.65 508.119 27.45C505.319 33.65 504.719 41.0501 504.719 67.4501C504.719 95.8501 505.319 102.45 508.119 108.45C511.719 116.25 519.519 118.45 543.519 118.45C559.519 118.45 566.719 117.45 571.119 114.25C575.319 111.45 577.319 102.85 577.319 88.4501C577.319 87.4501 577.319 84.85 577.119 82.05H539.319V66.05H597.319Z" fill="#DAA520"/>
<path d="M616.52 1.25H681.12C711.72 1.25 722.319 11.45 722.319 40.25C722.319 65.85 717.319 73.45 698.719 76.85V77.45C713.319 78.25 720.919 87.25 720.719 103.25V134.65H700.12V107.65C700.52 91.85 693.52 85.25 677.52 85.85H636.919V134.65H616.52V1.25ZM676.52 68.25C685.52 68.25 691.32 67.05 695.12 64.25C700.32 60.65 701.719 56.25 701.719 44.65C701.719 29.05 700.32 24.45 694.52 21.25C691.52 19.65 686.519 18.85 679.919 18.85H636.919V68.25H676.52Z" fill="#DAA520"/>
<path d="M833.319 4.45004C844.919 9.45004 851.319 19.25 853.719 35.45C854.719 41.45 854.92 47.65 854.92 65.45C854.92 92.25 854.52 97.6501 852.52 107.45C849.92 119.05 843.519 127.05 833.719 131.25C825.119 134.85 816.919 135.85 797.719 135.85C775.719 135.85 768.119 134.85 759.319 131.05C749.719 126.85 743.72 119.05 741.12 107.65C738.92 98.25 738.52 93.05 738.52 68.05C738.52 35.85 739.719 27.25 745.719 17.25C750.519 9.25005 758.72 3.85004 769.92 1.65004C774.72 0.65004 785.72 0.0500488 797.52 0.0500488C817.12 0.0500488 825.519 1.05004 833.319 4.45004ZM834.319 67.65V49.05C834.319 34.45 831.12 24.85 825.12 21.25C820.12 18.25 814.52 17.65 794.52 17.65C771.12 17.65 765.32 19.85 761.52 30.65C759.32 37.25 759.12 39.65 759.12 68.05C759.12 92.85 759.12 92.85 760.12 99.65C761.52 108.25 764.72 113.45 770.52 115.65C775.52 117.65 780.92 118.25 796.92 118.25C815.12 118.25 821.119 117.45 825.719 114.05C831.119 110.25 834.319 100.05 834.319 86.25V67.65Z" fill="#DAA520"/>
<path d="M983.31 1.25V92.25C983.31 108.45 981.51 116.25 976.51 122.85C968.51 133.05 958.31 135.85 928.51 135.85C909.71 135.85 901.51 134.85 894.31 132.05C879.51 126.05 874.91 116.85 874.91 93.05V1.25H895.31V93.05C895.31 102.25 896.11 107.25 897.91 110.25C901.31 116.25 908.91 118.25 928.11 118.25C959.11 118.25 962.91 115.45 962.91 92.45V1.25H983.31Z" fill="#DAA520"/>
<path d="M1126.51 134.65H1092.31L1045.51 53.05C1043.11 48.65 1040.71 43.85 1032.11 27.25L1027.91 18.85H1027.11L1027.31 25.65L1027.51 32.65C1027.71 33.05 1027.71 40.05 1027.71 46.65V134.65H1007.51V1.25H1041.51L1082.91 74.65C1087.51 82.85 1089.91 87.25 1100.31 106.65L1105.91 117.25H1106.51V110.45L1106.31 103.65C1106.11 102.65 1106.11 96.05 1106.11 89.85V1.25H1126.51V134.65Z" fill="#DAA520"/>
<path d="M1150.91 1.25H1214.51C1233.31 1.25 1244.51 4.65001 1252.11 12.85C1261.31 22.65 1264.31 34.25 1264.31 59.25C1264.31 94.05 1263.11 105.05 1258.11 114.45C1253.11 124.45 1245.71 130.05 1234.31 132.65C1228.71 133.85 1221.91 134.65 1216.91 134.65H1150.91V1.25ZM1210.91 117.05C1224.31 117.05 1232.91 114.45 1237.11 108.85C1242.31 102.05 1243.71 93.45 1243.71 69.05C1243.71 41.65 1242.51 34.05 1237.51 27.25C1233.31 21.45 1226.31 19.05 1213.11 19.05H1171.31V117.05H1210.91Z" fill="#DAA520"/>
</svg>
